<svg width="25" height="24" viewBox="0 0 25 24" fill="none" xmlns="http://www.w3.org/2000/svg">
<g id="Add account">
<g id="Group">
<g id="Group_2">
<path id="Vector" d="M18.46 20.8307V18.9607C18.46 17.9707 18.07 17.0207 17.36 16.3207C16.65 15.6207 15.71 15.2207 14.72 15.2207H7.24001C6.25001 15.2207 5.30001 15.6107 4.60001 16.3207C3.90001 17.0207 3.5 17.9707 3.5 18.9607V20.8307" stroke="#2A94E5" stroke-width="2" stroke-linecap="round" stroke-linejoin="round"/>
<path id="Vector_2" d="M10.99 11.48C13.05 11.48 14.73 9.81 14.73 7.74C14.73 5.67 13.06 4 10.99 4C8.92001 4 7.25 5.67 7.25 7.74C7.25 9.81 8.92001 11.48 10.99 11.48Z" stroke="#2A94E5" stroke-width="2" stroke-linecap="round" stroke-linejoin="round"/>
</g>
</g>
<g id="Group_3">
<path id="Vector_3" d="M20.5 8V14" stroke="#2A94E5" stroke-width="1.5" stroke-linejoin="round"/>
<path id="Vector_4" d="M23.5 11H17.5" stroke="#2A94E5" stroke-width="1.5" stroke-linejoin="round"/>
</g>
</g>
</svg>
