<svg width="14" height="13" viewBox="0 0 14 13" fill="none" xmlns="http://www.w3.org/2000/svg">
<path d="M12.333 1.66732H10.2197L8.99967 0.333984H4.99967L3.77967 1.66732H1.66634C0.933008 1.66732 0.333008 2.26732 0.333008 3.00065V11.0007C0.333008 11.734 0.933008 12.334 1.66634 12.334H12.333C13.0663 12.334 13.6663 11.734 13.6663 11.0007V3.00065C13.6663 2.26732 13.0663 1.66732 12.333 1.66732ZM12.333 11.0007H1.66634V3.00065H4.36634L4.75967 2.56732L5.58634 1.66732H8.41301L9.23967 2.56732L9.63301 3.00065H12.333V11.0007ZM6.99967 3.66732C5.15967 3.66732 3.66634 5.16065 3.66634 7.00065C3.66634 8.84065 5.15967 10.334 6.99967 10.334C8.83967 10.334 10.333 8.84065 10.333 7.00065C10.333 5.16065 8.83967 3.66732 6.99967 3.66732ZM6.99967 9.13398C5.81967 9.13398 4.86634 8.18065 4.86634 7.00065C4.86634 5.82065 5.81967 4.86732 6.99967 4.86732C8.17967 4.86732 9.13301 5.82065 9.13301 7.00065C9.13301 8.18065 8.17967 9.13398 6.99967 9.13398Z" fill="black" fill-opacity="0.3"/>
</svg>
