<svg width="24" height="24" viewBox="0 0 24 24" fill="none" xmlns="http://www.w3.org/2000/svg">
<path d="M11.9504 8.01081C12.1848 8.11994 12.4636 8.01869 12.5733 7.78394C12.6825 7.54957 12.5812 7.2707 12.3465 7.1612C12.1121 7.05189 11.8334 7.15315 11.7237 7.38789C11.6144 7.62226 11.7156 7.90113 11.9504 8.01081Z" fill="#2A94E5"/>
<path d="M22.7748 10.4529C22.7366 10.3478 22.658 10.2621 22.5566 10.2148L8.79443 3.79818C7.73843 3.30544 6.48451 3.7611 5.9921 4.81777C5.91629 4.98025 4.68528 7.6201 4.56596 7.87586C4.07339 8.9322 4.52905 10.1861 5.58621 10.6787L9.25652 12.3903V14.8091H3.73095V14.3874C3.73095 13.6897 3.16323 13.1219 2.46565 13.1219H1.62207C1.38905 13.1219 1.2002 13.3108 1.2002 13.5438V21.1361C1.2002 21.3689 1.38905 21.5578 1.62207 21.5578H2.46565C3.16323 21.5578 3.73095 20.9902 3.73095 20.2925V19.5494C3.73095 19.5494 10.7552 18.3064 10.7568 18.3061C11.3539 18.193 11.7873 17.6699 11.7873 17.0623V16.2702C12.3016 15.9727 12.6309 15.4182 12.6309 14.8091V13.9639L15.8392 15.4602C16.4577 15.7481 17.1952 15.492 17.5027 14.8831L18.9397 15.5533C19.15 15.6514 19.4015 15.5612 19.5002 15.3493L20.765 12.6374L21.9225 12.2573C22.0331 12.221 22.1239 12.1404 22.1731 12.035L22.7606 10.7754C22.8079 10.6741 22.813 10.5581 22.7748 10.4529ZM2.88736 20.2925C2.88736 20.525 2.69818 20.7142 2.46565 20.7142H2.04378V13.9655H2.46565C2.69818 13.9655 2.88736 14.1547 2.88736 14.3874V20.2925ZM10.9437 17.0623C10.9437 17.2642 10.8 17.4382 10.6019 17.4768L3.73095 18.6928V15.6527H9.48262C9.78007 16.1672 10.3346 16.4963 10.9437 16.4963V17.0623ZM11.7873 14.8091C11.7873 15.2699 11.414 15.6527 10.9437 15.6527C10.4829 15.6527 10.1001 15.2794 10.1001 14.8091V12.7836L11.7873 13.5705V14.8091ZM16.1957 14.6956L5.9425 9.91405C5.30853 9.61873 5.03464 8.86661 5.33061 8.23231L5.50876 7.85032L17.2913 13.3446L16.7563 14.4912C16.6579 14.702 16.4063 14.7936 16.1957 14.6956ZM18.914 14.6105L17.8606 14.1193L18.1515 13.4955L19.6658 12.9983L18.914 14.6105ZM21.4858 11.5129C21.469 11.5183 17.8992 12.6905 17.8908 12.6933L5.86521 7.08584L6.75675 5.17438C7.05189 4.54091 7.80385 4.26686 8.43798 4.56266L21.8178 10.8011L21.4858 11.5129Z" fill="#2A94E5" stroke="#2A94E5" stroke-width="0.5"/>
<path d="M7.47619 5.4074C7.3667 5.64196 7.46832 5.92083 7.70288 6.03032L10.2513 7.21886C10.4852 7.32781 10.7644 7.22747 10.8743 6.99218C10.9836 6.75762 10.8821 6.47875 10.6476 6.36925L8.09894 5.1809C7.86438 5.07122 7.58551 5.17284 7.47619 5.4074Z" fill="#2A94E5"/>
</svg>
