<svg width="556" height="410" viewBox="0 0 556 410" fill="none" xmlns="http://www.w3.org/2000/svg">
<g clip-path="url(#clip0_653_40458)">
<path d="M278.733 409.996C431.863 409.996 556 353.947 556 284.807C556 215.668 431.863 159.619 278.733 159.619C125.602 159.619 1.4649 215.668 1.4649 284.807C1.4649 353.947 125.602 409.996 278.733 409.996Z" fill="#7694C1"/>
<path d="M554.535 273.15C554.535 274.165 554.511 275.18 554.461 276.191C554.184 282.024 553.104 287.766 551.271 293.387C541.275 324.082 508.899 351.271 462.295 371.086C413.22 391.958 348.37 404.652 277.268 404.652C124.136 404.652 0 345.778 0 273.15C0 200.522 124.136 141.644 277.268 141.644C322.097 141.644 364.444 146.69 401.917 155.651C453.101 167.889 495.196 187.434 522.118 211.397C523.682 212.784 525.197 214.193 526.657 215.614C544.514 232.989 554.535 252.514 554.535 273.15Z" fill="url(#paint0_linear_653_40458)"/>
<path opacity="0.62" d="M551.271 293.387C541.275 324.082 508.899 351.271 462.295 371.086H392.86L427.875 293.387H551.271Z" fill="url(#paint1_linear_653_40458)"/>
<path opacity="0.62" d="M554.535 273.15C554.535 274.165 554.511 275.18 554.461 276.19L276.75 276.775L322.196 215.949L526.657 215.614C544.514 232.989 554.535 252.514 554.535 273.15Z" fill="url(#paint2_linear_653_40458)"/>
<path opacity="0.62" d="M522.118 211.397L415.074 211.62L401.917 155.651C453.101 167.888 495.196 187.434 522.118 211.397Z" fill="url(#paint3_linear_653_40458)"/>
<path d="M278.935 304.167C251.239 304.167 225.198 299.051 205.603 289.754C185.908 280.412 175.064 267.959 175.064 254.681C175.064 241.403 185.908 228.95 205.603 219.608C225.198 210.315 251.243 205.195 278.935 205.195C306.627 205.195 332.672 210.311 352.267 219.608C371.962 228.95 382.806 241.403 382.806 254.681C382.806 267.959 371.962 280.412 352.267 289.754C332.672 299.046 306.627 304.167 278.935 304.167ZM278.935 206.027C222.115 206.027 175.887 227.856 175.887 254.681C175.887 281.506 222.115 303.334 278.935 303.334C335.755 303.334 381.978 281.506 381.978 254.681C381.978 227.856 335.75 206.027 278.935 206.027Z" fill="white"/>
<path d="M277.268 304.142C249.485 304.142 223.344 299.001 203.666 289.671C183.745 280.222 172.772 267.569 172.772 254.039C172.772 240.508 183.745 227.856 203.666 218.406C223.344 209.072 249.48 203.935 277.268 203.935C305.055 203.935 331.191 209.077 350.869 218.406C370.791 227.856 381.763 240.508 381.763 254.039C381.763 267.569 370.791 280.222 350.869 289.671C331.191 299.005 305.055 304.142 277.268 304.142ZM277.268 206.003C220.791 206.003 174.841 227.549 174.841 254.035C174.841 280.52 220.787 302.067 277.268 302.067C333.748 302.067 379.69 280.52 379.69 254.035C379.69 227.549 333.744 206.003 277.268 206.003Z" fill="#7694C1"/>
<path d="M141.89 218.025L101.512 194.684C100.875 194.316 100.499 193.657 100.499 192.924C100.499 192.19 100.879 191.532 101.512 191.163L174.568 148.931C174.696 148.86 174.845 148.856 174.973 148.931L218.656 174.181C219.289 174.55 219.67 175.205 219.67 175.942C219.67 176.679 219.289 177.334 218.656 177.703L148.903 218.025C147.844 218.638 146.631 218.961 145.398 218.961C144.166 218.961 142.953 218.638 141.894 218.025H141.89ZM101.918 191.867C101.537 192.087 101.31 192.484 101.31 192.924C101.31 193.363 101.537 193.76 101.918 193.98L142.295 217.321C144.17 218.406 146.623 218.406 148.497 217.321L218.251 176.994C218.632 176.775 218.859 176.381 218.859 175.938C218.859 175.495 218.632 175.101 218.251 174.881L174.911 149.826L174.774 149.747L101.922 191.863L101.918 191.867Z" fill="white"/>
<path d="M141.89 217.337L101.512 193.997C100.875 193.628 100.499 192.969 100.499 192.236C100.499 191.503 100.879 190.844 101.512 190.475L174.568 148.243C174.696 148.173 174.845 148.169 174.973 148.243L218.656 173.494C219.289 173.862 219.67 174.517 219.67 175.254C219.67 175.992 219.289 176.646 218.656 177.015L148.903 217.337C147.844 217.95 146.631 218.274 145.398 218.274C144.166 218.274 142.953 217.95 141.894 217.337H141.89ZM101.918 191.179C101.537 191.399 101.31 191.797 101.31 192.236C101.31 192.675 101.537 193.073 101.918 193.292L142.295 216.633C144.17 217.718 146.623 217.718 148.497 216.633L218.251 176.307C218.632 176.087 218.859 175.694 218.859 175.25C218.859 174.807 218.632 174.413 218.251 174.194L174.911 149.138L174.774 149.059L101.922 191.175L101.918 191.179Z" fill="#7694C1"/>
<path d="M223.89 162.838L219.654 165.055L177.154 140.484C176.442 140.074 175.201 140.123 174.382 140.6L101.082 182.973C100.379 182.579 97.1808 181.038 97.1808 181.038L98.7323 185.085L98.7365 185.081C98.8027 185.259 98.9392 185.429 99.1709 185.562L143.93 211.438C144.642 211.848 145.883 211.798 146.702 211.322L221.71 167.959C222.049 167.764 222.252 167.528 222.339 167.288H222.343L223.886 162.83L223.89 162.838Z" fill="#7694C1"/>
<path d="M223.237 163.539L146.363 207.979C145.523 208.463 144.248 208.517 143.52 208.095L97.6482 181.576C96.92 181.154 97.011 180.421 97.8509 179.932L174.725 135.492C175.565 135.007 176.839 134.953 177.567 135.376L223.439 161.894C224.168 162.316 224.077 163.05 223.237 163.539Z" fill="url(#paint4_linear_653_40458)"/>
<path d="M223.237 163.095L146.363 207.535C145.523 208.02 144.249 208.074 143.52 207.656L97.6484 181.137C97.4084 181.001 97.2678 180.827 97.2016 180.64C97.0857 180.984 97.2264 181.336 97.6484 181.58L143.52 208.099C144.249 208.521 145.523 208.468 146.363 207.983L223.237 163.543C223.804 163.215 224.019 162.776 223.886 162.395C223.804 162.644 223.589 162.892 223.237 163.099V163.095Z" fill="white"/>
<path d="M123.177 198.367V197.522C123.177 197.443 123.226 197.406 123.284 197.439L126.259 199.159C126.317 199.192 126.367 199.287 126.367 199.366V200.211C126.367 200.29 126.317 200.327 126.259 200.294L123.284 198.574C123.222 198.541 123.177 198.446 123.177 198.367Z" fill="#364F6F"/>
<path d="M127.62 200.936V200.091C127.62 200.012 127.67 199.975 127.728 200.008L130.703 201.727C130.765 201.76 130.81 201.856 130.81 201.934V202.779C130.81 202.858 130.761 202.895 130.703 202.862L127.728 201.143C127.666 201.11 127.62 201.015 127.62 200.936Z" fill="#364F6F"/>
<path d="M123.508 187.604L187.39 150.675C187.816 150.431 188.342 150.431 188.768 150.675L211.515 163.853C211.842 164.044 211.842 164.516 211.515 164.703L147.662 201.615C147.236 201.86 146.715 201.86 146.288 201.615L123.508 188.454C123.181 188.263 123.181 187.791 123.508 187.604Z" fill="url(#paint5_linear_653_40458)"/>
<path d="M123.508 188.458L123.735 188.59L187.39 151.794C187.816 151.549 188.342 151.549 188.768 151.794L211.288 164.84L211.515 164.707C211.842 164.516 211.842 164.044 211.515 163.858L188.768 150.679C188.342 150.431 187.816 150.431 187.39 150.679L123.508 187.609C123.181 187.799 123.181 188.271 123.508 188.458Z" fill="#9198DB"/>
<path d="M190.485 154.014L131.642 188.031L128.725 186.867L188.019 152.589L190.485 154.014Z" fill="#7694C1"/>
<path d="M196.534 157.511L144.485 187.6L142.019 186.175L194.068 156.086L196.534 157.511Z" fill="#24126A"/>
<path d="M200.473 159.789L139.193 195.215L136.727 193.79L198.007 158.364L200.473 159.789Z" fill="#7694C1"/>
<path d="M204.412 162.068L143.132 197.493L140.666 196.068L201.946 160.639L204.412 162.068Z" fill="#7694C1"/>
<path d="M208.355 164.342L147.071 199.772L144.605 198.343L205.885 162.917L208.355 164.342Z" fill="#24126A"/>
<path d="M131.642 188.031L129.172 189.456L126.706 188.031L129.172 186.606L131.642 188.031Z" fill="#7694C1"/>
<path d="M147.48 185.868L135.221 192.957L132.755 191.528L145.101 184.394L147.48 185.868Z" fill="#7694C1"/>
<path d="M146.251 171.058L163.475 161.099C164.149 160.709 164.149 160.08 163.475 159.69L151.696 152.879C151.021 152.49 149.929 152.49 149.259 152.879L132.034 162.839C131.36 163.228 131.36 163.858 132.034 164.247L143.814 171.058C144.488 171.448 145.581 171.448 146.251 171.058Z" fill="url(#paint6_linear_653_40458)"/>
<path d="M132.035 163.414L149.259 153.455C149.934 153.065 151.026 153.065 151.696 153.455L163.476 160.266C163.682 160.386 163.819 160.531 163.898 160.68C164.076 160.34 163.939 159.955 163.476 159.686L151.696 152.875C151.022 152.485 149.93 152.485 149.259 152.875L132.035 162.834C131.572 163.103 131.435 163.489 131.613 163.828C131.692 163.675 131.828 163.53 132.035 163.41V163.414Z" fill="#9198DB"/>
<path d="M223.77 161.699L214.051 103.969L214.833 103.637L213.658 102.962V102.97C213.431 102.817 213.112 102.829 212.756 103.032L135.092 147.928C134.455 148.297 133.971 149.241 134.083 149.904L143.876 208.09C143.926 208.393 144.079 208.596 144.286 208.683L145.436 209.35L145.634 208.277L145.568 208.298L222.761 163.671C223.398 163.302 223.882 162.358 223.77 161.695V161.699Z" fill="url(#paint7_linear_653_40458)"/>
<path d="M135.527 149.511L134.248 148.943C134.104 149.271 134.033 149.614 134.083 149.904L143.876 208.091C143.926 208.393 144.079 208.596 144.286 208.683L145.436 209.35L145.635 208.277L145.569 208.298L149.474 206.04L135.527 149.511Z" fill="#7694C1"/>
<path d="M223.981 164.375L146.317 209.271C145.717 209.619 145.204 209.416 145.101 208.795L135.307 150.608C135.196 149.946 135.68 149.001 136.317 148.632L213.981 103.736C214.581 103.388 215.094 103.591 215.198 104.213L224.991 162.399C225.103 163.062 224.619 164.006 223.981 164.375Z" fill="url(#paint8_linear_653_40458)"/>
<path d="M414.975 220.85C413.742 220.85 412.53 220.527 411.47 219.914L341.717 179.592C341.084 179.223 340.703 178.569 340.703 177.831C340.703 177.094 341.084 176.439 341.717 176.07L385.4 150.82C385.524 150.745 385.677 150.749 385.806 150.82L458.861 193.052C459.498 193.421 459.874 194.079 459.874 194.813C459.874 195.546 459.494 196.205 458.861 196.573L418.483 219.914C417.424 220.527 416.212 220.85 414.979 220.85H414.975ZM385.599 151.64L385.462 151.719L342.122 176.775C341.742 176.994 341.514 177.388 341.514 177.831C341.514 178.274 341.742 178.668 342.122 178.888L411.876 219.214C413.75 220.299 416.204 220.299 418.078 219.214L458.455 195.873C458.836 195.654 459.064 195.256 459.064 194.817C459.064 194.378 458.836 193.98 458.455 193.76L385.603 151.644L385.599 151.64Z" fill="white"/>
<path d="M336.479 164.727L340.716 166.944L383.216 142.373C383.927 141.963 385.169 142.012 385.988 142.489L459.287 184.862C459.99 184.468 463.189 182.927 463.189 182.927L461.637 186.974L461.633 186.97C461.567 187.148 461.43 187.318 461.199 187.451L416.44 213.327C415.728 213.737 414.487 213.687 413.667 213.211L338.659 169.848C338.32 169.653 338.117 169.417 338.031 169.177H338.026L336.483 164.719L336.479 164.727Z" fill="#7694C1"/>
<path d="M337.133 165.428L414.007 209.868C414.847 210.353 416.121 210.406 416.849 209.984L462.721 183.466C463.45 183.043 463.359 182.31 462.519 181.821L385.645 137.381C384.805 136.896 383.53 136.842 382.802 137.265L336.93 163.783C336.202 164.205 336.293 164.939 337.133 165.428V165.428Z" fill="url(#paint9_linear_653_40458)"/>
<path d="M337.133 164.984L414.007 209.424C414.847 209.909 416.121 209.963 416.849 209.545L462.721 183.026C462.961 182.89 463.102 182.716 463.168 182.529C463.284 182.873 463.143 183.225 462.721 183.47L416.849 209.988C416.121 210.41 414.847 210.357 414.007 209.872L337.133 165.432C336.566 165.104 336.351 164.665 336.483 164.284C336.566 164.533 336.781 164.781 337.133 164.988V164.984Z" fill="white"/>
<path d="M437.197 200.256V199.411C437.197 199.333 437.148 199.295 437.09 199.328L434.115 201.048C434.057 201.081 434.007 201.176 434.007 201.255V202.1C434.007 202.179 434.057 202.216 434.115 202.183L437.09 200.464C437.152 200.43 437.197 200.335 437.197 200.256Z" fill="#364F6F"/>
<path d="M432.749 202.825V201.98C432.749 201.901 432.7 201.864 432.642 201.897L429.667 203.616C429.605 203.649 429.559 203.745 429.559 203.823V204.668C429.559 204.747 429.609 204.784 429.667 204.751L432.642 203.032C432.704 202.999 432.749 202.904 432.749 202.825Z" fill="#364F6F"/>
<path d="M436.862 189.493L372.98 152.564C372.553 152.32 372.028 152.32 371.602 152.564L348.854 165.742C348.527 165.933 348.527 166.405 348.854 166.592L412.707 203.504C413.134 203.749 413.655 203.749 414.081 203.504L436.862 190.343C437.189 190.152 437.189 189.68 436.862 189.493V189.493Z" fill="url(#paint10_linear_653_40458)"/>
<path d="M436.862 190.347L436.634 190.479L372.98 153.683C372.553 153.438 372.028 153.438 371.602 153.683L349.082 166.729L348.854 166.596C348.527 166.405 348.527 165.933 348.854 165.747L371.602 152.568C372.028 152.32 372.553 152.32 372.98 152.568L436.862 189.498C437.189 189.688 437.189 190.16 436.862 190.347V190.347Z" fill="#9198DB"/>
<path d="M369.885 155.903L428.732 189.92L431.649 188.756L372.355 154.478L369.885 155.903Z" fill="#7694C1"/>
<path d="M363.836 159.4L415.885 189.489L418.355 188.064L366.306 157.975L363.836 159.4Z" fill="#24126A"/>
<path d="M359.897 161.678L421.181 197.104L423.647 195.679L362.367 160.249L359.897 161.678Z" fill="#7694C1"/>
<path d="M355.958 163.953L417.238 199.382L419.708 197.957L358.424 162.528L355.958 163.953Z" fill="#7694C1"/>
<path d="M352.019 166.231L413.299 201.661L415.765 200.232L354.485 164.806L352.019 166.231Z" fill="#24126A"/>
<path d="M428.732 189.92L431.198 191.345L433.664 189.92L431.198 188.495L428.732 189.92Z" fill="#7694C1"/>
<path d="M412.894 187.757L425.149 194.842L427.615 193.416L415.273 186.282L412.894 187.757Z" fill="#7694C1"/>
<path d="M414.118 172.943L396.894 162.983C396.22 162.594 396.22 161.964 396.894 161.575L408.673 154.764C409.348 154.374 410.44 154.374 411.11 154.764L428.335 164.723C429.009 165.113 429.009 165.742 428.335 166.132L416.555 172.943C415.881 173.332 414.789 173.332 414.118 172.943Z" fill="url(#paint11_linear_653_40458)"/>
<path d="M428.335 165.303L411.111 155.344C410.437 154.954 409.344 154.954 408.674 155.344L396.895 162.155C396.688 162.275 396.551 162.42 396.473 162.569C396.295 162.229 396.431 161.844 396.895 161.575L408.674 154.764C409.349 154.374 410.441 154.374 411.111 154.764L428.335 164.723C428.799 164.992 428.935 165.378 428.757 165.717C428.679 165.564 428.542 165.419 428.335 165.299V165.303Z" fill="#9198DB"/>
<path d="M336.603 163.588L346.322 105.858L345.54 105.526L346.715 104.851V104.859C346.943 104.706 347.261 104.718 347.617 104.921L425.281 149.817C425.918 150.186 426.403 151.131 426.291 151.793L416.497 209.98C416.448 210.282 416.295 210.485 416.088 210.572L414.938 211.239L414.739 210.166L414.805 210.187L337.613 165.56C336.976 165.191 336.491 164.247 336.603 163.584V163.588Z" fill="url(#paint12_linear_653_40458)"/>
<path d="M424.847 151.4L426.125 150.832C426.27 151.16 426.34 151.504 426.291 151.794L416.497 209.98C416.448 210.282 416.295 210.485 416.088 210.572L414.938 211.239L414.739 210.166L414.805 210.187L410.899 207.929L424.847 151.4V151.4Z" fill="#7694C1"/>
<path d="M336.392 166.264L414.056 211.16C414.656 211.508 415.169 211.305 415.273 210.684L425.066 152.498C425.178 151.835 424.694 150.89 424.057 150.522L346.392 105.626C345.792 105.278 345.279 105.481 345.176 106.102L335.383 164.288C335.271 164.951 335.755 165.896 336.392 166.264V166.264Z" fill="url(#paint13_linear_653_40458)"/>
<path d="M275.886 262.822L320.885 236.809L275.886 210.796L230.887 236.809L275.886 262.822Z" fill="#61CFFF"/>
<path d="M275.886 255.721L308.597 236.809L275.886 217.901L243.176 236.809L275.886 255.721Z" fill="url(#paint14_linear_653_40458)"/>
<path d="M275.886 219.181L244.284 237.451L243.176 236.809L275.886 217.901L308.597 236.809L307.492 237.451L275.886 219.181Z" fill="white"/>
<path d="M230.887 236.809V251.557L275.886 277.57V262.822L230.887 236.809Z" fill="url(#paint15_linear_653_40458)"/>
<path d="M320.885 236.809V251.553L275.886 277.57V262.822L320.885 236.809Z" fill="#24126A"/>
<g opacity="0.51">
<path d="M317.836 243.433V248.077L278.935 270.569V265.925L317.836 243.433Z" fill="#453C9E"/>
</g>
<path d="M275.886 261.976L320.153 236.386L320.885 236.809L275.886 262.822L230.887 236.809L231.62 236.386L275.886 261.976Z" fill="white"/>
<path d="M237.635 247.141V249.784L269.138 267.992V265.353L237.635 247.141Z" fill="white"/>
<path d="M320.885 236.809V251.553L275.886 277.57V262.822L320.885 236.809Z" fill="#2A94E5"/>
<path d="M289.022 262.039L297.169 257.328L297.173 258.302L289.022 263.012V262.039Z" fill="white"/>
<path d="M298.344 256.661L300.554 255.385V256.355L298.348 257.635L298.344 256.661Z" fill="white"/>
<path d="M308.688 250.683L313.206 248.069V249.043L308.688 251.657V250.683Z" fill="white"/>
<path d="M304.567 253.065L307.831 251.176L307.835 252.15L304.567 254.039V253.065Z" fill="white"/>
<path d="M301.501 254.838L303.711 253.558V254.532L301.505 255.808L301.501 254.838Z" fill="white"/>
<path d="M275.84 224.393L277.268 223.564L275.84 222.74L274.413 223.564L275.84 224.393Z" fill="#42E8E0"/>
<path opacity="0.1" d="M272.982 226.046L274.413 225.217L272.982 224.392L271.554 225.217L272.982 226.046Z" fill="#42E8E0"/>
<path opacity="0.4" d="M270.122 227.695L271.554 226.87L270.122 226.046L268.695 226.87L270.122 227.695Z" fill="#42E8E0"/>
<path d="M267.268 229.348L268.695 228.523L267.268 227.694L265.836 228.523L267.268 229.348Z" fill="#42E8E0"/>
<path opacity="0.4" d="M264.409 231.001L265.836 230.176L264.409 229.347L262.982 230.176L264.409 231.001Z" fill="#42E8E0"/>
<path d="M261.55 232.654L262.981 231.825L261.55 231L260.122 231.825L261.55 232.654Z" fill="#42E8E0"/>
<path d="M258.695 234.307L260.123 233.478L258.695 232.653L257.264 233.478L258.695 234.307Z" fill="#42E8E0"/>
<path d="M255.836 235.956L257.263 235.131L255.836 234.306L254.409 235.131L255.836 235.956Z" fill="#42E8E0"/>
<path opacity="0.1" d="M252.977 237.609L254.404 236.784L252.977 235.955L251.549 236.784L252.977 237.609Z" fill="#42E8E0"/>
<path d="M278.708 226.051L280.139 225.226L278.708 224.397L277.28 225.226L278.708 226.051Z" fill="#42E8E0"/>
<path d="M275.853 227.704L277.28 226.879L275.853 226.05L274.421 226.879L275.853 227.704Z" fill="#42E8E0"/>
<path d="M272.994 229.357L274.422 228.528L272.994 227.703L271.567 228.528L272.994 229.357Z" fill="#42E8E0"/>
<path d="M270.135 231.01L271.567 230.181L270.135 229.356L268.708 230.181L270.135 231.01Z" fill="#42E8E0"/>
<path d="M267.28 232.658L268.708 231.834L267.28 231.009L265.849 231.834L267.28 232.658Z" fill="#42E8E0"/>
<path d="M264.421 234.312L265.849 233.487L264.421 232.658L262.99 233.487L264.421 234.312Z" fill="#42E8E0"/>
<path d="M261.562 235.964L262.99 235.14L261.562 234.311L260.135 235.14L261.562 235.964Z" fill="#42E8E0"/>
<path d="M258.703 237.617L260.135 236.788L258.703 235.964L257.276 236.788L258.703 237.617Z" fill="#42E8E0"/>
<path d="M255.848 239.27L257.276 238.441L255.848 237.617L254.417 238.441L255.848 239.27Z" fill="#42E8E0"/>
<path d="M281.579 227.712L283.006 226.883L281.579 226.058L280.152 226.883L281.579 227.712Z" fill="#42E8E0"/>
<path d="M278.72 229.361L280.152 228.536L278.72 227.711L277.293 228.536L278.72 229.361Z" fill="#42E8E0"/>
<path d="M275.862 231.014L277.293 230.189L275.862 229.36L274.434 230.189L275.862 231.014Z" fill="#42E8E0"/>
<path opacity="0.1" d="M273.006 232.667L274.434 231.842L273.006 231.013L271.575 231.842L273.006 232.667Z" fill="#42E8E0"/>
<path opacity="0.4" d="M270.148 234.32L271.575 233.491L270.148 232.666L268.72 233.491L270.148 234.32Z" fill="#42E8E0"/>
<path opacity="0.4" d="M267.289 235.973L268.72 235.144L267.289 234.319L265.861 235.144L267.289 235.973Z" fill="#42E8E0"/>
<path d="M264.434 237.621L265.861 236.797L264.434 235.972L263.002 236.797L264.434 237.621Z" fill="#42E8E0"/>
<path d="M261.575 239.274L263.002 238.45L261.575 237.621L260.147 238.45L261.575 239.274Z" fill="#42E8E0"/>
<path d="M258.716 240.927L260.147 240.103L258.716 239.274L257.288 240.103L258.716 240.927Z" fill="#42E8E0"/>
<path opacity="0.4" d="M284.447 229.369L285.878 228.544L284.447 227.715L283.019 228.544L284.447 229.369Z" fill="#42E8E0"/>
<path opacity="0.4" d="M281.591 231.022L283.019 230.193L281.591 229.368L280.16 230.193L281.591 231.022Z" fill="#42E8E0"/>
<path opacity="0.1" d="M278.733 232.675L280.16 231.846L278.733 231.021L277.305 231.846L278.733 232.675Z" fill="#42E8E0"/>
<path d="M275.874 234.324L277.306 233.499L275.874 232.674L274.447 233.499L275.874 234.324Z" fill="#42E8E0"/>
<path d="M273.019 235.977L274.446 235.152L273.019 234.323L271.587 235.152L273.019 235.977Z" fill="#42E8E0"/>
<path d="M270.16 237.63L271.588 236.805L270.16 235.976L268.729 236.805L270.16 237.63Z" fill="#42E8E0"/>
<path opacity="0.4" d="M267.301 239.283L268.729 238.454L267.301 237.629L265.874 238.454L267.301 239.283Z" fill="#42E8E0"/>
<path d="M264.442 240.936L265.874 240.107L264.442 239.282L263.015 240.107L264.442 240.936Z" fill="#42E8E0"/>
<path d="M261.587 242.585L263.015 241.76L261.587 240.935L260.156 241.76L261.587 242.585Z" fill="#42E8E0"/>
<path d="M287.318 231.026L288.745 230.201L287.318 229.376L285.89 230.201L287.318 231.026Z" fill="#42E8E0"/>
<path d="M284.459 232.679L285.89 231.854L284.459 231.025L283.031 231.854L284.459 232.679Z" fill="#42E8E0"/>
<path d="M281.6 234.332L283.031 233.507L281.604 232.678L280.172 233.507L281.6 234.332Z" fill="#42E8E0"/>
<path d="M278.745 235.985L280.172 235.156L278.745 234.331L277.313 235.156L278.745 235.985Z" fill="#42E8E0"/>
<path d="M275.886 237.638L277.313 236.809L275.886 235.984L274.458 236.809L275.886 237.638Z" fill="#42E8E0"/>
<path d="M273.027 239.287L274.459 238.462L273.027 237.637L271.6 238.462L273.027 239.287Z" fill="#42E8E0"/>
<path d="M270.172 240.94L271.6 240.115L270.172 239.286L268.741 240.115L270.172 240.94Z" fill="#42E8E0"/>
<path d="M267.313 242.593L268.741 241.768L267.313 240.939L265.886 241.768L267.313 242.593Z" fill="#42E8E0"/>
<path d="M264.454 244.246L265.886 243.417L264.454 242.592L263.027 243.417L264.454 244.246Z" fill="#42E8E0"/>
<path d="M290.185 232.687L291.616 231.858L290.185 231.034L288.757 231.858L290.185 232.687Z" fill="#42E8E0"/>
<path d="M287.33 234.34L288.757 233.511L287.33 232.687L285.898 233.511L287.33 234.34Z" fill="#42E8E0"/>
<path opacity="0.4" d="M284.471 235.989L285.899 235.164L284.471 234.339L283.044 235.164L284.471 235.989Z" fill="#42E8E0"/>
<path d="M281.612 237.642L283.043 236.817L281.612 235.988L280.184 236.817L281.612 237.642Z" fill="#42E8E0"/>
<path opacity="0.1" d="M278.757 239.295L280.185 238.47L278.757 237.641L277.326 238.47L278.757 239.295Z" fill="#42E8E0"/>
<path d="M275.898 240.948L277.326 240.119L275.898 239.294L274.471 240.119L275.898 240.948Z" fill="#42E8E0"/>
<path d="M273.039 242.601L274.471 241.772L273.039 240.947L271.612 241.772L273.039 242.601Z" fill="#42E8E0"/>
<path d="M270.18 244.25L271.612 243.425L270.18 242.6L268.753 243.425L270.18 244.25Z" fill="#42E8E0"/>
<path d="M267.325 245.903L268.753 245.078L267.325 244.249L265.894 245.078L267.325 245.903Z" fill="#42E8E0"/>
<path d="M293.056 234.345L294.484 233.52L293.056 232.691L291.629 233.52L293.056 234.345Z" fill="#42E8E0"/>
<path d="M290.197 235.997L291.629 235.172L290.197 234.344L288.77 235.172L290.197 235.997Z" fill="#42E8E0"/>
<path opacity="0.4" d="M287.342 237.65L288.77 236.821L287.342 235.997L285.911 236.821L287.342 237.65Z" fill="#42E8E0"/>
<path d="M284.484 239.303L285.911 238.474L284.484 237.65L283.052 238.474L284.484 239.303Z" fill="#42E8E0"/>
<path d="M281.625 240.952L283.052 240.127L281.625 239.303L280.198 240.127L281.625 240.952Z" fill="#42E8E0"/>
<path opacity="0.1" d="M278.766 242.605L280.197 241.78L278.766 240.951L277.338 241.78L278.766 242.605Z" fill="#42E8E0"/>
<path opacity="0.4" d="M275.911 244.258L277.338 243.433L275.911 242.604L274.479 243.433L275.911 244.258Z" fill="#42E8E0"/>
<path d="M273.052 245.911L274.479 245.082L273.052 244.257L271.625 245.082L273.052 245.911Z" fill="#42E8E0"/>
<path opacity="0.1" d="M270.193 247.564L271.625 246.735L270.193 245.911L268.766 246.735L270.193 247.564Z" fill="#42E8E0"/>
<path d="M295.924 236.006L297.355 235.177L295.924 234.352L294.496 235.177L295.924 236.006Z" fill="#42E8E0"/>
<path opacity="0.4" d="M293.069 237.654L294.496 236.83L293.069 236.005L291.637 236.83L293.069 237.654Z" fill="#42E8E0"/>
<path d="M290.21 239.308L291.637 238.483L290.21 237.654L288.782 238.483L290.21 239.308Z" fill="#42E8E0"/>
<path d="M287.351 240.96L288.783 240.136L287.351 239.307L285.924 240.136L287.351 240.96Z" fill="#42E8E0"/>
<path d="M284.496 242.614L285.924 241.785L284.496 240.96L283.065 241.785L284.496 242.614Z" fill="#42E8E0"/>
<path d="M281.637 244.266L283.064 243.438L281.637 242.613L280.209 243.438L281.637 244.266Z" fill="#42E8E0"/>
<path d="M278.778 245.915L280.21 245.09L278.778 244.266L277.351 245.09L278.778 245.915Z" fill="#42E8E0"/>
<path opacity="0.4" d="M275.919 247.568L277.35 246.744L275.919 245.915L274.491 246.744L275.919 247.568Z" fill="#42E8E0"/>
<path d="M273.064 249.221L274.492 248.396L273.064 247.568L271.633 248.396L273.064 249.221Z" fill="#42E8E0"/>
<path d="M298.795 237.663L300.222 236.838L298.795 236.009L297.368 236.838L298.795 237.663Z" fill="#42E8E0"/>
<path opacity="0.1" d="M295.936 239.316L297.367 238.487L295.936 237.662L294.508 238.487L295.936 239.316Z" fill="#42E8E0"/>
<path d="M293.081 240.969L294.509 240.14L293.081 239.315L291.65 240.14L293.081 240.969Z" fill="#42E8E0"/>
<path d="M290.222 242.618L291.649 241.793L290.222 240.968L288.79 241.793L290.222 242.618Z" fill="#42E8E0"/>
<path d="M287.363 244.271L288.791 243.446L287.363 242.617L285.936 243.446L287.363 244.271Z" fill="#42E8E0"/>
<path d="M284.504 245.924L285.936 245.099L284.504 244.27L283.077 245.099L284.504 245.924Z" fill="#42E8E0"/>
<path opacity="0.4" d="M281.649 247.577L283.077 246.748L281.649 245.923L280.218 246.748L281.649 247.577Z" fill="#42E8E0"/>
<path d="M278.79 249.23L280.218 248.401L278.79 247.576L277.363 248.401L278.79 249.23Z" fill="#42E8E0"/>
<path d="M275.931 250.879L277.363 250.054L275.931 249.229L274.504 250.054L275.931 250.879Z" fill="#42E8E0"/>
<path d="M275.886 233.109L348.2 191.304L275.886 149.498L203.571 191.304L275.886 233.109Z" fill="#2A94E5"/>
<path d="M275.886 221.696L328.456 191.304L275.886 160.916L223.319 191.304L275.886 221.696Z" fill="white"/>
<path d="M275.886 213.099L313.582 191.304L275.886 169.512L238.189 191.304L275.886 213.099Z" fill="url(#paint16_linear_653_40458)"/>
<path d="M275.886 203.579L297.119 191.304L275.886 179.028L254.652 191.304L275.886 203.579Z" fill="white"/>
<path d="M275.886 162.975L225.099 192.335L223.319 191.304L275.886 160.916L328.456 191.304L326.673 192.335L275.886 162.975Z" fill="url(#paint17_linear_653_40458)"/>
<path d="M203.571 191.304V215.001L275.886 256.806V233.109L203.571 191.304Z" fill="url(#paint18_linear_653_40458)"/>
<path d="M348.2 191.304V215.001L275.886 256.806V233.109L348.2 191.304Z" fill="#24126A"/>
<g opacity="0.51">
<path d="M343.302 201.951V209.412L280.785 245.554V238.093L343.302 201.951Z" fill="#453C9E"/>
</g>
<path d="M275.886 231.75L347.025 190.624L348.2 191.304L275.886 233.109L203.571 191.304L204.746 190.629L275.886 231.75Z" fill="white"/>
<path d="M214.419 208.658V212.9L265.037 242.161V237.919L214.419 208.658Z" fill="#0097EC"/>
<path d="M214.419 207.912V212.15L265.037 241.415V237.173L214.419 207.912Z" fill="white"/>
<path d="M348.2 191.304V215.001L275.886 256.806V233.109L348.2 191.304Z" fill="#2A94E5"/>
<path d="M296.995 231.597L310.09 224.024V225.59L296.995 233.159V231.597Z" fill="#7694C1"/>
<path d="M311.977 222.951L315.527 220.9V222.462L311.981 224.513L311.977 222.951Z" fill="#7694C1"/>
<path d="M328.601 213.344L335.858 209.147V210.709L328.601 214.906V213.344Z" fill="#7694C1"/>
<path d="M321.977 217.176L327.223 214.139L327.227 215.701L321.977 218.738V217.176Z" fill="#7694C1"/>
<path d="M317.054 220.018L320.599 217.967L320.604 219.533L317.054 221.584V220.018Z" fill="#7694C1"/>
<path d="M296.995 232.264L310.09 224.695V226.257L296.995 233.83V232.264Z" fill="white"/>
<path d="M311.977 223.618L315.527 221.567V223.133L311.981 225.184L311.977 223.618Z" fill="white"/>
<path d="M328.601 214.011L335.858 209.814V211.38L328.601 215.577V214.011Z" fill="white"/>
<path d="M321.977 217.843L327.223 214.806L327.227 216.372L321.977 219.405V217.843Z" fill="white"/>
<path d="M317.054 220.689L320.599 218.638L320.604 220.2L317.054 222.251V220.689Z" fill="white"/>
<g style="mix-blend-mode:lighten">
<path d="M158.754 376.045L87.7679 335.006C87.1225 334.634 86.7418 333.967 86.7418 333.221C86.7418 332.475 87.1266 331.808 87.7679 331.435L132.221 305.737C132.345 305.663 132.498 305.663 132.626 305.737L206.976 348.719C207.622 349.092 208.007 349.759 208.007 350.505C208.007 351.25 207.622 351.917 206.976 352.29L165.887 376.045C164.807 376.671 163.574 376.998 162.321 376.998C161.067 376.998 159.834 376.671 158.754 376.045ZM88.1734 332.144C87.7845 332.367 87.5528 332.773 87.5528 333.225C87.5528 333.677 87.7845 334.083 88.1734 334.306L159.16 375.345C161.071 376.451 163.566 376.451 165.478 375.345L206.567 351.59C206.956 351.362 207.192 350.96 207.192 350.509C207.192 350.057 206.96 349.655 206.567 349.428L132.419 306.566L88.1692 332.148L88.1734 332.144Z" fill="white"/>
</g>
<path d="M82.4349 319.893L86.7461 322.147L129.999 297.145C130.723 296.727 131.985 296.78 132.821 297.261L207.415 340.384C208.131 339.986 211.383 338.416 211.383 338.416L209.802 342.534C209.802 342.534 209.798 342.53 209.794 342.53C209.728 342.712 209.587 342.882 209.351 343.019L163.798 369.351C163.074 369.769 161.812 369.715 160.976 369.235L84.6402 325.105C84.2968 324.906 84.0858 324.666 83.9989 324.421H83.9947L82.4266 319.885L82.4349 319.893Z" fill="#7694C1"/>
<path d="M83.1008 320.602L161.336 365.829C162.192 366.326 163.488 366.376 164.228 365.949L210.911 338.959C211.652 338.532 211.561 337.782 210.704 337.285L132.469 292.058C131.613 291.56 130.318 291.511 129.577 291.937L82.8898 318.928C82.1492 319.355 82.2402 320.105 83.0967 320.602H83.1008Z" fill="url(#paint19_linear_653_40458)"/>
<path d="M83.1008 320.15L161.336 365.378C162.192 365.875 163.487 365.924 164.228 365.498L210.911 338.507C211.155 338.366 211.3 338.192 211.366 338.002C211.482 338.354 211.341 338.71 210.911 338.959L164.228 365.949C163.487 366.376 162.192 366.326 161.336 365.829L83.1008 320.602C82.5257 320.27 82.3023 319.823 82.4388 319.433C82.5257 319.69 82.7408 319.943 83.1008 320.15Z" fill="white"/>
<path d="M184.932 356.048V355.19C184.932 355.107 184.882 355.07 184.82 355.107L181.796 356.856C181.734 356.893 181.684 356.984 181.684 357.067V357.925C181.684 358.007 181.734 358.045 181.796 358.007L184.82 356.259C184.882 356.222 184.932 356.131 184.932 356.048Z" fill="#364F6F"/>
<path d="M180.41 358.662V357.804C180.41 357.722 180.36 357.684 180.298 357.722L177.274 359.47C177.212 359.507 177.162 359.598 177.162 359.681V360.539C177.162 360.622 177.212 360.659 177.274 360.622L180.298 358.873C180.36 358.836 180.41 358.745 180.41 358.662Z" fill="#364F6F"/>
<path d="M198.743 336.436L133.731 298.852C133.297 298.603 132.763 298.603 132.328 298.852L109.179 312.262C108.848 312.453 108.848 312.933 109.179 313.128L174.162 350.695C174.597 350.944 175.131 350.944 175.561 350.695L198.743 337.301C199.074 337.111 199.074 336.626 198.743 336.436Z" fill="url(#paint20_linear_653_40458)"/>
<path d="M198.743 337.302L198.511 337.434L133.731 299.987C133.297 299.738 132.763 299.738 132.328 299.987L109.411 313.265L109.179 313.132C108.848 312.942 108.848 312.461 109.179 312.266L132.328 298.856C132.763 298.603 133.297 298.603 133.731 298.856L198.743 336.44C199.074 336.63 199.074 337.115 198.743 337.306V337.302Z" fill="#7694C1"/>
<path d="M130.582 302.249L187.055 334.894L189.566 333.44L133.094 300.795L130.582 302.249Z" fill="#7694C1"/>
<path d="M124.426 305.808L177.394 336.427L179.905 334.977L126.937 304.354L124.426 305.808Z" fill="#7694C1"/>
<path d="M120.417 308.124L182.781 344.179L185.292 342.725L122.928 306.674L120.417 308.124Z" fill="#7694C1"/>
<path d="M116.407 310.443L178.771 346.494L181.283 345.044L118.919 308.989L116.407 310.443Z" fill="#7694C1"/>
<path d="M112.398 312.759L174.762 348.815L177.274 347.36L114.91 311.309L112.398 312.759Z" fill="#7694C1"/>
<path d="M190.468 336.867L192.98 338.317L195.491 336.867L192.98 335.417L190.468 336.867Z" fill="#7694C1"/>
<path d="M181.61 338.863L186.823 341.875L189.334 340.425L184.121 337.413L181.61 338.863Z" fill="#7694C1"/>
<path d="M131.228 345.529L113.697 335.396C113.011 334.998 113.011 334.356 113.697 333.962L125.684 327.031C126.371 326.634 127.479 326.634 128.166 327.031L145.697 337.165C146.383 337.563 146.383 338.205 145.697 338.598L133.71 345.529C133.024 345.927 131.915 345.927 131.228 345.529Z" fill="white"/>
<path d="M145.697 337.753L128.166 327.62C127.479 327.222 126.37 327.222 125.684 327.62L113.697 334.551C113.486 334.675 113.346 334.82 113.267 334.973C113.085 334.625 113.226 334.236 113.697 333.962L125.684 327.031C126.37 326.634 127.479 326.634 128.166 327.031L145.697 337.165C146.168 337.438 146.309 337.828 146.127 338.176C146.044 338.022 145.908 337.873 145.697 337.753Z" fill="#7694C1"/>
<path d="M132.333 289.137L142.221 230.387L141.427 230.052L142.622 229.364V229.372C142.854 229.219 143.181 229.227 143.541 229.434L222.579 275.126C223.228 275.503 223.721 276.464 223.605 277.135L213.638 336.353C213.584 336.659 213.435 336.867 213.22 336.954L212.049 337.629L211.846 336.535L211.913 336.556L133.355 291.142C132.705 290.765 132.213 289.804 132.328 289.133L132.333 289.137Z" fill="#7694C1"/>
<path d="M222.136 276.733L223.435 276.157C223.58 276.489 223.655 276.841 223.601 277.135L213.634 336.353C213.58 336.659 213.431 336.867 213.216 336.958L212.045 337.633L211.842 336.539L211.908 336.56L207.932 334.261L222.128 276.733H222.136Z" fill="#7694C1"/>
<path d="M132.117 291.859L211.155 337.55C211.767 337.902 212.289 337.699 212.396 337.065L222.363 277.848C222.479 277.177 221.987 276.211 221.337 275.838L142.299 230.147C141.687 229.795 141.166 229.998 141.058 230.632L131.091 289.849C130.975 290.521 131.468 291.486 132.117 291.859Z" fill="url(#paint21_linear_653_40458)"/>
<g opacity="0.5">
<path d="M143.334 233.925L219.517 277.972L210.071 333.739L133.938 289.725L143.334 233.925Z" fill="#7271AD"/>
</g>
<g opacity="0.8">
<path d="M391.499 377.615L350.41 353.86C349.723 353.463 349.309 352.75 349.309 351.951C349.309 351.151 349.719 350.443 350.41 350.045L424.76 307.063L425.033 306.906L469.763 332.765C470.45 333.163 470.864 333.875 470.864 334.675C470.864 335.475 470.454 336.183 469.763 336.581L398.777 377.62C397.676 378.258 396.418 378.593 395.14 378.593C393.861 378.593 392.604 378.258 391.503 377.62L391.499 377.615ZM469.209 335.628C469.552 335.429 469.759 335.069 469.759 334.671C469.759 334.273 469.552 333.913 469.209 333.714L425.099 308.215L425.029 308.173L350.956 350.994C350.608 351.192 350.406 351.553 350.406 351.951C350.406 352.348 350.612 352.709 350.956 352.908L392.045 376.663C393.915 377.744 396.348 377.744 398.222 376.663L469.209 335.624V335.628Z" fill="white"/>
</g>
<path d="M425.124 290.583L415.235 231.833L416.029 231.498L414.834 230.81V230.818C414.602 230.665 414.275 230.673 413.915 230.88L334.877 276.572C334.228 276.949 333.735 277.91 333.851 278.581L343.818 337.799C343.872 338.105 344.021 338.312 344.236 338.399L345.407 339.075L345.61 337.981L345.544 338.002L424.102 292.588C424.751 292.211 425.244 291.25 425.128 290.579L425.124 290.583Z" fill="#7694C1"/>
<path d="M335.32 278.179L334.021 277.603C333.876 277.935 333.802 278.287 333.856 278.581L343.823 337.799C343.877 338.105 344.026 338.312 344.241 338.403L345.412 339.079L345.614 337.985L345.548 338.006L349.524 335.706L335.329 278.179H335.32Z" fill="#7694C1"/>
<path d="M425.339 293.305L346.301 338.996C345.693 339.348 345.167 339.145 345.06 338.511L335.092 279.293C334.977 278.622 335.469 277.657 336.118 277.284L415.156 231.593C415.765 231.241 416.29 231.444 416.398 232.078L426.365 291.295C426.481 291.966 425.988 292.932 425.339 293.305Z" fill="url(#paint22_linear_653_40458)"/>
<g opacity="0.51">
<path d="M414.122 235.375L337.935 279.418L347.385 335.189L423.519 291.175L414.122 235.375Z" fill="#7271AD"/>
</g>
<path d="M414.123 235.375L337.936 279.418L347.386 335.189L423.519 291.175L414.123 235.375Z" fill="#7271AD"/>
<mask id="mask0_653_40458" style="mask-type:alpha" maskUnits="userSpaceOnUse" x="337" y="235" width="87" height="101">
<g opacity="0.51">
<path d="M414.123 235.375L337.936 279.418L347.386 335.189L423.519 291.175L414.123 235.375Z" fill="#7271AD"/>
</g>
</mask>
<g mask="url(#mask0_653_40458)">
<g opacity="0.11">
<path d="M425.062 293.416L346.827 338.644C345.97 339.141 344.675 339.191 343.935 338.764L297.247 311.773C296.507 311.347 296.598 310.597 297.454 310.1L375.69 264.872C376.546 264.375 377.841 264.325 378.582 264.752L425.269 291.743C426.009 292.169 425.918 292.919 425.062 293.416Z" fill="url(#paint23_linear_653_40458)"/>
<path d="M346.595 301.524L364.125 291.39C364.812 290.993 364.812 290.351 364.125 289.957L352.139 283.026C351.452 282.628 350.343 282.628 349.657 283.026L332.126 293.159C331.439 293.557 331.439 294.199 332.126 294.593L344.112 301.524C344.799 301.922 345.908 301.922 346.595 301.524Z" fill="url(#paint24_linear_653_40458)"/>
<path d="M332.126 293.748L349.657 283.614C350.343 283.217 351.452 283.217 352.139 283.614L364.125 290.545C364.336 290.67 364.477 290.815 364.556 290.968C364.738 290.62 364.597 290.23 364.125 289.957L352.139 283.026C351.452 282.628 350.343 282.628 349.657 283.026L332.126 293.159C331.655 293.433 331.514 293.822 331.696 294.17C331.779 294.017 331.915 293.868 332.126 293.748Z" fill="#9198DB"/>
<path d="M324.418 317.362L389.43 279.778C389.864 279.529 390.398 279.529 390.833 279.778L413.982 293.188C414.313 293.379 414.313 293.859 413.982 294.054L348.999 331.621C348.564 331.87 348.031 331.87 347.6 331.621L324.418 318.228C324.087 318.037 324.087 317.552 324.418 317.362Z" fill="#ADB1F2"/>
<path d="M324.418 318.228L324.65 318.36L389.43 280.913C389.864 280.665 390.398 280.665 390.833 280.913L413.75 294.191L413.982 294.059C414.313 293.868 414.313 293.387 413.982 293.193L390.833 279.782C390.398 279.53 389.864 279.53 389.43 279.782L324.418 317.366C324.087 317.557 324.087 318.041 324.418 318.232V318.228Z" fill="#9198DB"/>
<path d="M407.925 292.277L351.287 325.018L353.529 326.315L410.167 293.574L407.925 292.277Z" fill="#24126A"/>
<path d="M401.958 288.826L348.126 319.947L350.368 321.244L404.201 290.123L401.958 288.826Z" fill="#24126A"/>
<path d="M344.104 322.271L339.077 325.175L341.32 326.472L346.347 323.568L344.104 322.271Z" fill="#24126A"/>
<path d="M348.543 326.6L345.043 328.626L347.286 329.923L350.79 327.901L348.543 326.6Z" fill="#24126A"/>
<path d="M398.218 286.663L335.337 323.013L337.579 324.314L400.46 287.96L398.218 286.663Z" fill="#24126A"/>
<path d="M394.478 284.501L331.597 320.854L333.843 322.151L396.72 285.798L394.478 284.501Z" fill="#24126A"/>
<path d="M390.737 282.338L327.86 318.692L330.103 319.988L392.984 283.639L390.737 282.338Z" fill="#24126A"/>
</g>
</g>
<path d="M475.022 321.339L470.711 323.593L427.458 298.591C426.733 298.172 425.472 298.226 424.636 298.707L350.042 341.83C349.326 341.432 346.074 339.862 346.074 339.862L347.654 343.98C347.654 343.98 347.658 343.976 347.663 343.976C347.729 344.158 347.869 344.328 348.105 344.464L393.659 370.796C394.383 371.215 395.645 371.161 396.48 370.68L472.817 326.551C473.16 326.352 473.371 326.112 473.458 325.867H473.462L475.03 321.331L475.022 321.339Z" fill="#7694C1"/>
<path d="M474.356 322.052L396.121 367.279C395.264 367.776 393.969 367.826 393.228 367.399L346.545 340.409C345.805 339.982 345.896 339.232 346.752 338.735L424.988 293.508C425.844 293.01 427.139 292.961 427.88 293.387L474.563 320.378C475.303 320.805 475.212 321.555 474.356 322.052Z" fill="url(#paint25_linear_653_40458)"/>
<path d="M474.356 321.6L396.12 366.827C395.264 367.325 393.969 367.374 393.228 366.948L346.545 339.957C346.301 339.816 346.156 339.642 346.09 339.451C345.974 339.804 346.115 340.16 346.545 340.408L393.228 367.399C393.969 367.826 395.264 367.776 396.12 367.279L474.356 322.052C474.931 321.72 475.154 321.273 475.018 320.883C474.931 321.14 474.716 321.393 474.356 321.6Z" fill="white"/>
<path d="M372.525 357.494V356.636C372.525 356.553 372.574 356.516 372.636 356.553L375.661 358.302C375.723 358.339 375.772 358.43 375.772 358.513V359.37C375.772 359.453 375.723 359.491 375.661 359.453L372.636 357.705C372.574 357.668 372.525 357.577 372.525 357.494Z" fill="#364F6F"/>
<path d="M377.046 360.108V359.25C377.046 359.167 377.096 359.13 377.158 359.167L380.183 360.916C380.245 360.953 380.294 361.044 380.294 361.127V361.984C380.294 362.067 380.245 362.105 380.183 362.067L377.158 360.319C377.096 360.282 377.046 360.191 377.046 360.108Z" fill="#364F6F"/>
<path d="M358.714 337.881L423.725 300.298C424.16 300.049 424.694 300.049 425.128 300.298L448.277 313.708C448.608 313.899 448.608 314.379 448.277 314.574L383.294 352.141C382.86 352.39 382.326 352.39 381.896 352.141L358.714 338.747C358.383 338.557 358.383 338.072 358.714 337.881Z" fill="url(#paint26_linear_653_40458)"/>
<path d="M358.714 338.747L358.945 338.88L423.725 301.433C424.16 301.184 424.694 301.184 425.128 301.433L448.045 314.711L448.277 314.578C448.608 314.387 448.608 313.907 448.277 313.712L425.128 300.302C424.694 300.049 424.16 300.049 423.725 300.302L358.714 337.886C358.383 338.076 358.383 338.561 358.714 338.751V338.747Z" fill="#7694C1"/>
<path d="M361.97 338.312L364.477 339.762L366.405 338.648L366.989 338.312L421.438 306.835L418.914 305.393L364.477 336.862L364.03 337.119L361.97 338.312Z" fill="#7694C1"/>
<path d="M368.122 341.871L370.634 343.321L375.048 340.773L375.847 340.309L425.008 311.889L422.501 310.435L373.335 338.859L368.122 341.871Z" fill="#7694C1"/>
<path d="M437.039 309.569L374.671 345.624L372.16 344.174L434.528 308.119L437.039 309.569Z" fill="#7694C1"/>
<path d="M441.049 311.889L378.681 347.94L376.174 346.49L438.538 310.435L441.049 311.889Z" fill="#7694C1"/>
<path d="M445.058 314.205L382.694 350.26L380.182 348.81L442.546 312.755L445.058 314.205Z" fill="#7694C1"/>
<path d="M426.229 346.975L443.759 336.842C444.446 336.444 444.446 335.802 443.759 335.408L431.773 328.477C431.086 328.079 429.977 328.079 429.29 328.477L411.76 338.611C411.073 339.008 411.073 339.65 411.76 340.044L423.746 346.975C424.433 347.373 425.542 347.373 426.229 346.975Z" fill="white"/>
<path d="M411.76 339.199L429.291 329.065C429.977 328.668 431.086 328.668 431.773 329.065L443.759 335.996C443.97 336.121 444.111 336.266 444.19 336.419C444.372 336.071 444.231 335.682 443.759 335.408L431.773 328.477C431.086 328.079 429.977 328.079 429.291 328.477L411.76 338.611C411.284 338.884 411.148 339.273 411.33 339.621C411.413 339.468 411.549 339.319 411.76 339.199Z" fill="#7694C1"/>
<path d="M426.874 303.695L424.363 305.145L421.851 303.695L424.363 302.241L426.874 303.695Z" fill="#7694C1"/>
<path d="M433.031 307.253L427.818 310.265L425.306 308.815L430.519 305.803L433.031 307.253Z" fill="#7694C1"/>
<path d="M259.754 93.3298V108.998L276.738 118.817V103.148L269.055 98.7072L260.826 93.9513L259.754 93.3298Z" fill="url(#paint27_linear_653_40458)"/>
<path d="M276.738 118.817L259.754 108.998V194.001L276.738 204.234V118.817Z" fill="url(#paint28_linear_653_40458)"/>
<path d="M276.738 118.817V203.819L293.722 194.001V108.998L276.738 118.817Z" fill="#2A94E5"/>
<path d="M239.042 106.545L259.754 118.518L276.738 128.337L293.722 118.518L314.435 106.541L293.722 94.5685V104.085L297.972 106.541L293.722 108.998L276.738 118.817L259.754 108.998L255.505 106.541L259.754 104.085V94.5685L239.042 106.545ZM284.421 98.7072L292.651 93.9471L276.738 84.75L260.825 93.9512L269.055 98.7072L276.738 94.2661L284.421 98.7072Z" fill="url(#paint29_linear_653_40458)"/>
<path d="M276.738 103.148V118.817L293.722 108.998V93.3298L292.651 93.9471L284.421 98.7072L276.738 103.148Z" fill="#2A94E5"/>
<path d="M314.22 106.537L313.392 191.304L313.806 191.308L314.633 106.541L314.22 106.537Z" fill="url(#paint30_linear_653_40458)"/>
<path d="M238.826 106.542L237.999 191.304L238.413 191.308L239.24 106.546L238.826 106.542Z" fill="url(#paint31_linear_653_40458)"/>
<path d="M276.738 103.144L293.723 93.3257L277.177 83.7599L259.754 93.3257L276.738 103.144Z" fill="white"/>
<path d="M275.886 98.587L284.984 93.3256L275.886 88.0684L266.787 93.3256L275.886 98.587Z" fill="url(#paint32_linear_653_40458)"/>
<path d="M525.387 191.349V149.78C524.427 135.616 518.829 122.11 509.429 109.764V151.334C518.829 163.679 524.427 177.181 525.387 191.349ZM504.625 145.496V103.927C501.311 100.186 497.641 96.5653 493.636 93.0854V134.655C497.641 138.139 501.315 141.755 504.625 145.496ZM486.834 129.111V87.5422C482.477 84.2114 477.798 81.0256 472.825 77.9971V119.566C477.798 122.595 482.473 125.781 486.834 129.111ZM463.42 126.497V60.3652C501.667 80.6817 525.536 109.735 525.536 141.88V208.012C525.536 175.868 501.663 146.814 463.42 126.497Z" fill="url(#paint33_linear_653_40458)"/>
<path d="M383.137 17.2135V97.3567C350.373 86.7676 312.693 80.5658 272.468 80.1639C242.344 79.8615 213.443 82.8402 186.807 88.5242V8.38097C213.443 2.69699 242.344 -0.281708 272.468 0.020719C312.693 0.422574 350.373 6.6244 383.137 17.2135Z" fill="url(#paint34_linear_653_40458)"/>
<path opacity="0.75" d="M509.429 109.765C518.829 122.11 524.427 135.612 525.387 149.78V191.349C524.427 177.185 518.829 163.679 509.429 151.334V109.765Z" fill="white"/>
<path d="M493.632 93.0853C497.637 96.5695 501.311 100.186 504.621 103.927V145.496C501.307 141.755 497.637 138.135 493.632 134.655V93.0853Z" fill="white"/>
<path opacity="0.75" d="M472.825 78.0012C477.798 81.0255 482.473 84.2155 486.834 87.5463V129.116C482.478 125.785 477.798 122.599 472.825 119.57V78.0012Z" fill="white"/>
<path d="M470.893 258.757V245.952C501.717 227.728 521.779 203.434 525.06 176.402V189.207C521.779 216.235 501.717 240.533 470.893 258.757ZM525.503 209.988V143.856C524.518 176.203 499.549 205.079 460.503 224.985V291.117C499.553 271.207 524.522 242.335 525.503 209.984V209.988Z" fill="url(#paint35_linear_653_40458)"/>
<path opacity="0.75" d="M525.06 176.402C521.779 203.43 501.716 227.728 470.892 245.952V258.757C501.716 240.533 521.779 216.24 525.06 189.207V176.402Z" fill="white"/>
<path d="M29.8935 129.335V117.922C26.5049 122.802 23.8032 127.885 21.8461 133.13V166.94C23.799 161.695 26.5049 156.612 29.8935 151.731V140.318C30.8741 138.905 31.9126 137.505 33.009 136.125V142.282C35.0819 139.667 37.3575 137.115 39.8193 134.634V128.478C50.5022 117.715 64.7268 108.273 81.5662 100.671V89.6924C78.5707 91.0471 75.6538 92.4557 72.8279 93.9222C71.4129 94.6555 70.0227 95.4054 68.6532 96.1635C57.8379 102.175 48.4417 109.027 40.7791 116.538C40.4564 116.857 40.1337 117.176 39.8151 117.495V111.339C37.3533 113.82 35.0777 116.372 33.0049 118.986V125.143C31.9126 126.522 30.8741 127.918 29.8894 129.335H29.8935ZM19.6409 128.979C26.0788 101.313 53.1501 77.4835 91.5458 62.6521V119.347C53.1501 134.178 26.0788 158.004 19.6409 185.674V128.979Z" fill="url(#paint36_linear_653_40458)"/>
<path opacity="0.75" d="M39.8149 117.495C40.1335 117.176 40.4521 116.857 40.779 116.538V127.516C46.5011 121.903 53.1913 116.662 60.7174 111.861C63.266 110.237 65.914 108.658 68.6489 107.138V96.1593C70.0184 95.3971 71.4086 94.6513 72.8236 93.9181V104.897C75.6495 103.43 78.5622 102.017 81.5619 100.667V89.6882V100.667C64.7224 108.269 50.4937 117.71 39.8149 128.473V117.495ZM29.8892 129.335C30.8697 127.922 31.9082 126.522 33.0047 125.143V136.121C31.9124 137.501 30.8739 138.897 29.8892 140.314V129.335Z" fill="white"/>
<path opacity="0.88" d="M72.828 93.9181C75.6539 92.4515 78.5667 91.0388 81.5663 89.6882V100.667C78.5708 102.021 75.6539 103.43 72.828 104.897V93.9181Z" fill="white"/>
<path opacity="0.88" d="M40.7788 116.538C46.5009 110.924 53.1912 105.684 60.7172 100.882V111.861C53.1912 116.658 46.4968 121.903 40.7788 127.517V116.538Z" fill="white"/>
<path d="M60.7216 100.882C63.2702 99.2583 65.9182 97.6798 68.6531 96.1594V107.138C65.9182 108.658 63.2702 110.233 60.7216 111.861V100.882Z" fill="url(#paint37_linear_653_40458)"/>
<path opacity="0.75" d="M21.8459 133.13C23.7988 127.885 26.5047 122.802 29.8933 117.922V129.335C26.5047 134.215 23.803 139.299 21.8459 144.543V155.522C23.7988 150.277 26.5047 145.194 29.8933 140.314V151.727C26.5047 156.607 23.803 161.691 21.8459 166.936V133.126V133.13Z" fill="white"/>
<path opacity="0.88" d="M21.8459 144.544C23.7988 139.299 26.5047 134.215 29.8933 129.335V140.314C26.5047 145.194 23.803 150.277 21.8459 155.522V144.544Z" fill="white"/>
<path opacity="0.75" d="M33.0044 136.121C35.0773 133.507 37.3529 130.955 39.8147 128.473V134.63C37.3529 137.111 35.0773 139.663 33.0044 142.277V136.121ZM33.0044 118.986C35.0773 116.372 37.3529 113.82 39.8147 111.339V117.495C37.3529 119.976 35.0773 122.528 33.0044 125.143V118.986Z" fill="white"/>
<path opacity="0.88" d="M33.0044 125.143C35.0773 122.529 37.3529 119.977 39.8147 117.495V128.474C37.3529 130.955 35.0773 133.507 33.0044 136.121V125.143Z" fill="white"/>
<path d="M70.8042 259.586V250.008C72.7198 251.035 74.681 252.038 76.6794 253.015V262.594C74.681 261.616 72.7198 260.613 70.8042 259.586ZM51.9622 247.617V229.965C53.5551 231.166 55.1935 232.347 56.8816 233.503V251.155C55.1935 249.999 53.551 248.819 51.9622 247.617ZM60.9446 253.832V233.01C62.7072 234.128 64.5111 235.222 66.3647 236.291V257.113C64.5152 256.044 62.7072 254.95 60.9446 253.832ZM36.8522 233.95V210.85C38.0727 212.196 39.3512 213.522 40.6793 214.831V237.931C39.3512 236.622 38.0727 235.296 36.8522 233.95ZM43.9148 240.98V215.954C45.3298 217.23 46.7945 218.489 48.3088 219.724V244.75C46.7945 243.516 45.3298 242.256 43.9148 240.98ZM25.9086 218.841V191.706C26.7195 193.176 27.5925 194.63 28.5276 196.068V223.204C27.5967 221.766 26.7237 220.312 25.9086 218.841ZM30.828 226.555V191.258C31.85 192.671 32.934 194.063 34.0677 195.442V230.739C32.9299 229.364 31.85 227.968 30.828 226.555ZM22.1476 210.833V170.967C22.7393 172.487 23.393 173.995 24.1088 175.486V215.353C23.393 213.861 22.7393 212.353 22.1476 210.833ZM88.7731 219.678C50.8906 204.395 24.717 180.255 19.239 152.601V209.296C24.7211 236.954 50.8947 261.094 88.7731 276.373V219.678Z" fill="url(#paint38_linear_653_40458)"/>
<path d="M24.109 175.482C23.3932 173.991 22.7395 172.483 22.1478 170.962V210.829C22.7395 212.349 23.3932 213.857 24.109 215.349V175.482Z" fill="white"/>
<path d="M28.5279 196.064C27.597 194.626 26.724 193.172 25.9089 191.701V218.837C26.7199 220.308 27.5929 221.762 28.5279 223.199V196.064Z" fill="white"/>
<path opacity="0.75" d="M34.068 195.434C32.9302 194.059 31.8503 192.663 30.8284 191.25V226.547C31.8503 227.96 32.9343 229.352 34.068 230.731V195.434Z" fill="white"/>
<path d="M40.6796 214.827C39.3514 213.518 38.073 212.192 36.8524 210.845V233.946C38.073 235.292 39.3514 236.618 40.6796 237.927V214.827Z" fill="white"/>
<path opacity="0.75" d="M48.3091 219.719C46.7948 218.485 45.3302 217.225 43.9152 215.949V240.976C45.3302 242.252 46.7948 243.512 48.3091 244.746V219.719Z" fill="white"/>
<path opacity="0.75" d="M56.8858 233.499C55.1977 232.343 53.5551 231.162 51.9663 229.961V247.613C53.5592 248.815 55.1977 249.995 56.8858 251.151V233.499Z" fill="white"/>
<path opacity="0.75" d="M66.3649 236.287C64.5154 235.218 62.7074 234.124 60.9448 233.005V253.827C62.7074 254.946 64.5113 256.04 66.3649 257.109V236.287Z" fill="white"/>
<path opacity="0.75" d="M76.6837 253.011C74.6853 252.034 72.7241 251.031 70.8085 250.004V259.582C72.7241 260.609 74.6853 261.612 76.6837 262.59V253.011Z" fill="white"/>
<path d="M231.846 58.9029L231.805 54.6731L231.788 50.4432L231.755 41.9794L231.788 33.5197L231.805 29.2899L231.846 25.0601L231.892 29.2899L231.908 33.5197L231.942 41.9794L231.908 50.4432L231.892 54.6731L231.846 58.9029Z" fill="white"/>
<path d="M241.789 58.9029L241.748 54.6731L241.731 50.4432L241.698 41.9794L241.731 33.5197L241.748 29.2899L241.789 25.0601L241.835 29.2899L241.851 33.5197L241.884 41.9794L241.851 50.4432L241.835 54.6731L241.789 58.9029Z" fill="white"/>
<path d="M251.735 58.9029L251.69 54.6731L251.673 50.4432L251.64 41.9794L251.673 33.5197L251.69 29.2899L251.735 25.0601L251.777 29.2899L251.793 33.5197L251.826 41.9794L251.793 50.4432L251.777 54.6731L251.735 58.9029Z" fill="white"/>
<path d="M261.678 58.9029L261.632 54.6731L261.616 50.4432L261.583 41.9794L261.616 33.5197L261.632 29.2899L261.678 25.0601L261.723 29.2899L261.736 33.5197L261.769 41.9794L261.736 50.4432L261.719 54.6731L261.678 58.9029Z" fill="white"/>
<path d="M271.62 58.9029L271.574 54.6731L271.558 50.4432L271.525 41.9794L271.558 33.5197L271.574 29.2899L271.62 25.0601L271.665 29.2899L271.678 33.5197L271.711 41.9794L271.678 50.4432L271.661 54.6731L271.62 58.9029Z" fill="white"/>
<path d="M281.563 58.9029L281.517 54.6731L281.501 50.4432L281.467 41.9794L281.501 33.5197L281.517 29.2899L281.563 25.0601L281.608 29.2899L281.625 33.5197L281.654 41.9794L281.62 50.4432L281.608 54.6731L281.563 58.9029Z" fill="white"/>
<path d="M291.505 58.9029L291.459 54.6731L291.443 50.4432L291.414 41.9794L291.443 33.5197L291.459 29.2899L291.505 25.0601L291.55 29.2899L291.567 33.5197L291.596 41.9794L291.567 50.4432L291.55 54.6731L291.505 58.9029Z" fill="white"/>
<path d="M301.447 58.9029L301.401 54.6731L301.385 50.4432L301.356 41.9794L301.385 33.5197L301.401 29.2899L301.447 25.0601L301.492 29.2899L301.509 33.5197L301.538 41.9794L301.509 50.4432L301.492 54.6731L301.447 58.9029Z" fill="white"/>
<path d="M311.389 58.9029L311.343 54.6731L311.327 50.4432L311.298 41.9794L311.327 33.5197L311.343 29.2899L311.389 25.0601L311.434 29.2899L311.451 33.5197L311.48 41.9794L311.451 50.4432L311.434 54.6731L311.389 58.9029Z" fill="white"/>
<path d="M321.332 58.9029L321.286 54.6731L321.269 50.4432L321.24 41.9794L321.269 33.5197L321.286 29.2899L321.332 25.0601L321.377 29.2899L321.394 33.5197L321.423 41.9794L321.394 50.4432L321.377 54.6731L321.332 58.9029Z" fill="white"/>
<path d="M331.274 58.9029L331.228 54.6731L331.212 50.4432L331.183 41.9794L331.212 33.5197L331.228 29.2899L331.274 25.0601L331.319 29.2899L331.336 33.5197L331.365 41.9794L331.336 50.4432L331.319 54.6731L331.274 58.9029Z" fill="white"/>
<path d="M341.216 58.9029L341.171 54.6731L341.154 50.4432L341.125 41.9794L341.154 33.5197L341.171 29.2899L341.216 25.0601L341.262 29.2899L341.278 33.5197L341.307 41.9794L341.278 50.4432L341.262 54.6731L341.216 58.9029Z" fill="white"/>
<path d="M221.905 25.0602L252.923 24.9855L283.937 24.9482L314.956 24.9855L345.97 25.0602L314.956 25.1306L283.937 25.1679L252.923 25.1306L221.905 25.0602Z" fill="white"/>
<path d="M221.904 33.2588L252.923 33.1842L283.937 33.151L314.956 33.1842L345.97 33.2588L314.956 33.3292L283.937 33.3665L252.923 33.3292L221.904 33.2588Z" fill="white"/>
<path d="M221.904 41.4575L252.923 41.387L283.937 41.3497L314.956 41.387L345.97 41.4575L314.956 41.5321L283.937 41.5653L252.923 41.528L221.904 41.4575Z" fill="white"/>
<path d="M221.904 49.6561L252.923 49.5856L283.937 49.5483L314.956 49.5856L345.97 49.6561L314.956 49.7307L283.937 49.7639L252.923 49.7307L221.904 49.6561Z" fill="white"/>
<path d="M228.334 39.5765L237.689 36.229H237.697H237.706L247.081 35.7278H247.102L247.122 35.7361L256.506 39.4687L256.481 39.4605L265.861 41.13H265.824L275.199 40.2973L275.137 40.3139C278.261 38.636 281.376 36.9499 284.508 35.2928L284.542 35.2762H284.575L293.954 34.5595H293.975H293.996L303.367 36.5066H303.297L312.68 32.9355L312.705 32.9272H312.73L322.106 33.9298H322.077L331.469 31.6346L334.965 31.6554L331.469 31.6761H331.473L322.11 34.0872H322.097H322.081L312.701 33.1385L312.751 33.1302L303.384 36.7469L303.35 36.7593L303.313 36.751L293.934 34.8412H293.975L284.6 35.5952L284.666 35.5745C281.546 37.2606 278.414 38.9178 275.286 40.5832L275.257 40.5997H275.224L265.844 41.391H265.824H265.807L256.436 39.6842H256.423L256.411 39.6759L247.044 35.9059L247.085 35.9142L237.706 36.3409H237.722L228.326 39.5682L228.334 39.5765Z" fill="white"/>
<path d="M238.495 36.2875C238.495 36.7186 238.144 37.0709 237.713 37.0709C237.283 37.0709 236.932 36.7186 236.932 36.2875C236.932 35.8565 237.283 35.5042 237.713 35.5042C238.144 35.5042 238.495 35.8565 238.495 36.2875Z" fill="white"/>
<path d="M237.714 37.2449C237.188 37.2449 236.758 36.8138 236.758 36.2874C236.758 35.761 237.188 35.33 237.714 35.33C238.239 35.33 238.669 35.761 238.669 36.2874C238.669 36.8138 238.239 37.2449 237.714 37.2449ZM237.714 35.6781C237.378 35.6781 237.105 35.9517 237.105 36.2874C237.105 36.6232 237.378 36.8967 237.714 36.8967C238.049 36.8967 238.322 36.6232 238.322 36.2874C238.322 35.9517 238.049 35.6781 237.714 35.6781Z" fill="white"/>
<path d="M247.871 35.8443C247.871 36.2754 247.52 36.6277 247.089 36.6277C246.659 36.6277 246.307 36.2754 246.307 35.8443C246.307 35.4132 246.659 35.0609 247.089 35.0609C247.52 35.0609 247.871 35.4132 247.871 35.8443Z" fill="white"/>
<path d="M247.089 36.8018C246.564 36.8018 246.134 36.3707 246.134 35.8443C246.134 35.3179 246.564 34.8868 247.089 34.8868C247.615 34.8868 248.045 35.3179 248.045 35.8443C248.045 36.3707 247.615 36.8018 247.089 36.8018ZM247.089 35.235C246.754 35.235 246.481 35.5086 246.481 35.8443C246.481 36.1801 246.754 36.4536 247.089 36.4536C247.425 36.4536 247.698 36.1801 247.698 35.8443C247.698 35.5086 247.425 35.235 247.089 35.235Z" fill="white"/>
<path d="M266.622 41.2631C266.622 41.6942 266.27 42.0465 265.84 42.0465C265.41 42.0465 265.058 41.6942 265.058 41.2631C265.058 40.8321 265.41 40.4797 265.84 40.4797C266.27 40.4797 266.622 40.8321 266.622 41.2631Z" fill="white"/>
<path d="M265.84 42.2206C265.315 42.2206 264.884 41.7896 264.884 41.2631C264.884 40.7367 265.315 40.3057 265.84 40.3057C266.365 40.3057 266.796 40.7367 266.796 41.2631C266.796 41.7896 266.365 42.2206 265.84 42.2206ZM265.84 40.6538C265.505 40.6538 265.232 40.9274 265.232 41.2631C265.232 41.5989 265.505 41.8725 265.84 41.8725C266.175 41.8725 266.448 41.5989 266.448 41.2631C266.448 40.9274 266.175 40.6538 265.84 40.6538Z" fill="white"/>
<path d="M284.537 36.2879C284.969 36.2879 285.319 35.9371 285.319 35.5045C285.319 35.0718 284.969 34.7211 284.537 34.7211C284.106 34.7211 283.755 35.0718 283.755 35.5045C283.755 35.9371 284.106 36.2879 284.537 36.2879Z" fill="white"/>
<path d="M284.538 36.462C284.012 36.462 283.582 36.0309 283.582 35.5045C283.582 34.9781 284.012 34.547 284.538 34.547C285.063 34.547 285.494 34.9781 285.494 35.5045C285.494 36.0309 285.063 36.462 284.538 36.462ZM284.538 34.8952C284.203 34.8952 283.93 35.1687 283.93 35.5045C283.93 35.8402 284.203 36.1138 284.538 36.1138C284.873 36.1138 285.146 35.8402 285.146 35.5045C285.146 35.1687 284.873 34.8952 284.538 34.8952Z" fill="white"/>
<path d="M304.129 36.7102C304.129 37.1412 303.777 37.4935 303.347 37.4935C302.916 37.4935 302.565 37.1412 302.565 36.7102C302.565 36.2791 302.916 35.9268 303.347 35.9268C303.777 35.9268 304.129 36.2791 304.129 36.7102Z" fill="white"/>
<path d="M303.346 37.6676C302.821 37.6676 302.391 37.2366 302.391 36.7102C302.391 36.1838 302.821 35.7527 303.346 35.7527C303.872 35.7527 304.302 36.1838 304.302 36.7102C304.302 37.2366 303.872 37.6676 303.346 37.6676ZM303.346 36.1009C303.011 36.1009 302.738 36.3744 302.738 36.7102C302.738 37.0459 303.011 37.3195 303.346 37.3195C303.682 37.3195 303.955 37.0459 303.955 36.7102C303.955 36.3744 303.682 36.1009 303.346 36.1009Z" fill="white"/>
<path d="M275.998 40.48C275.998 40.9111 275.646 41.2634 275.216 41.2634C274.786 41.2634 274.434 40.9111 274.434 40.48C274.434 40.049 274.786 39.6967 275.216 39.6967C275.646 39.6967 275.998 40.049 275.998 40.48Z" fill="white"/>
<path d="M275.22 41.4377C274.695 41.4377 274.264 41.0066 274.264 40.4802C274.264 39.9538 274.695 39.5227 275.22 39.5227C275.745 39.5227 276.176 39.9538 276.176 40.4802C276.176 41.0066 275.745 41.4377 275.22 41.4377ZM275.22 39.8709C274.885 39.8709 274.612 40.1444 274.612 40.4802C274.612 40.8159 274.885 41.0895 275.22 41.0895C275.555 41.0895 275.828 40.8159 275.828 40.4802C275.828 40.1444 275.555 39.8709 275.22 39.8709Z" fill="white"/>
<path d="M294.753 34.7215C294.753 35.1526 294.402 35.5049 293.971 35.5049C293.541 35.5049 293.189 35.1526 293.189 34.7215C293.189 34.2904 293.541 33.9381 293.971 33.9381C294.402 33.9381 294.753 34.2904 294.753 34.7215Z" fill="white"/>
<path d="M293.971 35.679C293.446 35.679 293.015 35.2479 293.015 34.7215C293.015 34.1951 293.446 33.764 293.971 33.764C294.497 33.764 294.927 34.1951 294.927 34.7215C294.927 35.2479 294.497 35.679 293.971 35.679ZM293.971 34.1122C293.636 34.1122 293.363 34.3858 293.363 34.7215C293.363 35.0573 293.636 35.3308 293.971 35.3308C294.306 35.3308 294.579 35.0573 294.579 34.7215C294.579 34.3858 294.306 34.1122 293.971 34.1122Z" fill="white"/>
<path d="M322.883 33.9385C322.883 34.3696 322.532 34.7219 322.101 34.7219C321.671 34.7219 321.319 34.3696 321.319 33.9385C321.319 33.5075 321.671 33.1552 322.101 33.1552C322.532 33.1552 322.883 33.5075 322.883 33.9385Z" fill="white"/>
<path d="M322.101 34.896C321.576 34.896 321.146 34.465 321.146 33.9386C321.146 33.4122 321.576 32.9811 322.101 32.9811C322.627 32.9811 323.057 33.4122 323.057 33.9386C323.057 34.465 322.627 34.896 322.101 34.896ZM322.101 33.3293C321.766 33.3293 321.493 33.6028 321.493 33.9386C321.493 34.2743 321.766 34.5479 322.101 34.5479C322.437 34.5479 322.71 34.2743 322.71 33.9386C322.71 33.6028 322.437 33.3293 322.101 33.3293Z" fill="white"/>
<path d="M332.259 31.656C332.259 32.087 331.907 32.4393 331.477 32.4393C331.047 32.4393 330.695 32.087 330.695 31.656C330.695 31.2249 331.047 30.8726 331.477 30.8726C331.907 30.8726 332.259 31.2249 332.259 31.656Z" fill="white"/>
<path d="M331.477 32.6133C330.952 32.6133 330.521 32.1823 330.521 31.6558C330.521 31.1294 330.952 30.6984 331.477 30.6984C332.003 30.6984 332.433 31.1294 332.433 31.6558C332.433 32.1823 332.003 32.6133 331.477 32.6133ZM331.477 31.0465C331.142 31.0465 330.869 31.3201 330.869 31.6558C330.869 31.9916 331.142 32.2652 331.477 32.2652C331.812 32.2652 332.085 31.9916 332.085 31.6558C332.085 31.3201 331.812 31.0465 331.477 31.0465Z" fill="white"/>
<path d="M313.504 32.9938C313.504 33.4249 313.152 33.7772 312.722 33.7772C312.291 33.7772 311.94 33.4249 311.94 32.9938C311.94 32.5628 312.291 32.2104 312.722 32.2104C313.152 32.2104 313.504 32.5628 313.504 32.9938Z" fill="white"/>
<path d="M312.722 33.9472C312.197 33.9472 311.766 33.5161 311.766 32.9897C311.766 32.4633 312.197 32.0322 312.722 32.0322C313.248 32.0322 313.678 32.4633 313.678 32.9897C313.678 33.5161 313.248 33.9472 312.722 33.9472ZM312.722 32.3804C312.387 32.3804 312.114 32.654 312.114 32.9897C312.114 33.3254 312.387 33.599 312.722 33.599C313.057 33.599 313.33 33.3254 313.33 32.9897C313.33 32.654 313.057 32.3804 312.722 32.3804Z" fill="white"/>
<path d="M257.247 39.5769C257.247 40.0079 256.895 40.3602 256.465 40.3602C256.035 40.3602 255.683 40.0079 255.683 39.5769C255.683 39.1458 256.035 38.7935 256.465 38.7935C256.895 38.7935 257.247 39.1458 257.247 39.5769Z" fill="white"/>
<path d="M256.465 40.5343C255.939 40.5343 255.509 40.1033 255.509 39.5769C255.509 39.0505 255.939 38.6194 256.465 38.6194C256.99 38.6194 257.421 39.0505 257.421 39.5769C257.421 40.1033 256.99 40.5343 256.465 40.5343ZM256.465 38.9676C256.13 38.9676 255.857 39.2411 255.857 39.5769C255.857 39.9126 256.13 40.1862 256.465 40.1862C256.8 40.1862 257.073 39.9126 257.073 39.5769C257.073 39.2411 256.8 38.9676 256.465 38.9676Z" fill="white"/>
<path d="M221.904 51.5658L231.271 50.3478L231.247 50.3561L240.601 43.8891L240.61 43.8809H240.622L249.989 40.3553L250.031 40.3387L250.072 40.3512L259.456 43.4956H259.472L259.485 43.508L268.873 49.337L268.732 49.3245C271.856 48.0817 274.975 46.8306 278.108 45.6043L278.178 45.5753L278.244 45.6084L287.611 50.265L287.433 50.3023L296.825 39.2574L296.883 39.1912L296.966 39.2243L306.333 42.7581H306.284L315.663 41.6106H315.672H315.68L325.055 42.0953H325.047L328.547 40.9104L325.059 42.1367H325.055L315.676 41.7722H315.688L306.317 42.9611H306.292L306.267 42.957L296.883 39.4646L297.024 39.4273L287.665 50.5011L287.591 50.5881L287.487 50.5384L278.103 45.9191H278.24C275.12 47.1744 271.988 48.3965 268.86 49.6311L268.786 49.6601L268.72 49.6187L259.352 43.7566L259.381 43.769L250.01 40.5832H250.089L240.705 44.0631L240.726 44.0507L231.329 50.4555L231.317 50.4638H231.305L221.921 51.5617L221.904 51.5658Z" fill="white"/>
<path d="M232.066 50.4106C232.066 50.8417 231.714 51.194 231.284 51.194C230.854 51.194 230.502 50.8417 230.502 50.4106C230.502 49.9795 230.854 49.6272 231.284 49.6272C231.714 49.6272 232.066 49.9795 232.066 50.4106Z" fill="white"/>
<path d="M231.284 51.3681C230.759 51.3681 230.328 50.937 230.328 50.4106C230.328 49.8842 230.759 49.4531 231.284 49.4531C231.81 49.4531 232.24 49.8842 232.24 50.4106C232.24 50.937 231.81 51.3681 231.284 51.3681ZM231.284 49.8013C230.949 49.8013 230.676 50.0749 230.676 50.4106C230.676 50.7463 230.949 51.0199 231.284 51.0199C231.619 51.0199 231.892 50.7463 231.892 50.4106C231.892 50.0749 231.619 49.8013 231.284 49.8013Z" fill="white"/>
<path d="M241.441 43.9768C241.441 44.4078 241.089 44.7601 240.659 44.7601C240.229 44.7601 239.877 44.4078 239.877 43.9768C239.877 43.5457 240.229 43.1934 240.659 43.1934C241.089 43.1934 241.441 43.5457 241.441 43.9768Z" fill="white"/>
<path d="M240.659 44.9343C240.134 44.9343 239.704 44.5032 239.704 43.9768C239.704 43.4504 240.134 43.0193 240.659 43.0193C241.185 43.0193 241.615 43.4504 241.615 43.9768C241.615 44.5032 241.185 44.9343 240.659 44.9343ZM240.659 43.3675C240.324 43.3675 240.051 43.641 240.051 43.9768C240.051 44.3125 240.324 44.5861 240.659 44.5861C240.994 44.5861 241.268 44.3125 241.268 43.9768C241.268 43.641 240.994 43.3675 240.659 43.3675Z" fill="white"/>
<path d="M260.192 43.695C260.192 44.1261 259.841 44.4784 259.41 44.4784C258.98 44.4784 258.628 44.1261 258.628 43.695C258.628 43.2639 258.98 42.9116 259.41 42.9116C259.841 42.9116 260.192 43.2639 260.192 43.695Z" fill="white"/>
<path d="M259.41 44.6525C258.885 44.6525 258.455 44.2214 258.455 43.695C258.455 43.1686 258.885 42.7375 259.41 42.7375C259.936 42.7375 260.366 43.1686 260.366 43.695C260.366 44.2214 259.936 44.6525 259.41 44.6525ZM259.41 43.0857C259.075 43.0857 258.802 43.3593 258.802 43.695C258.802 44.0308 259.075 44.3043 259.41 44.3043C259.746 44.3043 260.019 44.0308 260.019 43.695C260.019 43.3593 259.746 43.0857 259.41 43.0857Z" fill="white"/>
<path d="M278.885 45.895C278.885 46.326 278.534 46.6784 278.103 46.6784C277.673 46.6784 277.321 46.326 277.321 45.895C277.321 45.4639 277.673 45.1116 278.103 45.1116C278.534 45.1116 278.885 45.4639 278.885 45.895Z" fill="white"/>
<path d="M278.107 46.8525C277.582 46.8525 277.152 46.4214 277.152 45.895C277.152 45.3686 277.582 44.9375 278.107 44.9375C278.633 44.9375 279.063 45.3686 279.063 45.895C279.063 46.4214 278.633 46.8525 278.107 46.8525ZM278.107 45.2857C277.772 45.2857 277.499 45.5592 277.499 45.895C277.499 46.2307 277.772 46.5043 278.107 46.5043C278.442 46.5043 278.716 46.2307 278.716 45.895C278.716 45.5592 278.442 45.2857 278.107 45.2857Z" fill="white"/>
<path d="M297.698 39.3533C297.698 39.7844 297.347 40.1367 296.917 40.1367C296.486 40.1367 296.135 39.7844 296.135 39.3533C296.135 38.9223 296.486 38.5699 296.917 38.5699C297.347 38.5699 297.698 38.9223 297.698 39.3533Z" fill="white"/>
<path d="M296.916 40.3108C296.391 40.3108 295.961 39.8798 295.961 39.3534C295.961 38.8269 296.391 38.3959 296.916 38.3959C297.442 38.3959 297.872 38.8269 297.872 39.3534C297.872 39.8798 297.442 40.3108 296.916 40.3108ZM296.916 38.744C296.581 38.744 296.308 39.0176 296.308 39.3534C296.308 39.6891 296.581 39.9627 296.916 39.9627C297.252 39.9627 297.525 39.6891 297.525 39.3534C297.525 39.0176 297.252 38.744 296.916 38.744Z" fill="white"/>
<path d="M269.568 49.3706C269.568 49.8016 269.216 50.1539 268.786 50.1539C268.356 50.1539 268.004 49.8016 268.004 49.3706C268.004 48.9395 268.356 48.5872 268.786 48.5872C269.216 48.5872 269.568 48.9395 269.568 49.3706Z" fill="white"/>
<path d="M268.786 50.324C268.26 50.324 267.83 49.8929 267.83 49.3665C267.83 48.8401 268.26 48.4091 268.786 48.4091C269.311 48.4091 269.742 48.8401 269.742 49.3665C269.742 49.8929 269.311 50.324 268.786 50.324ZM268.786 48.7572C268.451 48.7572 268.178 49.0308 268.178 49.3665C268.178 49.7023 268.451 49.9758 268.786 49.9758C269.121 49.9758 269.394 49.7023 269.394 49.3665C269.394 49.0308 269.121 48.7572 268.786 48.7572Z" fill="white"/>
<path d="M288.323 50.2697C288.323 50.7008 287.971 51.0531 287.541 51.0531C287.111 51.0531 286.759 50.7008 286.759 50.2697C286.759 49.8386 287.111 49.4863 287.541 49.4863C287.971 49.4863 288.323 49.8386 288.323 50.2697Z" fill="white"/>
<path d="M287.541 51.2271C287.015 51.2271 286.585 50.796 286.585 50.2696C286.585 49.7432 287.015 49.3121 287.541 49.3121C288.066 49.3121 288.496 49.7432 288.496 50.2696C288.496 50.796 288.066 51.2271 287.541 51.2271ZM287.541 49.6603C287.206 49.6603 286.933 49.9339 286.933 50.2696C286.933 50.6054 287.206 50.8789 287.541 50.8789C287.876 50.8789 288.149 50.6054 288.149 50.2696C288.149 49.9339 287.876 49.6603 287.541 49.6603Z" fill="white"/>
<path d="M316.449 41.7065C316.449 42.1376 316.097 42.4899 315.667 42.4899C315.237 42.4899 314.885 42.1376 314.885 41.7065C314.885 41.2754 315.237 40.9231 315.667 40.9231C316.097 40.9231 316.449 41.2754 316.449 41.7065Z" fill="white"/>
<path d="M315.671 42.664C315.146 42.664 314.716 42.2329 314.716 41.7065C314.716 41.1801 315.146 40.749 315.671 40.749C316.197 40.749 316.627 41.1801 316.627 41.7065C316.627 42.2329 316.197 42.664 315.671 42.664ZM315.671 41.0972C315.336 41.0972 315.063 41.3708 315.063 41.7065C315.063 42.0422 315.336 42.3158 315.671 42.3158C316.006 42.3158 316.28 42.0422 316.28 41.7065C316.28 41.3708 316.006 41.0972 315.671 41.0972Z" fill="white"/>
<path d="M325.829 42.1249C325.829 42.556 325.477 42.9083 325.047 42.9083C324.616 42.9083 324.265 42.556 324.265 42.1249C324.265 41.6939 324.616 41.3416 325.047 41.3416C325.477 41.3416 325.829 41.6939 325.829 42.1249Z" fill="white"/>
<path d="M325.047 43.0824C324.521 43.0824 324.091 42.6514 324.091 42.125C324.091 41.5986 324.521 41.1675 325.047 41.1675C325.572 41.1675 326.002 41.5986 326.002 42.125C326.002 42.6514 325.572 43.0824 325.047 43.0824ZM325.047 41.5157C324.712 41.5157 324.439 41.7892 324.439 42.125C324.439 42.4607 324.712 42.7343 325.047 42.7343C325.382 42.7343 325.655 42.4607 325.655 42.125C325.655 41.7892 325.382 41.5157 325.047 41.5157Z" fill="white"/>
<path d="M307.074 42.9079C307.074 43.339 306.722 43.6913 306.292 43.6913C305.861 43.6913 305.51 43.339 305.51 42.9079C305.51 42.4768 305.861 42.1245 306.292 42.1245C306.722 42.1245 307.074 42.4768 307.074 42.9079Z" fill="white"/>
<path d="M306.292 43.8654C305.766 43.8654 305.336 43.4343 305.336 42.9079C305.336 42.3815 305.766 41.9504 306.292 41.9504C306.817 41.9504 307.248 42.3815 307.248 42.9079C307.248 43.4343 306.817 43.8654 306.292 43.8654ZM306.292 42.2986C305.957 42.2986 305.684 42.5722 305.684 42.9079C305.684 43.2437 305.957 43.5172 306.292 43.5172C306.627 43.5172 306.9 43.2437 306.9 42.9079C306.9 42.5722 306.627 42.2986 306.292 42.2986Z" fill="white"/>
<path d="M250.817 40.4719C250.817 40.9029 250.465 41.2553 250.035 41.2553C249.605 41.2553 249.253 40.9029 249.253 40.4719C249.253 40.0408 249.605 39.6885 250.035 39.6885C250.465 39.6885 250.817 40.0408 250.817 40.4719Z" fill="white"/>
<path d="M250.035 41.4294C249.509 41.4294 249.079 40.9983 249.079 40.4719C249.079 39.9455 249.509 39.5144 250.035 39.5144C250.56 39.5144 250.99 39.9455 250.99 40.4719C250.99 40.9983 250.56 41.4294 250.035 41.4294ZM250.035 39.8626C249.7 39.8626 249.427 40.1361 249.427 40.4719C249.427 40.8076 249.7 41.0812 250.035 41.0812C250.37 41.0812 250.643 40.8076 250.643 40.4719C250.643 40.1361 250.37 39.8626 250.035 39.8626Z" fill="white"/>
<path d="M211.176 27.7528L211.254 43.8809L211.3 60.0089L211.18 59.8888L246.245 59.8308L263.775 59.8018L281.306 59.8266L316.371 59.8846C328.059 59.8846 339.747 59.9551 351.436 60.0089C339.747 60.0628 328.059 60.1291 316.371 60.1332L281.306 60.1912L263.775 60.2161L246.245 60.1871L211.18 60.1291H211.056V60.0048L211.101 43.8767L211.18 27.7487L211.176 27.7528Z" fill="white"/>
<path d="M210.137 29.4184C210.481 29.2526 210.828 29.2153 211.172 29.2112C211.515 29.2153 211.863 29.2526 212.206 29.4184C211.863 29.5842 211.515 29.6215 211.172 29.6257C210.828 29.6174 210.481 29.5801 210.137 29.4184Z" fill="white"/>
<path d="M210.137 37.2607C210.481 37.0949 210.828 37.0576 211.172 37.0535C211.515 37.0576 211.863 37.0949 212.206 37.2607C211.863 37.4265 211.515 37.4638 211.172 37.468C210.828 37.4597 210.481 37.4224 210.137 37.2607Z" fill="white"/>
<path d="M210.137 45.099C210.481 44.9332 210.828 44.8959 211.172 44.8917C211.515 44.8959 211.863 44.9332 212.206 45.099C211.863 45.2648 211.515 45.3021 211.172 45.3062C210.828 45.2979 210.481 45.2606 210.137 45.099Z" fill="white"/>
<path d="M210.137 52.9372C210.481 52.7714 210.828 52.7341 211.172 52.73C211.515 52.7341 211.863 52.7714 212.206 52.9372C211.863 53.103 211.515 53.1403 211.172 53.1445C210.828 53.1362 210.481 53.0989 210.137 52.9372Z" fill="white"/>
</g>
<defs>
<linearGradient id="paint0_linear_653_40458" x1="0" y1="273.15" x2="554.535" y2="273.15" gradientUnits="userSpaceOnUse">
<stop stop-color="#ECF8FF"/>
<stop offset="1" stop-color="#A6C0E4"/>
</linearGradient>
<linearGradient id="paint1_linear_653_40458" x1="392.86" y1="332.239" x2="551.271" y2="332.239" gradientUnits="userSpaceOnUse">
<stop stop-color="#7694C1"/>
<stop offset="1" stop-color="#7694C1" stop-opacity="0"/>
</linearGradient>
<linearGradient id="paint2_linear_653_40458" x1="276.75" y1="246.196" x2="554.535" y2="246.196" gradientUnits="userSpaceOnUse">
<stop stop-color="#6A87AA" stop-opacity="0.79"/>
<stop offset="0.08" stop-color="#7694C1"/>
<stop offset="1" stop-color="#7694C1" stop-opacity="0"/>
</linearGradient>
<linearGradient id="paint3_linear_653_40458" x1="401.917" y1="183.635" x2="522.118" y2="183.635" gradientUnits="userSpaceOnUse">
<stop stop-color="#7694C1"/>
<stop offset="1" stop-color="#7694C1" stop-opacity="0"/>
</linearGradient>
<linearGradient id="paint4_linear_653_40458" x1="139.759" y1="171.737" x2="266.535" y2="171.737" gradientUnits="userSpaceOnUse">
<stop stop-color="#ECF8FF"/>
<stop offset="1" stop-color="#A6C0E4"/>
</linearGradient>
<linearGradient id="paint5_linear_653_40458" x1="211.764" y1="176.145" x2="123.268" y2="176.145" gradientUnits="userSpaceOnUse">
<stop stop-color="#7694C1"/>
<stop offset="0.14" stop-color="#7C98C3"/>
<stop offset="0.32" stop-color="#8EA6CB"/>
<stop offset="0.54" stop-color="#ABBDD9"/>
<stop offset="0.78" stop-color="#D3DDEB"/>
<stop offset="1" stop-color="white"/>
</linearGradient>
<linearGradient id="paint6_linear_653_40458" x1="131.53" y1="161.969" x2="163.984" y2="161.969" gradientUnits="userSpaceOnUse">
<stop stop-color="#C0BFF6"/>
<stop offset="0.29" stop-color="#C4C3F6"/>
<stop offset="0.64" stop-color="#D2D2F9"/>
<stop offset="1" stop-color="#E9E9FD"/>
</linearGradient>
<linearGradient id="paint7_linear_653_40458" x1="134.07" y1="156.11" x2="223.787" y2="156.11" gradientUnits="userSpaceOnUse">
<stop stop-color="#C0BFF6"/>
<stop offset="0.29" stop-color="#C4C3F6"/>
<stop offset="0.64" stop-color="#D2D2F9"/>
<stop offset="1" stop-color="#E9E9FD"/>
</linearGradient>
<linearGradient id="paint8_linear_653_40458" x1="180.149" y1="209.441" x2="180.149" y2="103.567" gradientUnits="userSpaceOnUse">
<stop stop-color="#ECF8FF"/>
<stop offset="1" stop-color="#A6C0E4"/>
</linearGradient>
<linearGradient id="paint9_linear_653_40458" x1="420.615" y1="173.626" x2="293.835" y2="173.626" gradientUnits="userSpaceOnUse">
<stop stop-color="#ECF8FF"/>
<stop offset="1" stop-color="#A6C0E4"/>
</linearGradient>
<linearGradient id="paint10_linear_653_40458" x1="348.61" y1="178.034" x2="437.106" y2="178.034" gradientUnits="userSpaceOnUse">
<stop stop-color="#7694C1"/>
<stop offset="0.14" stop-color="#7C98C3"/>
<stop offset="0.32" stop-color="#8EA6CB"/>
<stop offset="0.54" stop-color="#ABBDD9"/>
<stop offset="0.78" stop-color="#D3DDEB"/>
<stop offset="1" stop-color="white"/>
</linearGradient>
<linearGradient id="paint11_linear_653_40458" x1="428.839" y1="163.857" x2="396.389" y2="163.857" gradientUnits="userSpaceOnUse">
<stop stop-color="#C0BFF6"/>
<stop offset="0.29" stop-color="#C4C3F6"/>
<stop offset="0.64" stop-color="#D2D2F9"/>
<stop offset="1" stop-color="#E9E9FD"/>
</linearGradient>
<linearGradient id="paint12_linear_653_40458" x1="426.303" y1="157.999" x2="336.587" y2="157.999" gradientUnits="userSpaceOnUse">
<stop stop-color="#C0BFF6"/>
<stop offset="0.29" stop-color="#C4C3F6"/>
<stop offset="0.64" stop-color="#D2D2F9"/>
<stop offset="1" stop-color="#E9E9FD"/>
</linearGradient>
<linearGradient id="paint13_linear_653_40458" x1="380.224" y1="211.33" x2="380.224" y2="105.456" gradientUnits="userSpaceOnUse">
<stop stop-color="#ECF8FF"/>
<stop offset="1" stop-color="#A6C0E4"/>
</linearGradient>
<linearGradient id="paint14_linear_653_40458" x1="275.89" y1="255.721" x2="275.89" y2="217.901" gradientUnits="userSpaceOnUse">
<stop stop-color="#334C6C"/>
<stop offset="0.09" stop-color="#3F597A"/>
<stop offset="0.34" stop-color="#5C779B"/>
<stop offset="0.59" stop-color="#718DB2"/>
<stop offset="0.81" stop-color="#7D9AC1"/>
<stop offset="1" stop-color="#829FC6"/>
</linearGradient>
<linearGradient id="paint15_linear_653_40458" x1="275.886" y1="257.191" x2="230.891" y2="257.191" gradientUnits="userSpaceOnUse">
<stop stop-color="#ECF8FF"/>
<stop offset="0.03" stop-color="#E1F3FE"/>
<stop offset="0.18" stop-color="#A6DBF9"/>
<stop offset="0.33" stop-color="#73C6F5"/>
<stop offset="0.48" stop-color="#49B5F1"/>
<stop offset="0.62" stop-color="#29A8EF"/>
<stop offset="0.76" stop-color="#129EED"/>
<stop offset="0.89" stop-color="#0498EC"/>
<stop offset="1" stop-color="#0097EC"/>
</linearGradient>
<linearGradient id="paint16_linear_653_40458" x1="313.586" y1="191.304" x2="238.189" y2="191.304" gradientUnits="userSpaceOnUse">
<stop stop-color="#0097EC"/>
<stop offset="0.11" stop-color="#33ABF0"/>
<stop offset="0.23" stop-color="#63BFF4"/>
<stop offset="0.35" stop-color="#8DD1F7"/>
<stop offset="0.47" stop-color="#AFDFFA"/>
<stop offset="0.6" stop-color="#CAEAFC"/>
<stop offset="0.73" stop-color="#DDF1FD"/>
<stop offset="0.86" stop-color="#E8F6FE"/>
<stop offset="1" stop-color="#ECF8FF"/>
</linearGradient>
<linearGradient id="paint17_linear_653_40458" x1="275.89" y1="192.335" x2="275.89" y2="160.916" gradientUnits="userSpaceOnUse">
<stop stop-color="#0097EC"/>
<stop offset="0.24" stop-color="#0094E7"/>
<stop offset="0.52" stop-color="#008DD8"/>
<stop offset="0.82" stop-color="#0081C1"/>
<stop offset="1" stop-color="#0079AF"/>
</linearGradient>
<linearGradient id="paint18_linear_653_40458" x1="275.886" y1="224.057" x2="203.575" y2="224.057" gradientUnits="userSpaceOnUse">
<stop stop-color="#ECF8FF"/>
<stop offset="1" stop-color="#0097EC"/>
</linearGradient>
<linearGradient id="paint19_linear_653_40458" x1="168.059" y1="328.945" x2="39.041" y2="328.945" gradientUnits="userSpaceOnUse">
<stop stop-color="#ECF8FF"/>
<stop offset="1" stop-color="#A6C0E4"/>
</linearGradient>
<linearGradient id="paint20_linear_653_40458" x1="198.995" y1="324.774" x2="108.931" y2="324.774" gradientUnits="userSpaceOnUse">
<stop stop-color="white"/>
<stop offset="0.22" stop-color="#D3DDEB"/>
<stop offset="0.46" stop-color="#ABBDD9"/>
<stop offset="0.68" stop-color="#8EA6CB"/>
<stop offset="0.86" stop-color="#7C98C3"/>
<stop offset="1" stop-color="#7694C1"/>
</linearGradient>
<linearGradient id="paint21_linear_653_40458" x1="222.38" y1="283.847" x2="131.079" y2="283.847" gradientUnits="userSpaceOnUse">
<stop stop-color="#A6C0E4"/>
<stop offset="0.22" stop-color="#AAC3E5"/>
<stop offset="0.48" stop-color="#B8CEEA"/>
<stop offset="0.74" stop-color="#CEE0F3"/>
<stop offset="1" stop-color="#ECF8FF"/>
</linearGradient>
<linearGradient id="paint22_linear_653_40458" x1="426.381" y1="285.296" x2="335.076" y2="285.296" gradientUnits="userSpaceOnUse">
<stop stop-color="#ECF8FF"/>
<stop offset="1" stop-color="#A6C0E4"/>
</linearGradient>
<linearGradient id="paint23_linear_653_40458" x1="340.103" y1="301.76" x2="469.122" y2="301.76" gradientUnits="userSpaceOnUse">
<stop stop-color="#C0BFF6"/>
<stop offset="0.29" stop-color="#C4C3F6"/>
<stop offset="0.64" stop-color="#D2D2F9"/>
<stop offset="1" stop-color="#E9E9FD"/>
</linearGradient>
<linearGradient id="paint24_linear_653_40458" x1="331.609" y1="292.277" x2="364.634" y2="292.277" gradientUnits="userSpaceOnUse">
<stop stop-color="#C0BFF6"/>
<stop offset="0.29" stop-color="#C4C3F6"/>
<stop offset="0.64" stop-color="#D2D2F9"/>
<stop offset="1" stop-color="#E9E9FD"/>
</linearGradient>
<linearGradient id="paint25_linear_653_40458" x1="389.397" y1="330.391" x2="518.415" y2="330.391" gradientUnits="userSpaceOnUse">
<stop stop-color="#ECF8FF"/>
<stop offset="1" stop-color="#A6C0E4"/>
</linearGradient>
<linearGradient id="paint26_linear_653_40458" x1="448.53" y1="326.219" x2="358.465" y2="326.219" gradientUnits="userSpaceOnUse">
<stop stop-color="white"/>
<stop offset="0.22" stop-color="#D3DDEB"/>
<stop offset="0.46" stop-color="#ABBDD9"/>
<stop offset="0.68" stop-color="#8EA6CB"/>
<stop offset="0.86" stop-color="#7C98C3"/>
<stop offset="1" stop-color="#7694C1"/>
</linearGradient>
<linearGradient id="paint27_linear_653_40458" x1="268.248" y1="118.817" x2="268.248" y2="93.3298" gradientUnits="userSpaceOnUse">
<stop stop-color="#0097EC"/>
<stop offset="1" stop-color="#ECF8FF"/>
</linearGradient>
<linearGradient id="paint28_linear_653_40458" x1="268.248" y1="204.234" x2="268.248" y2="108.998" gradientUnits="userSpaceOnUse">
<stop stop-color="#0097EC"/>
<stop offset="1" stop-color="#ECF8FF"/>
</linearGradient>
<linearGradient id="paint29_linear_653_40458" x1="314.439" y1="106.541" x2="239.046" y2="106.541" gradientUnits="userSpaceOnUse">
<stop stop-color="#0097EC"/>
<stop offset="0.11" stop-color="#33ABF0"/>
<stop offset="0.23" stop-color="#63BFF4"/>
<stop offset="0.35" stop-color="#8DD1F7"/>
<stop offset="0.47" stop-color="#AFDFFA"/>
<stop offset="0.6" stop-color="#CAEAFC"/>
<stop offset="0.73" stop-color="#DDF1FD"/>
<stop offset="0.86" stop-color="#E8F6FE"/>
<stop offset="1" stop-color="#ECF8FF"/>
</linearGradient>
<linearGradient id="paint30_linear_653_40458" x1="314.647" y1="148.909" x2="313.381" y2="148.909" gradientUnits="userSpaceOnUse">
<stop stop-color="#0097EC"/>
<stop offset="0.11" stop-color="#33ABF0"/>
<stop offset="0.23" stop-color="#63BFF4"/>
<stop offset="0.35" stop-color="#8DD1F7"/>
<stop offset="0.47" stop-color="#AFDFFA"/>
<stop offset="0.6" stop-color="#CAEAFC"/>
<stop offset="0.73" stop-color="#DDF1FD"/>
<stop offset="0.86" stop-color="#E8F6FE"/>
<stop offset="1" stop-color="#ECF8FF"/>
</linearGradient>
<linearGradient id="paint31_linear_653_40458" x1="239.254" y1="148.918" x2="237.983" y2="148.918" gradientUnits="userSpaceOnUse">
<stop stop-color="#0097EC"/>
<stop offset="0.11" stop-color="#33ABF0"/>
<stop offset="0.23" stop-color="#63BFF4"/>
<stop offset="0.35" stop-color="#8DD1F7"/>
<stop offset="0.47" stop-color="#AFDFFA"/>
<stop offset="0.6" stop-color="#CAEAFC"/>
<stop offset="0.73" stop-color="#DDF1FD"/>
<stop offset="0.86" stop-color="#E8F6FE"/>
<stop offset="1" stop-color="#ECF8FF"/>
</linearGradient>
<linearGradient id="paint32_linear_653_40458" x1="284.988" y1="93.3256" x2="266.791" y2="93.3256" gradientUnits="userSpaceOnUse">
<stop stop-color="#0097EC"/>
<stop offset="1" stop-color="#ECF8FF"/>
</linearGradient>
<linearGradient id="paint33_linear_653_40458" x1="463.416" y1="134.191" x2="525.536" y2="134.191" gradientUnits="userSpaceOnUse">
<stop stop-color="#ECF8FF"/>
<stop offset="1" stop-color="#A6C0E4"/>
</linearGradient>
<linearGradient id="paint34_linear_653_40458" x1="186.807" y1="48.6783" x2="383.137" y2="48.6783" gradientUnits="userSpaceOnUse">
<stop stop-color="#ECF8FF"/>
<stop offset="1" stop-color="#A6C0E4"/>
</linearGradient>
<linearGradient id="paint35_linear_653_40458" x1="460.503" y1="217.491" x2="525.503" y2="217.491" gradientUnits="userSpaceOnUse">
<stop stop-color="#ECF8FF"/>
<stop offset="1" stop-color="#A6C0E4"/>
</linearGradient>
<linearGradient id="paint36_linear_653_40458" x1="19.6409" y1="124.165" x2="91.5458" y2="124.165" gradientUnits="userSpaceOnUse">
<stop stop-color="#ECF8FF"/>
<stop offset="1" stop-color="#A6C0E4"/>
</linearGradient>
<linearGradient id="paint37_linear_653_40458" x1="64.6852" y1="111.861" x2="64.6852" y2="96.1594" gradientUnits="userSpaceOnUse">
<stop stop-color="#ECF8FF"/>
<stop offset="1" stop-color="#A6C0E4"/>
</linearGradient>
<linearGradient id="paint38_linear_653_40458" x1="19.2349" y1="214.483" x2="88.769" y2="214.483" gradientUnits="userSpaceOnUse">
<stop stop-color="#ECF8FF"/>
<stop offset="1" stop-color="#A6C0E4"/>
</linearGradient>
<clipPath id="clip0_653_40458">
<rect width="556" height="410" fill="white"/>
</clipPath>
</defs>
</svg>
