<svg width="48" height="48" viewBox="0 0 48 48" fill="none" xmlns="http://www.w3.org/2000/svg">
<g clip-path="url(#clip0_426_8711)">
<path d="M17.4624 30C17.8864 30 18.251 29.7224 18.4816 29.3665C18.6878 29.0483 18.9536 28.7703 19.2666 28.5488C19.7735 28.1902 20.3791 27.9976 21 27.9976C21.6209 27.9976 22.2265 28.1902 22.7334 28.5488C23.0464 28.7703 23.3122 29.0483 23.5184 29.3665C23.749 29.7224 24.1136 30 24.5376 30H33C33.5523 30 34 30.4477 34 31C34 31.5523 33.5523 32 33 32H24.5376C24.1136 32 23.749 32.2777 23.5184 32.6335C23.3122 32.9517 23.0464 33.2297 22.7334 33.4512C22.2265 33.8099 21.6209 34.0025 21 34.0025C20.3791 34.0025 19.7735 33.8099 19.2666 33.4512C18.9536 33.2297 18.6878 32.9517 18.4816 32.6335C18.251 32.2777 17.8864 32 17.4624 32H15C14.4477 32 14 31.5523 14 31C14 30.4477 14.4477 30 15 30H17.4624ZM23.4624 23C23.8864 23 24.251 22.7224 24.4816 22.3665C24.6878 22.0483 24.9536 21.7703 25.2666 21.5488C25.7735 21.1902 26.3791 20.9976 27 20.9976C27.6209 20.9976 28.2265 21.1902 28.7334 21.5488C29.0464 21.7703 29.3122 22.0483 29.5184 22.3665C29.749 22.7224 30.1136 23 30.5376 23H33C33.5523 23 34 23.4477 34 24C34 24.5523 33.5523 25 33 25H30.5376C30.1136 25 29.749 25.2777 29.5184 25.6335C29.3122 25.9517 29.0464 26.2297 28.7334 26.4512C28.2265 26.8099 27.6209 27.0025 27 27.0025C26.3791 27.0025 25.7735 26.8099 25.2666 26.4512C24.9536 26.2297 24.6878 25.9517 24.4816 25.6335C24.251 25.2777 23.8864 25 23.4624 25H15C14.4477 25 14 24.5523 14 24C14 23.4477 14.4477 23 15 23H23.4624ZM17.4624 16C17.8864 16 18.251 15.7224 18.4816 15.3665C18.6878 15.0483 18.9536 14.7703 19.2666 14.5488C19.7735 14.1902 20.3791 13.9976 21 13.9976C21.6209 13.9976 22.2265 14.1902 22.7334 14.5488C23.0464 14.7703 23.3122 15.0483 23.5184 15.3665C23.749 15.7224 24.1136 16 24.5376 16H33C33.5523 16 34 16.4477 34 17C34 17.5523 33.5523 18 33 18H24.5376C24.1136 18 23.749 18.2777 23.5184 18.6335C23.3122 18.9517 23.0464 19.2297 22.7334 19.4512C22.2265 19.8099 21.6209 20.0025 21 20.0025C20.3791 20.0025 19.7735 19.8099 19.2666 19.4512C18.9536 19.2297 18.6878 18.9517 18.4816 18.6335C18.251 18.2777 17.8864 18 17.4624 18H15C14.4477 18 14 17.5523 14 17C14 16.4477 14.4477 16 15 16H17.4624Z" fill="#2A94E5"/>
</g>
<defs>
<clipPath id="clip0_426_8711">
<rect width="24" height="24" fill="white" transform="translate(12 12)"/>
</clipPath>
</defs>
</svg>
