<?xml version="1.0" encoding="UTF-8" standalone="no"?>
<!DOCTYPE svg PUBLIC "-//W3C//DTD SVG 1.1//EN" "http://www.w3.org/Graphics/SVG/1.1/DTD/svg11.dtd">
<svg width="100%" height="100%" viewBox="0 0 24 24" version="1.1" xmlns="http://www.w3.org/2000/svg" xmlns:xlink="http://www.w3.org/1999/xlink" xml:space="preserve" xmlns:serif="http://www.serif.com/" style="fill-rule:evenodd;clip-rule:evenodd;stroke-linejoin:round;stroke-miterlimit:2;">
    <g transform="matrix(1,0,0,1,-12.0198,-12.167)">
        <path d="M17.462,30C17.886,30 18.251,29.722 18.482,29.366C18.688,29.048 18.954,28.77 19.267,28.549C19.773,28.19 20.379,27.998 21,27.998C21.621,27.998 22.227,28.19 22.733,28.549C23.046,28.77 23.312,29.048 23.518,29.366C23.749,29.722 24.114,30 24.538,30L33,30C33.552,30 34,30.448 34,31C34,31.552 33.552,32 33,32L24.538,32C24.114,32 23.749,32.278 23.518,32.633C23.312,32.952 23.046,33.23 22.733,33.451C22.227,33.81 21.621,34.003 21,34.003C20.379,34.003 19.773,33.81 19.267,33.451C18.954,33.23 18.688,32.952 18.482,32.633C18.251,32.278 17.886,32 17.462,32L15,32C14.448,32 14,31.552 14,31C14,30.448 14.448,30 15,30L17.462,30ZM23.462,23C23.886,23 24.251,22.722 24.482,22.366C24.688,22.048 24.954,21.77 25.267,21.549C25.773,21.19 26.379,20.998 27,20.998C27.621,20.998 28.227,21.19 28.733,21.549C29.046,21.77 29.312,22.048 29.518,22.366C29.749,22.722 30.114,23 30.538,23L33,23C33.552,23 34,23.448 34,24C34,24.552 33.552,25 33,25L30.538,25C30.114,25 29.749,25.278 29.518,25.634C29.312,25.952 29.046,26.23 28.733,26.451C28.227,26.81 27.621,27.003 27,27.003C26.379,27.003 25.773,26.81 25.267,26.451C24.954,26.23 24.688,25.952 24.482,25.634C24.251,25.278 23.886,25 23.462,25L15,25C14.448,25 14,24.552 14,24C14,23.448 14.448,23 15,23L23.462,23ZM17.462,16C17.886,16 18.251,15.722 18.482,15.367C18.688,15.048 18.954,14.77 19.267,14.549C19.773,14.19 20.379,13.998 21,13.998C21.621,13.998 22.227,14.19 22.733,14.549C23.046,14.77 23.312,15.048 23.518,15.367C23.749,15.722 24.114,16 24.538,16L33,16C33.552,16 34,16.448 34,17C34,17.552 33.552,18 33,18L24.538,18C24.114,18 23.749,18.278 23.518,18.634C23.312,18.952 23.046,19.23 22.733,19.451C22.227,19.81 21.621,20.003 21,20.003C20.379,20.003 19.773,19.81 19.267,19.451C18.954,19.23 18.688,18.952 18.482,18.634C18.251,18.278 17.886,18 17.462,18L15,18C14.448,18 14,17.552 14,17C14,16.448 14.448,16 15,16L17.462,16Z" style="fill:rgb(111,111,112);fill-rule:nonzero;"/>
    </g>
</svg>
