<svg width="20" height="20" viewBox="0 0 20 20" fill="none" xmlns="http://www.w3.org/2000/svg">
<g id="Delete">
<path id="Vector" d="M3.16748 5.5H4.66748H16.6675" stroke="#C86E62" stroke-width="1.8" stroke-linecap="round" stroke-linejoin="round"/>
<path id="Vector_2" d="M6.9165 5.5V4C6.9165 3.60218 7.07454 3.22064 7.35584 2.93934C7.63715 2.65804 8.01868 2.5 8.4165 2.5H11.4165C11.8143 2.5 12.1959 2.65804 12.4772 2.93934C12.7585 3.22064 12.9165 3.60218 12.9165 4V5.5M15.1665 5.5V16C15.1665 16.3978 15.0085 16.7794 14.7272 17.0607C14.4459 17.342 14.0643 17.5 13.6665 17.5H6.1665C5.76868 17.5 5.38715 17.342 5.10584 17.0607C4.82454 16.7794 4.6665 16.3978 4.6665 16V5.5H15.1665Z" stroke="#C86E62" stroke-width="1.8" stroke-linecap="round" stroke-linejoin="round"/>
<path id="Vector_3" d="M11.416 9.25V13.75" stroke="#C86E62" stroke-width="1.8" stroke-linecap="round" stroke-linejoin="round"/>
<path id="Vector_4" d="M8.4165 9.25V13.75" stroke="#C86E62" stroke-width="1.8" stroke-linecap="round" stroke-linejoin="round"/>
</g>
</svg>
