<svg width="21" height="22" viewBox="0 0 21 22" fill="none" xmlns="http://www.w3.org/2000/svg">
<path d="M9.62419 1.58918C10.0043 0.899394 10.9957 0.899394 11.3758 1.58918L18.7762 15.0173C19.1435 15.6838 18.6613 16.5 17.9004 16.5H3.09965C2.33867 16.5 1.85654 15.6838 2.22384 15.0173L9.62419 1.58918Z" fill="#F8BB5F"/>
<path d="M11.4112 6.72727L11.2727 11.8196H9.97301L9.83097 6.72727H11.4112ZM10.6229 14.0923C10.3885 14.0923 10.1873 14.0095 10.0192 13.8438C9.85109 13.6757 9.76823 13.4744 9.7706 13.2401C9.76823 13.008 9.85109 12.8092 10.0192 12.6435C10.1873 12.4777 10.3885 12.3949 10.6229 12.3949C10.8478 12.3949 11.0455 12.4777 11.2159 12.6435C11.3864 12.8092 11.4728 13.008 11.4751 13.2401C11.4728 13.3963 11.4313 13.5395 11.3509 13.6697C11.2727 13.7976 11.1697 13.9006 11.0419 13.9787C10.9141 14.0545 10.7744 14.0923 10.6229 14.0923Z" fill="white"/>
</svg>
