<svg width="24" height="24" viewBox="0 0 24 24" fill="none" xmlns="http://www.w3.org/2000/svg">
<path fill-rule="evenodd" clip-rule="evenodd" d="M11 22L11 2H13L13 22H11Z" fill="#6F6F70"/>
<path d="M12 5C12.5523 5 13 4.55228 13 4C13 3.44772 12.5523 3 12 3V5ZM15 3C14.4477 3 14 3.44772 14 4C14 4.55228 14.4477 5 15 5V3ZM15 19C14.4477 19 14 19.4477 14 20C14 20.5523 14.4477 21 15 21V19ZM19 5V19H21V5H19ZM5 19V5H3V19H5ZM5 5H11V3H5V5ZM11 5H12V3H11V5ZM15 5H19V3H15V5ZM12 19H5V21H12V19ZM19 19H15V21H19V19ZM3 19C3 20.1046 3.89543 21 5 21V19H3ZM19 19V21C20.1046 21 21 20.1046 21 19H19ZM21 5C21 3.89543 20.1046 3 19 3V5H21ZM5 5V3C3.89543 3 3 3.89543 3 5H5Z" fill="#6F6F70"/>
</svg>
