<svg width="18" height="14" viewBox="0 0 18 14" fill="none" xmlns="http://www.w3.org/2000/svg">
<path d="M7.70671 9.91585C8.05393 10.2631 8.49143 10.4261 9.01921 10.405C9.54698 10.3845 9.92893 10.1936 10.165 9.83252L14.8317 2.83252L7.83171 7.49919C7.4706 7.74919 7.27282 8.12752 7.23837 8.63419C7.20337 9.14141 7.35948 9.56863 7.70671 9.91585ZM3.24837 13.6659C2.94282 13.6659 2.66171 13.5997 2.40504 13.4675C2.14782 13.3359 1.94282 13.1381 1.79004 12.8742C1.42893 12.2214 1.15115 11.5445 0.956706 10.8434C0.762261 10.1417 0.665039 9.41585 0.665039 8.66585C0.665039 7.51308 0.883928 6.42974 1.32171 5.41585C1.75893 4.40196 2.35254 3.52002 3.10254 2.77002C3.85254 2.02002 4.73448 1.42613 5.74837 0.988353C6.76226 0.551131 7.8456 0.33252 8.99837 0.33252C10.1373 0.33252 11.2067 0.547797 12.2067 0.978353C13.2067 1.40891 14.0817 1.99585 14.8317 2.73919C15.5817 3.48196 16.1789 4.34974 16.6234 5.34252C17.0678 6.33585 17.297 7.40196 17.3109 8.54085C17.3248 9.30474 17.2381 10.0514 17.0509 10.7809C16.8631 11.5097 16.5748 12.2075 16.1859 12.8742C16.0331 13.1381 15.8284 13.3359 15.5717 13.4675C15.3145 13.5997 15.0331 13.6659 14.7275 13.6659H3.24837Z" fill="#6F6F70"/>
</svg>
