<svg width="34" height="34" viewBox="0 0 34 34" fill="none" xmlns="http://www.w3.org/2000/svg">
<g clip-path="url(#clip0_225_23764)">
<path d="M8.98087 17.2492C8.32723 18.1376 8.5182 19.3917 9.40666 20.0454L19.0726 27.1566C19.9611 27.8102 21.2152 27.6193 21.8688 26.7308L27.7948 18.6759C28.4485 17.7874 28.2575 16.5333 27.369 15.8797L17.7031 8.76843C16.8146 8.11479 15.5605 8.30575 14.9069 9.19422L12.9318 11.8789L11.6849 6.82381L5.75889 14.8788L10.956 14.5645L8.98087 17.2492ZM16.5163 10.3782L26.1838 17.4906L20.2578 25.5456L10.5919 18.4344L13.5535 14.4071L13.5549 14.4069L13.5547 14.4055L16.5163 10.3782Z" fill="#9F9F9F"/>
<path d="M8.98087 17.2492C8.32723 18.1376 8.5182 19.3917 9.40666 20.0454L19.0726 27.1566C19.9611 27.8102 21.2152 27.6193 21.8688 26.7308L27.7948 18.6759C28.4485 17.7874 28.2575 16.5333 27.369 15.8797L17.7031 8.76843C16.8146 8.11479 15.5605 8.30575 14.9069 9.19422L12.9318 11.8789L11.6849 6.82381L5.75889 14.8788L10.956 14.5645L8.98087 17.2492ZM16.5163 10.3782L26.1838 17.4906L20.2578 25.5456L10.5919 18.4344L13.5535 14.4071L13.5549 14.4069L13.5547 14.4055L16.5163 10.3782Z" fill="#2A94E5"/>
</g>
<defs>
<clipPath id="clip0_225_23764">
<rect width="24" height="24" fill="white" transform="translate(19.332 33.5547) rotate(-143.658)"/>
</clipPath>
</defs>
</svg>
