<svg width="24" height="24" viewBox="0 0 24 24" fill="none" xmlns="http://www.w3.org/2000/svg">
<g clip-path="url(#clip0_3927_3025)">
<path fill-rule="evenodd" clip-rule="evenodd" d="M2 5.5C2 4.39543 2.89543 3.5 4 3.5H9.32047L12.8205 6H20C21.1046 6 22 6.89543 22 8V18.5C22 19.6046 21.1046 20.5 20 20.5H4C2.89543 20.5 2 19.6046 2 18.5V5.5ZM8.67953 5.5L4 5.5V18.5L20 18.5V8H12.1795L8.67953 5.5Z" fill="#6F6F70"/>
<path fill-rule="evenodd" clip-rule="evenodd" d="M8 9.5V11.5H6V7.5L10 7.5V9.5H8Z" fill="#6F6F70"/>
<path fill-rule="evenodd" clip-rule="evenodd" d="M16 15.5H14V17.5H18V13.5H16V15.5Z" fill="#6F6F70"/>
<path fill-rule="evenodd" clip-rule="evenodd" d="M11 15.5V9.5H13V15.5H11Z" fill="#6F6F70"/>
<path fill-rule="evenodd" clip-rule="evenodd" d="M15 13.5H9V11.5H15V13.5Z" fill="#6F6F70"/>
</g>
<defs>
<clipPath id="clip0_3927_3025">
<rect width="24" height="24" fill="white"/>
</clipPath>
</defs>
</svg>
