<svg width="24" height="24" viewBox="0 0 24 24" fill="none" xmlns="http://www.w3.org/2000/svg">
<path fill-rule="evenodd" clip-rule="evenodd" d="M11.75 19V21L5 21C3.89543 21 3 20.1046 3 19L3 5C3 3.89543 3.89543 3 5 3L19 3C20.1046 3 21 3.89543 21 5L21 12H19L19 5L5 5L5 19H11.75Z" fill="#6F6F70"/>
<path fill-rule="evenodd" clip-rule="evenodd" d="M17.2 15C15.985 15 15 15.985 15 17.2C15 18.415 15.985 19.4 17.2 19.4C18.415 19.4 19.4 18.415 19.4 17.2C19.4 15.985 18.415 15 17.2 15ZM13 17.2C13 14.8804 14.8804 13 17.2 13C19.5196 13 21.4 14.8804 21.4 17.2C21.4 19.5196 19.5196 21.4 17.2 21.4C14.8804 21.4 13 19.5196 13 17.2Z" fill="#6F6F70"/>
<path fill-rule="evenodd" clip-rule="evenodd" d="M21.9997 23.6001L18.7997 20.4001L20.2139 18.9858L23.4139 22.1858L21.9997 23.6001Z" fill="#6F6F70"/>
<path fill-rule="evenodd" clip-rule="evenodd" d="M10 9V17H12V9H10Z" fill="#6F6F70"/>
<path fill-rule="evenodd" clip-rule="evenodd" d="M13 11V15C13.627 13.9905 14.0389 13.5128 15 13V11H13Z" fill="#6F6F70"/>
<path fill-rule="evenodd" clip-rule="evenodd" d="M7 6V17H9V6H7Z" fill="#6F6F70"/>
</svg>
