<svg width="25" height="24" viewBox="0 0 25 24" fill="none" xmlns="http://www.w3.org/2000/svg">
<path d="M19.986 9L19.1298 3.83642C19.0498 3.35385 18.6324 3 18.1433 3L6.83947 3C6.35008 3 5.9326 3.35418 5.85284 3.83702L5 8.99999" stroke="#2A94E5" stroke-width="2"/>
<path d="M14.5 18H3.5C2.94772 18 2.5 17.5523 2.5 17V10C2.5 9.44772 2.94772 9 3.5 9H21.5C22.0523 9 22.5 9.44772 22.5 10V16.5" stroke="#2A94E5" stroke-width="2"/>
<circle cx="18.5" cy="17" r="4" stroke="#2A94E5" stroke-width="2"/>
<line x1="15.1417" y1="14.233" x2="21.263" y2="19.3543" stroke="#2A94E5" stroke-width="2"/>
<circle cx="7.5" cy="13.5" r="2" fill="#2A94E5"/>
<path d="M8.5 18.5C8.5 19.163 8.23661 19.7989 7.76777 20.2678C7.29893 20.7366 6.66304 21 6 21C5.33696 21 4.70107 20.7366 4.23223 20.2678C3.76339 19.7989 3.5 19.163 3.5 18.5L6 18.5H8.5Z" fill="#2A94E5"/>
</svg>
