<svg width="24" height="24" viewBox="0 0 24 24" fill="none" xmlns="http://www.w3.org/2000/svg">
<path d="M19.486 9L18.6298 3.83642C18.5498 3.35385 18.1324 3 17.6433 3L6.33947 3C5.85008 3 5.4326 3.35418 5.35284 3.83702L4.5 8.99999" stroke="#6F6F70" stroke-width="2"/>
<path d="M14 18H3C2.44772 18 2 17.5523 2 17V10C2 9.44772 2.44772 9 3 9H21C21.5523 9 22 9.44772 22 10V16.5" stroke="#6F6F70" stroke-width="2"/>
<circle cx="18" cy="17" r="4" stroke="#6F6F70" stroke-width="2"/>
<line x1="14.6417" y1="14.233" x2="20.763" y2="19.3543" stroke="#6F6F70" stroke-width="2"/>
<circle cx="7" cy="13.5" r="2" fill="#6F6F70"/>
<path d="M8 18.5C8 19.163 7.73661 19.7989 7.26777 20.2678C6.79893 20.7366 6.16304 21 5.5 21C4.83696 21 4.20107 20.7366 3.73223 20.2678C3.26339 19.7989 3 19.163 3 18.5L5.5 18.5H8Z" fill="#6F6F70"/>
</svg>
