<svg width="24" height="24" viewBox="0 0 24 24" fill="none" xmlns="http://www.w3.org/2000/svg">
<path fill-rule="evenodd" clip-rule="evenodd" d="M11 10C9.89543 10 9 10.8954 9 12C9 13.1046 9.89543 14 11 14C12.1046 14 13 13.1046 13 12C13 10.8954 12.1046 10 11 10ZM7 12C7 9.79086 8.79086 8 11 8C13.2091 8 15 9.79086 15 12C15 14.2091 13.2091 16 11 16C8.79086 16 7 14.2091 7 12Z" fill="#6F6F70"/>
<path fill-rule="evenodd" clip-rule="evenodd" d="M7.44068 3.5952C7.62614 3.317 7.93837 3.1499 8.27273 3.1499H14.7273C15.0616 3.1499 15.3739 3.317 15.5593 3.5952L17.0806 5.87717H20.1818C20.9292 5.87717 21.6461 6.17409 22.1746 6.7026C22.7031 7.23111 23 7.94793 23 8.69536V10.6954C23 11.2476 22.5523 11.6954 22 11.6954C21.4477 11.6954 21 11.2476 21 10.6954V8.69536C21 8.47836 20.9138 8.27025 20.7604 8.11681C20.6069 7.96338 20.3988 7.87717 20.1818 7.87717H16.5455C16.2111 7.87717 15.8989 7.71007 15.7134 7.43188L14.1921 5.1499H8.80791L7.2866 7.43188C7.10113 7.71007 6.7889 7.87717 6.45455 7.87717H3.81818C3.60119 7.87717 3.39308 7.96338 3.23964 8.11681C3.0862 8.27025 3 8.47836 3 8.69536V18.6954C3 18.9124 3.0862 19.1205 3.23964 19.2739C3.39308 19.4273 3.60119 19.5135 3.81818 19.5135H8.18182C8.7341 19.5135 9.18182 19.9613 9.18182 20.5135C9.18182 21.0658 8.7341 21.5135 8.18182 21.5135H3.81818C3.07075 21.5135 2.35394 21.2166 1.82543 20.6881C1.29691 20.1596 1 19.4428 1 18.6954V8.69536C1 7.94793 1.29691 7.23111 1.82543 6.7026C2.35394 6.17409 3.07075 5.87717 3.81818 5.87717H5.91936L7.44068 3.5952Z" fill="#6F6F70"/>
<path fill-rule="evenodd" clip-rule="evenodd" d="M23 15.5H16V13.5H23V15.5Z" fill="#6F6F70"/>
<path fill-rule="evenodd" clip-rule="evenodd" d="M23 18.5H12V16.5H23V18.5Z" fill="#6F6F70"/>
<path fill-rule="evenodd" clip-rule="evenodd" d="M23 21.5H10V19.5H23V21.5Z" fill="#6F6F70"/>
</svg>
