<svg width="24" height="24" viewBox="0 0 24 24" fill="none" xmlns="http://www.w3.org/2000/svg">
<path fill-rule="evenodd" clip-rule="evenodd" d="M7.44068 3.4453C7.62614 3.1671 7.93837 3 8.27273 3H13.7273C14.0616 3 14.3739 3.1671 14.5593 3.4453L16.0806 5.72727H19.1818C19.9292 5.72727 20.6461 6.02419 21.1746 6.5527C21.7031 7.08121 22 7.79803 22 8.54545V11.5455C22 12.0977 21.5523 12.5455 21 12.5455C20.4477 12.5455 20 12.0977 20 11.5455V8.54545C20 8.32846 19.9138 8.12035 19.7604 7.96691C19.6069 7.81347 19.3988 7.72727 19.1818 7.72727H15.5455C15.2111 7.72727 14.8989 7.56017 14.7134 7.28197L13.1921 5H8.80791L7.2866 7.28197C7.10113 7.56017 6.7889 7.72727 6.45455 7.72727H3.81818C3.60119 7.72727 3.39308 7.81347 3.23964 7.96691C3.0862 8.12035 3 8.32846 3 8.54545V18.5455C3 18.7624 3.0862 18.9706 3.23964 19.124C3.39308 19.2774 3.60119 19.3636 3.81818 19.3636H12.1818C12.7341 19.3636 13.1818 19.8114 13.1818 20.3636C13.1818 20.9159 12.7341 21.3636 12.1818 21.3636H3.81818C3.07075 21.3636 2.35394 21.0667 1.82543 20.5382C1.29691 20.0097 1 19.2929 1 18.5455V8.54545C1 7.79803 1.29691 7.08121 1.82543 6.5527C2.35394 6.02419 3.07075 5.72727 3.81818 5.72727H5.91936L7.44068 3.4453Z" fill="#6F6F70"/>
<path fill-rule="evenodd" clip-rule="evenodd" d="M11 10C9.89543 10 9 10.8954 9 12C9 13.1046 9.89543 14 11 14C12.1046 14 13 13.1046 13 12C13 10.8954 12.1046 10 11 10ZM7 12C7 9.79086 8.79086 8 11 8C13.2091 8 15 9.79086 15 12C15 14.2091 13.2091 16 11 16C8.79086 16 7 14.2091 7 12Z" fill="#6F6F70"/>
<path d="M17.85 23L17.55 21.5C17.35 21.4167 17.1627 21.3293 16.988 21.238C16.8127 21.146 16.6333 21.0333 16.45 20.9L15 21.35L14 19.65L15.15 18.65C15.1167 18.4167 15.1 18.2 15.1 18C15.1 17.8 15.1167 17.5833 15.15 17.35L14 16.35L15 14.65L16.45 15.1C16.6333 14.9667 16.8127 14.854 16.988 14.762C17.1627 14.6707 17.35 14.5833 17.55 14.5L17.85 13H19.85L20.15 14.5C20.35 14.5833 20.5377 14.675 20.713 14.775C20.8877 14.875 21.0667 15 21.25 15.15L22.7 14.65L23.7 16.4L22.55 17.4C22.5833 17.6 22.6 17.8083 22.6 18.025C22.6 18.2417 22.5833 18.45 22.55 18.65L23.7 19.65L22.7 21.35L21.25 20.9C21.0667 21.0333 20.8877 21.146 20.713 21.238C20.5377 21.3293 20.35 21.4167 20.15 21.5L19.85 23H17.85ZM18.85 20C19.4 20 19.871 19.8043 20.263 19.413C20.6543 19.021 20.85 18.55 20.85 18C20.85 17.45 20.6543 16.9793 20.263 16.588C19.871 16.196 19.4 16 18.85 16C18.3 16 17.829 16.196 17.437 16.588C17.0457 16.9793 16.85 17.45 16.85 18C16.85 18.55 17.0457 19.021 17.437 19.413C17.829 19.8043 18.3 20 18.85 20Z" fill="#6F6F70"/>
</svg>
