<svg width="40" height="40" viewBox="0 0 40 40" fill="none" xmlns="http://www.w3.org/2000/svg">
<path d="M36.6668 30.909C36.6668 31.7127 36.3476 32.4835 35.7793 33.0518C35.211 33.6201 34.4402 33.9394 33.6365 33.9394H6.3638C5.56011 33.9394 4.78934 33.6201 4.22105 33.0518C3.65276 32.4835 3.3335 31.7127 3.3335 30.909V14.2424C3.3335 13.4387 3.65276 12.6679 4.22105 12.0996C4.78934 11.5313 5.56011 11.2121 6.3638 11.2121H12.4244L15.4547 6.66663H24.5456L27.5759 11.2121H33.6365C34.4402 11.2121 35.211 11.5313 35.7793 12.0996C36.3476 12.6679 36.6668 13.4387 36.6668 14.2424V30.909Z" stroke="#6F6F70" stroke-width="2" stroke-linecap="round" stroke-linejoin="round"/>
<path d="M20.0001 27.8788C23.3472 27.8788 26.0607 25.1654 26.0607 21.8182C26.0607 18.471 23.3472 15.7576 20.0001 15.7576C16.6529 15.7576 13.9395 18.471 13.9395 21.8182C13.9395 25.1654 16.6529 27.8788 20.0001 27.8788Z" stroke="#6F6F70" stroke-width="2" stroke-linecap="round" stroke-linejoin="round"/>
</svg>
