<svg width="24" height="24" viewBox="0 0 24 24" fill="none" xmlns="http://www.w3.org/2000/svg">
<path d="M11.9504 8.01081C12.1848 8.11994 12.4636 8.01869 12.5733 7.78394C12.6825 7.54957 12.5812 7.2707 12.3465 7.1612C12.1121 7.05189 11.8334 7.15315 11.7237 7.38789C11.6144 7.62226 11.7156 7.90113 11.9504 8.01081Z" fill="#0F0F10"/>
<path d="M22.7748 10.4534C22.7366 10.3483 22.658 10.2626 22.5566 10.2153L8.79443 3.79867C7.73843 3.30593 6.48451 3.76159 5.9921 4.81825C5.91629 4.98074 4.68528 7.62059 4.56596 7.87635C4.07339 8.93269 4.52905 10.1866 5.58621 10.6792L9.25652 12.3907V14.8096H3.73095V14.3879C3.73095 13.6901 3.16323 13.1224 2.46565 13.1224H1.62207C1.38905 13.1224 1.2002 13.3113 1.2002 13.5443V21.1366C1.2002 21.3694 1.38905 21.5583 1.62207 21.5583H2.46565C3.16323 21.5583 3.73095 20.9907 3.73095 20.293V19.5499C3.73095 19.5499 10.7552 18.3069 10.7568 18.3065C11.3539 18.1935 11.7873 17.6704 11.7873 17.0628V16.2707C12.3016 15.9732 12.6309 15.4187 12.6309 14.8096V13.9644L15.8392 15.4607C16.4577 15.7486 17.1952 15.4925 17.5027 14.8836L18.9397 15.5538C19.15 15.6519 19.4015 15.5617 19.5002 15.3498L20.765 12.6379L21.9225 12.2578C22.0331 12.2215 22.1239 12.1409 22.1731 12.0354L22.7606 10.7759C22.8079 10.6746 22.813 10.5586 22.7748 10.4534ZM2.88736 20.293C2.88736 20.5255 2.69818 20.7147 2.46565 20.7147H2.04378V13.966H2.46565C2.69818 13.966 2.88736 14.1552 2.88736 14.3879V20.293ZM10.9437 17.0628C10.9437 17.2647 10.8 17.4387 10.6019 17.4773L3.73095 18.6933V15.6532H9.48262C9.78007 16.1677 10.3346 16.4968 10.9437 16.4968V17.0628ZM11.7873 14.8096C11.7873 15.2704 11.414 15.6532 10.9437 15.6532C10.4829 15.6532 10.1001 15.2799 10.1001 14.8096V12.7841L11.7873 13.571V14.8096ZM16.1957 14.6961L5.9425 9.91453C5.30853 9.61922 5.03464 8.8671 5.33061 8.2328L5.50876 7.85081L17.2913 13.3451L16.7563 14.4917C16.6579 14.7025 16.4063 14.7941 16.1957 14.6961ZM18.914 14.611L17.8606 14.1198L18.1515 13.496L19.6658 12.9988L18.914 14.611ZM21.4858 11.5134C21.469 11.5188 17.8992 12.691 17.8908 12.6938L5.86521 7.08633L6.75675 5.17487C7.05189 4.5414 7.80385 4.26735 8.43798 4.56315L21.8178 10.8016L21.4858 11.5134Z" fill="#0F0F10" stroke="#6F6F70" stroke-width="0.5"/>
<path d="M7.47571 5.40691C7.36621 5.64147 7.46783 5.92034 7.70239 6.02983L10.2509 7.21837C10.4847 7.32732 10.7639 7.22698 10.8738 6.99169C10.9831 6.75713 10.8817 6.47826 10.6471 6.36876L8.09845 5.18041C7.86389 5.07073 7.58502 5.17235 7.47571 5.40691Z" fill="#6F6F70"/>
</svg>
