<svg width="24" height="24" viewBox="0 0 24 24" fill="none" xmlns="http://www.w3.org/2000/svg">
<path d="M10.0001 13C12.2101 13 14.0001 11.21 14.0001 9C14.0001 6.79 12.2101 5 10.0001 5C7.79006 5 6.00006 6.79 6.00006 9C6.00006 11.21 7.79006 13 10.0001 13ZM10.0001 7C11.1001 7 12.0001 7.9 12.0001 9C12.0001 10.1 11.1001 11 10.0001 11C8.90006 11 8.00006 10.1 8.00006 9C8.00006 7.9 8.90006 7 10.0001 7ZM16.3901 15.56C14.7101 14.7 12.5301 14 10.0001 14C7.47007 14 5.29006 14.7 3.61006 15.56C3.12212 15.8113 2.71337 16.1929 2.42916 16.6625C2.14496 17.132 1.99643 17.6712 2.00006 18.22V21H18.0001V18.22C18.0001 17.1 17.3901 16.07 16.3901 15.56ZM16.0001 19H4.00007V18.22C4.00007 17.84 4.20007 17.5 4.52007 17.34C5.71007 16.73 7.63006 16 10.0001 16C12.3701 16 14.2901 16.73 15.4801 17.34C15.8001 17.5 16.0001 17.84 16.0001 18.22V19ZM16.0001 1H14.0001C14.0001 3.38695 14.9483 5.67613 16.6361 7.36396C18.3239 9.05179 20.6131 10 23.0001 10V8C19.1401 8 16.0001 4.86 16.0001 1Z" fill="#6F6F70"/>
<path d="M20 1H18C18 3.76 20.24 6 23 6V4C21.35 4 20 2.65 20 1Z" fill="#6F6F70"/>
</svg>
