<svg width="24" height="24" viewBox="0 0 24 24" fill="none" xmlns="http://www.w3.org/2000/svg">
<path d="M14 12L8 9V15L14 12Z" fill="#6F6F70"/>
<path d="M13.8218 17.3128L17.2925 20.7067C17.6936 21.0989 18.3417 21.0982 18.7432 20.702L22.1782 17.3128C23.1542 16.3749 21.6898 14.9681 20.7135 15.9059L19.5253 17.0514C19.2546 17.3123 19.0354 17.2281 19.0354 16.8609V11H16.9644V16.8609C16.9644 17.227 16.7449 17.3123 16.4745 17.0514L15.2865 15.9059C14.31 14.9681 12.8458 16.375 13.8218 17.3128Z" fill="#6F6F70"/>
<path fill-rule="evenodd" clip-rule="evenodd" d="M4 19H12.3125V21L4 21C2.89543 21 2 20.1046 2 19L2 5C2 3.89543 2.89543 3 4 3L17 3C18.1046 3 19 3.89543 19 5L19 8H17L17 5L4 5L4 19Z" fill="#6F6F70"/>
</svg>
