<svg width="24" height="24" viewBox="0 0 24 24" fill="none" xmlns="http://www.w3.org/2000/svg">
<path d="M2 8.41197H14.1329V10.618H2V8.41197ZM2 6.20598H14.1329V4H2V6.20598ZM2 15.0299H9.72094V12.8239H2V15.0299ZM18.5559 11.5776L19.339 10.7944C19.4411 10.6922 19.5623 10.6111 19.6957 10.5557C19.8291 10.5004 19.9722 10.4719 20.1166 10.4719C20.2611 10.4719 20.4041 10.5004 20.5376 10.5557C20.671 10.6111 20.7922 10.6922 20.8943 10.7944L21.6774 11.5776C22.1075 12.0077 22.1075 12.7026 21.6774 13.1328L20.8943 13.9159L18.5559 11.5776ZM17.7728 12.3607L11.9269 18.2065V20.5449H14.2653L20.1111 14.699L17.7728 12.3607Z" fill="#2A94E5"/>
</svg>
