<svg width="24" height="24" viewBox="0 0 24 24" fill="none" xmlns="http://www.w3.org/2000/svg">
<path d="M11.05 14.5L15.2 11.85C15.35 11.75 15.4627 11.625 15.538 11.475C15.6127 11.325 15.65 11.1667 15.65 11C15.65 10.8333 15.6127 10.675 15.538 10.525C15.4627 10.375 15.35 10.25 15.2 10.15L11.05 7.5C10.7167 7.28333 10.375 7.26667 10.025 7.45C9.675 7.63333 9.5 7.925 9.5 8.325V13.675C9.5 14.075 9.675 14.3667 10.025 14.55C10.375 14.7333 10.7167 14.7167 11.05 14.5ZM9 21C8.71667 21 8.47933 20.904 8.288 20.712C8.096 20.5207 8 20.2833 8 20V19H4C3.45 19 2.97933 18.8043 2.588 18.413C2.196 18.021 2 17.55 2 17V5C2 4.45 2.196 3.979 2.588 3.587C2.97933 3.19567 3.45 3 4 3H20C20.55 3 21.021 3.19567 21.413 3.587C21.8043 3.979 22 4.45 22 5V17C22 17.55 21.8043 18.021 21.413 18.413C21.021 18.8043 20.55 19 20 19H16V20C16 20.2833 15.9043 20.5207 15.713 20.712C15.521 20.904 15.2833 21 15 21H9ZM4 17H20V5H4V17ZM4 17V5V17Z" fill="#6F6F70"/>
</svg>
