<svg width="24" height="24" viewBox="0 0 24 24" fill="none" xmlns="http://www.w3.org/2000/svg">
<path d="M16.1782 5.73779L12.7075 2.29737C12.3064 1.89975 11.6583 1.90045 11.2568 2.30205L7.82179 5.73779C6.84582 6.68847 8.31024 8.1146 9.28646 7.16392L10.4747 6.00271C10.7454 5.73826 10.9646 5.8236 10.9646 6.19589V14.1645H13.0356V6.19589C13.0356 5.82477 13.2551 5.73826 13.5255 6.00271L14.7135 7.16392C15.69 8.1146 17.1542 6.68847 16.1782 5.73779Z" fill="#2A94E5"/>
<path fill-rule="evenodd" clip-rule="evenodd" d="M3 11C3 9.89543 3.89543 9 5 9H9V11L5 11V20H19V11H15V9H19C20.1046 9 21 9.89543 21 11V20C21 21.1046 20.1046 22 19 22H5C3.89543 22 3 21.1046 3 20V11Z" fill="#2A94E5"/>
</svg>
