<svg width="18" height="20" viewBox="0 0 18 20" fill="none" xmlns="http://www.w3.org/2000/svg">
<path d="M13.1782 3.73779L9.70749 0.297367C9.30638 -0.100246 8.6583 -0.0995506 8.25676 0.302049L4.82179 3.73779C3.84582 4.68847 5.31024 6.1146 6.28646 5.16392L7.47469 4.00271C7.74537 3.73826 7.96461 3.8236 7.96461 4.19589V12.1645H10.0356V4.19589C10.0356 3.82477 10.2551 3.73826 10.5255 4.00271L11.7135 5.16392C12.69 6.1146 14.1542 4.68847 13.1782 3.73779Z" fill="#6F6F70"/>
<path fill-rule="evenodd" clip-rule="evenodd" d="M0 9C0 7.89543 0.895431 7 2 7H6V9L2 9V18H16V9H12V7H16C17.1046 7 18 7.89543 18 9V18C18 19.1046 17.1046 20 16 20H2C0.89543 20 0 19.1046 0 18V9Z" fill="#6F6F70"/>
</svg>
