<svg width="24" height="24" viewBox="0 0 24 24" fill="none" xmlns="http://www.w3.org/2000/svg">
<g clip-path="url(#clip0_263_20747)">
<g clip-path="url(#clip1_263_20747)">
<path fill-rule="evenodd" clip-rule="evenodd" d="M11.7197 15.9492C11.5481 16.0331 11.3438 16.0119 11.193 15.8947L6.69303 12.3947C6.57124 12.2999 6.5 12.1543 6.5 12C6.5 11.8457 6.57124 11.7 6.69303 11.6053L11.193 8.10532C11.3438 7.98808 11.5481 7.96694 11.7197 8.05084C11.8912 8.13474 12 8.30903 12 8.5L12 15.5C12 15.691 11.8912 15.8653 11.7197 15.9492ZM11 14.4777L11 9.52232L7.81441 12L11 14.4777Z" fill="#6F6F70"/>
<path fill-rule="evenodd" clip-rule="evenodd" d="M17.2197 15.9492C17.0481 16.0331 16.8438 16.0119 16.693 15.8947L12.193 12.3947C12.0712 12.2999 12 12.1543 12 12C12 11.8457 12.0712 11.7 12.193 11.6053L16.693 8.10532C16.8438 7.98808 17.0481 7.96694 17.2197 8.05084C17.3912 8.13474 17.5 8.30903 17.5 8.5L17.5 15.5C17.5 15.691 17.3912 15.8653 17.2197 15.9492ZM16.5 14.4777L16.5 9.52232L13.3144 12L16.5 14.4777Z" fill="#6F6F70"/>
</g>
</g>
<defs>
<clipPath id="clip0_263_20747">
<rect x="24" y="24" width="24" height="24" rx="4" transform="rotate(180 24 24)" fill="white"/>
</clipPath>
<clipPath id="clip1_263_20747">
<rect width="12" height="12" fill="white" transform="translate(18 18) rotate(180)"/>
</clipPath>
</defs>
</svg>
