<svg width="24" height="24" viewBox="0 0 24 24" fill="none" xmlns="http://www.w3.org/2000/svg">
<g clip-path="url(#clip0_263_20749)">
<path fill-rule="evenodd" clip-rule="evenodd" d="M12.2803 8.05085C12.4519 7.96694 12.6562 7.98809 12.807 8.10533L17.307 11.6053C17.4288 11.7001 17.5 11.8457 17.5 12C17.5 12.1543 17.4288 12.3 17.307 12.3947L12.807 15.8947C12.6562 16.0119 12.4519 16.0331 12.2803 15.9492C12.1088 15.8653 12 15.691 12 15.5V8.5C12 8.30904 12.1088 8.13475 12.2803 8.05085ZM13 9.52232V14.4777L16.1856 12L13 9.52232Z" fill="#6F6F70"/>
<path fill-rule="evenodd" clip-rule="evenodd" d="M6.78032 8.05085C6.95187 7.96694 7.15623 7.98809 7.30697 8.10533L11.807 11.6053C11.9288 11.7001 12 11.8457 12 12C12 12.1543 11.9288 12.3 11.807 12.3947L7.30697 15.8947C7.15623 16.0119 6.95187 16.0331 6.78032 15.9492C6.60878 15.8653 6.5 15.691 6.5 15.5V8.5C6.5 8.30904 6.60878 8.13475 6.78032 8.05085ZM7.5 9.52232V14.4777L10.6856 12L7.5 9.52232Z" fill="#6F6F70"/>
</g>
<defs>
<clipPath id="clip0_263_20749">
<rect width="24" height="24" rx="4" fill="white"/>
</clipPath>
</defs>
</svg>
