<svg width="24" height="24" viewBox="0 0 24 24" fill="none" xmlns="http://www.w3.org/2000/svg">
<path fill-rule="evenodd" clip-rule="evenodd" d="M4.51511 9.22383C4.87204 7.05126 6.08241 5.20658 7.1466 4.25488L8.47982 5.74569C7.73163 6.41479 6.76643 7.85725 6.48866 9.54805C6.22231 11.1693 6.57871 13.0396 8.48309 14.7578L7.14333 16.2428C4.69655 14.0352 4.14677 11.4659 4.51511 9.22383Z" fill="#6F6F70"/>
<path fill-rule="evenodd" clip-rule="evenodd" d="M19.6109 9.22383C19.2539 7.05126 18.0436 5.20658 16.9794 4.25488L15.6462 5.74569C16.3943 6.41479 17.3595 7.85725 17.6373 9.54805C17.9037 11.1693 17.5473 13.0396 15.6429 14.7578L16.9826 16.2428C19.4294 14.0352 19.9792 11.4659 19.6109 9.22383Z" fill="#6F6F70"/>
<path fill-rule="evenodd" clip-rule="evenodd" d="M1.13831 9.0269C1.61669 6.08824 3.24255 3.65612 4.60571 2.29297L6.01992 3.70718C4.88307 4.84403 3.50894 6.91191 3.11232 9.34825C2.7258 11.7226 3.25038 14.5234 6.01992 17.293L4.60571 18.7072C1.37525 15.4767 0.649825 12.0276 1.13831 9.0269Z" fill="#6F6F70"/>
<path fill-rule="evenodd" clip-rule="evenodd" d="M22.9877 9.0269C22.5093 6.08824 20.8834 3.65612 19.5203 2.29297L18.1061 3.70718C19.2429 4.84403 20.617 6.91191 21.0137 9.34825C21.4002 11.7226 20.8756 14.5234 18.1061 17.293L19.5203 18.7072C22.7507 15.4767 23.4762 12.0276 22.9877 9.0269Z" fill="#6F6F70"/>
<path fill-rule="evenodd" clip-rule="evenodd" d="M12.3125 12.5C13.4171 12.5 14.3125 11.6046 14.3125 10.5C14.3125 9.39543 13.4171 8.5 12.3125 8.5C11.2079 8.5 10.3125 9.39543 10.3125 10.5C10.3125 11.6046 11.2079 12.5 12.3125 12.5ZM12.3125 14.5C14.5216 14.5 16.3125 12.7091 16.3125 10.5C16.3125 8.29086 14.5216 6.5 12.3125 6.5C10.1034 6.5 8.3125 8.29086 8.3125 10.5C8.3125 12.7091 10.1034 14.5 12.3125 14.5Z" fill="#6F6F70"/>
<path fill-rule="evenodd" clip-rule="evenodd" d="M12.3125 21.5C11.7602 21.5 11.3125 21.0523 11.3125 20.5L11.3125 14.5C11.3125 13.9477 11.7602 13.5 12.3125 13.5C12.8648 13.5 13.3125 13.9477 13.3125 14.5L13.3125 20.5C13.3125 21.0523 12.8648 21.5 12.3125 21.5Z" fill="#6F6F70"/>
</svg>
