<svg width="20" height="20" viewBox="0 0 20 20" fill="none" xmlns="http://www.w3.org/2000/svg">
<g clip-path="url(#clip0_489_24070)">
<path fill-rule="evenodd" clip-rule="evenodd" d="M15.8333 0.976562C15.4143 0.976562 14.9994 1.05908 14.6124 1.21941C14.2253 1.37974 13.8736 1.61474 13.5773 1.911L2.32735 13.161C2.2248 13.2635 2.15079 13.3911 2.11263 13.531L0.862635 18.1143C0.78395 18.4028 0.865891 18.7114 1.07735 18.9228C1.28881 19.1343 1.59736 19.2162 1.88587 19.1376L6.4692 17.8876C6.60911 17.8494 6.73665 17.7754 6.83919 17.6728L18.0892 6.42284C18.3854 6.12659 18.6204 5.77489 18.7808 5.38781C18.9411 5.00074 19.0236 4.58588 19.0236 4.16692C19.0236 3.74796 18.9411 3.3331 18.7808 2.94602C18.6204 2.55895 18.3854 2.20725 18.0892 1.911C17.7929 1.61474 17.4412 1.37974 17.0542 1.21941C16.6671 1.05908 16.2522 0.976562 15.8333 0.976562ZM15.2502 2.75921C15.435 2.68264 15.6332 2.64323 15.8333 2.64323C16.0334 2.64323 16.2315 2.68264 16.4164 2.75921C16.6012 2.83579 16.7692 2.94802 16.9107 3.08951C17.0522 3.231 17.1644 3.39897 17.241 3.58383C17.3175 3.76869 17.357 3.96682 17.357 4.16692C17.357 4.36701 17.3175 4.56515 17.241 4.75001C17.1644 4.93487 17.0522 5.10284 16.9107 5.24433L5.81717 16.3378L2.85429 17.1459L3.66235 14.183L14.7559 3.08951C14.8973 2.94802 15.0653 2.83579 15.2502 2.75921Z" fill="#6F6F70"/>
</g>
<defs>
<clipPath id="clip0_489_24070">
<rect width="20" height="20" fill="white"/>
</clipPath>
</defs>
</svg>
