<svg width="24" height="24" viewBox="0 0 24 24" fill="none" xmlns="http://www.w3.org/2000/svg">
<path d="M15.6872 13.3218L12.2933 16.7925C11.9011 17.1936 11.9018 17.8417 12.298 18.2432L15.6872 21.6782C16.6251 22.6542 18.0319 21.1898 17.0941 20.2135L15.9486 19.0253C15.6877 18.7546 15.7719 18.5354 16.1391 18.5354H23V16.4644H16.1391C15.773 16.4644 15.6877 16.2449 15.9486 15.9745L17.0941 14.7865C18.0319 13.81 16.625 12.3458 15.6872 13.3218Z" fill="#6F6F70"/>
<path fill-rule="evenodd" clip-rule="evenodd" d="M7.4465 2.43666C7.63278 2.16346 7.94206 2 8.27273 2H13.7273C14.0579 2 14.3672 2.16346 14.5535 2.43666L16.074 4.66667H20.1818C20.9221 4.66667 21.6364 4.95399 22.1666 5.47236C22.6975 5.99147 23 6.70039 23 7.44444V14.2222C23 14.7745 22.5523 15.2222 22 15.2222C21.4477 15.2222 21 14.7745 21 14.2222V7.44444C21 7.24551 20.9194 7.05005 20.7683 6.90237C20.6165 6.75394 20.406 6.66667 20.1818 6.66667H15.5455C15.2148 6.66667 14.9055 6.50321 14.7192 6.23L13.1988 4H8.80123L7.28077 6.23C7.0945 6.50321 6.78521 6.66667 6.45455 6.66667H3.81818C3.59403 6.66667 3.38345 6.75394 3.23165 6.90237C3.08061 7.05005 3 7.24551 3 7.44444V19.2222C3 19.4212 3.08061 19.6166 3.23165 19.7643C3.38345 19.9127 3.59403 20 3.81818 20H12.1818C12.7341 20 13.1818 20.4477 13.1818 21C13.1818 21.5523 12.7341 22 12.1818 22H3.81818C3.07792 22 2.36357 21.7127 1.83342 21.1943C1.3025 20.6752 1 19.9663 1 19.2222V7.44444C1 6.70039 1.3025 5.99147 1.83342 5.47236C2.36356 4.95399 3.07791 4.66667 3.81818 4.66667H5.92604L7.4465 2.43666Z" fill="#6F6F70"/>
<path fill-rule="evenodd" clip-rule="evenodd" d="M11 9C9.89543 9 9 9.89543 9 11C9 12.1046 9.89543 13 11 13C12.1046 13 13 12.1046 13 11C13 9.89543 12.1046 9 11 9ZM7 11C7 8.79086 8.79086 7 11 7C13.2091 7 15 8.79086 15 11C15 13.2091 13.2091 15 11 15C8.79086 15 7 13.2091 7 11Z" fill="#6F6F70"/>
</svg>
