<svg width="615" height="559" viewBox="0 0 615 559" fill="none" xmlns="http://www.w3.org/2000/svg">
<g clip-path="url(#clip0_1274_43934)">
<path d="M494.353 386.456H398.33L340.026 351.989L425.896 316.505L424.757 346.253L494.353 386.456Z" fill="#B3C9EA"/>
<path d="M580.697 78.0574V336.582L494.353 386.456V127.931L580.697 78.0574Z" fill="#0097EC"/>
<path d="M424.757 87.7292L494.353 127.931V386.456L424.757 346.253V87.7292Z" fill="url(#paint0_linear_1274_43934)"/>
<path d="M580.697 78.0451L494.353 127.925L424.757 87.7168L511.095 37.8367L580.697 78.0451Z" fill="url(#paint1_linear_1274_43934)"/>
<path d="M467.809 142.895V196.465L475.573 192.104V138.527L467.809 142.895Z" fill="#A5BFE7"/>
<path d="M467.938 142.895V196.465L429.75 173V119.578L467.938 142.895Z" fill="url(#paint2_linear_1274_43934)"/>
<path d="M429.75 119.578L467.938 142.895L475.573 138.527L437.133 115.062L429.75 119.578Z" fill="#ECF8FF"/>
<path d="M406.5 172.427V204.165L456.479 174.091V142.353L406.5 172.427Z" fill="#A9C4E8"/>
<path d="M395.257 165.589L406.63 172.427L456.479 142.353L444.854 135.367L395.257 165.589Z" fill="#ECF8FF"/>
<path d="M418.569 154.291H367.894V197.931H367.9C367.9 197.999 367.894 198.067 367.894 198.134C367.894 206.285 379.236 212.895 393.231 212.895C407.227 212.895 418.569 206.285 418.569 198.134C418.569 198.067 418.563 197.999 418.563 197.931H418.569V154.291Z" fill="url(#paint3_linear_1274_43934)"/>
<path d="M418.569 154.396C418.569 162.546 407.227 169.156 393.231 169.156C379.236 169.156 367.894 162.546 367.894 154.396C367.894 146.246 379.236 139.636 393.231 139.636C407.227 139.636 418.569 146.246 418.569 154.396Z" fill="#ECF8FF"/>
<path d="M414.012 107.171H372.45V152.326H372.457C372.457 152.382 372.45 152.437 372.45 152.493C372.45 159.177 381.754 164.598 393.231 164.598C404.709 164.598 414.012 159.177 414.012 152.493C414.012 152.437 414.012 152.382 414.006 152.326H414.012V107.171Z" fill="url(#paint4_linear_1274_43934)"/>
<path d="M435.311 73.505C439.042 86.2384 437.293 96.5446 431.431 103.001C431.431 103.001 327.176 204.56 326.997 204.738C321.037 210.819 322.945 200.426 310.28 197.352C284.795 191.155 258.189 165.842 250.862 140.819C247.235 128.443 235.77 131.695 241.564 125.51C241.564 125.51 343.609 20.0272 343.782 19.8547C350.013 13.6698 360.357 11.4397 373.411 14.6123C399.955 21.0683 427.669 47.4345 435.304 73.4988L435.311 73.505Z" fill="#A5BFE7"/>
<path d="M329.823 177.029C337.157 202.052 322.441 217.312 296.956 211.114C271.47 204.917 244.865 179.604 237.537 154.581C230.204 129.558 244.92 114.299 270.405 120.496C295.89 126.693 322.496 152.006 329.823 177.029Z" fill="url(#paint5_linear_1274_43934)"/>
<path style="mix-blend-mode:color-dodge" d="M271.852 118.907C259.574 115.919 249.79 117.902 243.731 123.533C249.803 119.744 258.417 118.716 268.816 121.247C294.437 127.476 321.178 152.918 328.549 178.076C332.385 191.173 330.205 201.597 323.629 207.714C332.52 202.163 335.968 190.68 331.59 175.736C324.22 150.583 297.479 125.141 271.858 118.907H271.852Z" fill="url(#paint6_radial_1274_43934)"/>
<path d="M317.108 177.177C322.465 195.455 311.715 206.599 293.101 202.071C274.487 197.543 255.061 179.062 249.704 160.784C244.347 142.507 255.098 131.363 273.712 135.891C292.325 140.418 311.751 158.906 317.108 177.177Z" fill="url(#paint7_linear_1274_43934)"/>
<path d="M311.136 175.729C315.544 190.767 306.696 199.939 291.383 196.212C276.07 192.485 260.079 177.276 255.671 162.238C251.262 147.201 260.11 138.028 275.423 141.755C290.737 145.482 306.727 160.692 311.136 175.729Z" fill="url(#paint8_linear_1274_43934)"/>
<path d="M301.893 173.481C304.831 183.504 298.932 189.621 288.723 187.138C278.514 184.656 267.856 174.516 264.919 164.487C261.982 154.464 267.88 148.347 278.089 150.829C288.298 153.312 298.956 163.452 301.893 173.481Z" fill="url(#paint9_linear_1274_43934)"/>
<path d="M290.336 170.666C291.438 174.423 289.228 176.715 285.398 175.785C281.568 174.855 277.572 171.054 276.47 167.29C275.368 163.532 277.578 161.234 281.408 162.17C285.238 163.101 289.234 166.902 290.336 170.666Z" fill="#43E8E1"/>
<path style="mix-blend-mode:multiply" d="M436.025 78.4579L318.845 155.45C306.93 138.823 288.415 124.876 270.399 120.496C252.272 116.085 239.643 122.572 236.472 135.675L278.933 153.54L332.237 196.502L436.025 78.4579Z" fill="url(#paint10_linear_1274_43934)"/>
<path style="mix-blend-mode:screen" d="M287.017 168.836C288.766 174.805 285.256 178.44 279.179 176.961C273.102 175.483 266.76 169.446 265.011 163.483C263.262 157.513 266.772 153.879 272.849 155.357C278.927 156.836 285.269 162.873 287.017 168.836Z" fill="url(#paint11_linear_1274_43934)"/>
<path d="M447.908 68.9525C439.177 39.1612 407.504 9.02488 377.161 1.64481C362.242 -1.98362 350.419 0.566755 343.295 7.6388C343.098 7.83594 226.454 128.4 226.454 128.4C225.426 129.502 224.915 130.322 224.73 131.005C231.171 122.313 243.417 118.777 259.414 122.664C284.61 128.794 310.76 151.261 322.785 175.729L447.902 68.9525H447.908Z" fill="url(#paint12_linear_1274_43934)"/>
<path d="M230.142 133.47C236.256 126.508 246.97 123.816 260.738 127.168C282.917 132.564 305.865 151.84 317.33 173.234L322.755 175.705C310.723 151.248 284.61 128.788 259.42 122.658C243.424 118.765 231.177 122.307 224.736 130.999L230.142 133.463V133.47Z" fill="url(#paint13_linear_1274_43934)"/>
<path style="mix-blend-mode:color-dodge" d="M320.021 174.466L322.748 175.711L324.737 174.177C312.644 149.591 286.389 127.007 261.07 120.847C247.032 117.434 235.85 119.695 228.929 126.133C235.869 121.802 245.714 120.625 257.598 123.514C282.098 129.472 307.441 150.811 320.021 174.46V174.466Z" fill="url(#paint14_radial_1274_43934)"/>
<path d="M0.012145 365.646C0.0860329 367.174 0.529361 368.695 1.33597 370.168C2.67211 372.595 4.99958 374.874 8.32454 376.796L267.234 526.35C278.342 532.763 296.352 532.763 307.46 526.35L404.604 470.236C407.929 468.314 410.256 466.035 411.593 463.614C412.177 462.56 412.565 461.47 412.775 460.373C413.655 455.605 410.934 450.652 404.604 446.999L145.695 297.445C134.587 291.026 116.577 291.026 105.469 297.445L8.33069 353.553C2.99229 356.633 0.221494 360.644 0.012145 364.679V364.691C-0.00632698 365.011 -0.00632698 365.326 0.012145 365.64V365.646Z" fill="#B3C9EA"/>
<path d="M21.8093 344.282V354.28C22.0125 358.321 24.7833 362.332 30.1217 365.418L289.025 514.972C295.164 518.514 303.402 520.104 311.413 519.728C317.928 519.432 324.282 517.843 329.257 514.972L426.401 458.858C431.185 456.104 433.907 452.599 434.566 449.001V439.003C434.363 440.1 433.975 441.19 433.39 442.25C432.054 444.671 429.726 446.95 426.401 448.872L329.257 504.986C322.047 509.151 311.93 510.604 302.682 509.366C297.676 508.701 292.929 507.241 289.031 504.986L30.1217 355.42C26.7968 353.498 24.4693 351.231 23.1332 348.797C22.3265 347.325 21.8709 345.804 21.8093 344.282Z" fill="#0097EC"/>
<path d="M288.914 515.169L30.0046 365.615C24.7832 362.597 21.7908 358.574 21.5691 354.28V344.276L22.0309 344.263C22.0986 345.754 22.5358 347.245 23.3301 348.68C24.697 351.157 27.0183 353.362 30.2325 355.217L289.142 504.771C300.17 511.14 318.112 511.14 329.14 504.771L426.284 448.656C429.455 446.827 431.838 444.566 433.186 442.12C433.747 441.104 434.135 440.038 434.338 438.948L434.8 438.991V449.026C434.098 452.808 431.155 456.369 426.512 459.049L329.368 515.163C323.789 518.385 316.462 519.993 309.141 519.993C301.814 519.993 294.486 518.385 288.914 515.163V515.169ZM433.593 442.354C432.183 444.905 429.806 447.166 426.518 449.063L329.374 505.177C318.217 511.615 300.071 511.615 288.914 505.177L30.0046 355.623C26.7166 353.72 24.3337 351.465 22.9299 348.908C22.5543 348.231 22.2587 347.541 22.037 346.845V354.274C22.2464 358.395 25.1588 362.282 30.2386 365.215L289.148 514.769C300.176 521.133 318.118 521.139 329.146 514.769L426.29 458.655C430.81 456.043 433.673 452.599 434.344 448.995V440.722C434.141 441.276 433.895 441.825 433.599 442.354H433.593Z" fill="#0097EC"/>
<path d="M21.803 344.276C21.8769 345.804 22.3202 347.325 23.1268 348.797C24.4629 351.225 26.7904 353.504 30.1154 355.426L289.025 504.98C300.133 511.393 318.143 511.393 329.251 504.98L426.395 448.866C429.72 446.944 432.047 444.664 433.383 442.243C433.968 441.19 434.356 440.1 434.566 439.003C435.446 434.235 432.725 429.282 426.395 425.629L167.485 276.075C156.378 269.656 138.367 269.656 127.26 276.075L30.1154 332.189C24.777 335.269 22.0062 339.28 21.7968 343.315V343.327C21.7783 343.647 21.7783 343.962 21.7968 344.276H21.803Z" fill="#413C57"/>
<path d="M127.383 276.272L30.2386 332.386C25.1588 335.319 22.2464 339.206 22.037 343.339C22.0186 343.647 22.0186 343.962 22.037 344.263C22.1048 345.76 22.5419 347.245 23.3362 348.687C24.7032 351.163 27.0245 353.368 30.2386 355.223L289.148 504.777C300.176 511.147 318.118 511.147 329.146 504.777L426.29 448.662C429.461 446.833 431.844 444.572 433.193 442.126C433.753 441.11 434.141 440.044 434.344 438.96C435.243 434.087 432.306 429.307 426.284 425.832L167.375 276.278C161.864 273.093 154.617 271.498 147.376 271.498C140.135 271.498 132.894 273.093 127.377 276.278L127.383 276.272Z" fill="url(#paint15_linear_1274_43934)"/>
<path d="M326.905 503.619L424.049 447.504C435.157 441.085 435.157 430.687 424.049 424.268L169.85 277.436C158.742 271.017 140.732 271.017 129.624 277.436L32.4798 333.551C21.372 339.97 21.372 350.368 32.4798 356.787L286.679 503.619C297.787 510.038 315.797 510.038 326.905 503.619Z" fill="#ECF8FF"/>
<path d="M307.571 499.947L417.694 436.336C424.511 432.399 424.511 426.017 417.694 422.081L174.905 281.841C168.089 277.904 157.043 277.904 150.226 281.841L40.1026 345.452C33.2864 349.389 33.2864 355.771 40.1026 359.707L282.892 499.947C289.708 503.884 300.755 503.884 307.571 499.947Z" fill="url(#paint16_linear_1274_43934)"/>
<path d="M117.353 411.202L119.064 410.21L100.235 399.337L98.5234 400.322L117.353 411.202Z" fill="#3F3A54"/>
<path d="M119.064 412.588V410.21L117.353 411.202V413.579L119.064 412.588Z" fill="#2C293B"/>
<path d="M117.353 413.579V411.202L98.5234 400.322V402.7L117.353 413.579Z" fill="#575757"/>
<path d="M373.891 486.284L383.121 480.955C384.119 480.376 384.931 479.008 384.931 477.899C384.931 476.791 384.119 476.353 383.121 476.932L373.891 482.261C372.894 482.84 372.081 484.208 372.081 485.316C372.081 486.425 372.894 486.863 373.891 486.284Z" fill="#161326"/>
<path d="M417.387 459.129C417.387 460.792 418.6 461.439 420.096 460.577C421.592 459.714 422.805 457.663 422.805 455.999C422.805 454.336 421.592 453.689 420.096 454.552C418.6 455.414 417.387 457.466 417.387 459.129Z" fill="#161326"/>
<path d="M347.827 501.456C348.185 501.247 348.48 500.754 348.48 500.354V497.249C348.48 496.849 348.185 496.694 347.827 496.898C347.47 497.107 347.175 497.6 347.175 498.001V501.105C347.175 501.506 347.47 501.66 347.827 501.456Z" fill="#161326"/>
<path d="M345.217 502.966C345.574 502.756 345.869 502.263 345.869 501.863V498.758C345.869 498.358 345.574 498.204 345.217 498.413C344.86 498.623 344.564 499.115 344.564 499.516V502.621C344.564 503.021 344.86 503.175 345.217 502.972V502.966Z" fill="#161326"/>
<path d="M342.612 504.469C342.969 504.259 343.265 503.767 343.265 503.366V500.261C343.265 499.861 342.969 499.707 342.612 499.91C342.255 500.12 341.959 500.612 341.959 501.013V504.118C341.959 504.518 342.255 504.672 342.612 504.463V504.469Z" fill="#161326"/>
<path d="M340.002 505.978C340.359 505.769 340.654 505.276 340.654 504.875V501.771C340.654 501.37 340.359 501.216 340.002 501.419C339.644 501.629 339.349 502.122 339.349 502.522V505.627C339.349 506.027 339.644 506.181 340.002 505.978Z" fill="#161326"/>
<path d="M337.397 507.481C337.754 507.272 338.05 506.779 338.05 506.379V503.274C338.05 502.873 337.754 502.719 337.397 502.923C337.04 503.132 336.744 503.625 336.744 504.025V507.13C336.744 507.53 337.04 507.685 337.397 507.481Z" fill="#161326"/>
<path d="M334.786 508.991C335.143 508.781 335.439 508.288 335.439 507.888V504.783C335.439 504.383 335.143 504.229 334.786 504.432C334.429 504.641 334.134 505.134 334.134 505.535V508.639C334.134 509.04 334.429 509.194 334.786 508.991Z" fill="#161326"/>
<path d="M356.675 495.093C357.039 494.883 357.34 494.378 357.34 493.972C357.34 493.565 357.045 493.405 356.675 493.62C356.312 493.83 356.01 494.335 356.01 494.742C356.01 495.148 356.306 495.308 356.675 495.093Z" fill="#161326"/>
<path d="M247.512 352.475L274.765 368.221L291.476 358.562L264.229 342.822L247.512 352.475Z" fill="#ECF8FF"/>
<g style="mix-blend-mode:multiply">
<path d="M302.294 387.028H282.184L269.968 379.809L287.72 372.478V378.607L302.294 387.028Z" fill="#BDB0AA"/>
</g>
<path d="M320.378 350.257V376.581L302.294 387.028V360.699L320.378 350.257Z" fill="#A9C4E8"/>
<path d="M287.719 352.278L302.294 360.699V387.028L287.719 378.607V352.278Z" fill="url(#paint17_linear_1274_43934)"/>
<path d="M320.378 350.251L302.294 360.699L287.719 352.278L305.804 341.83L320.378 350.251Z" fill="#ECF8FF"/>
<g style="mix-blend-mode:multiply">
<path d="M331.449 403.871H311.339L299.123 396.651L316.874 389.314V395.45L331.449 403.871Z" fill="#BDB0AA"/>
</g>
<path d="M349.533 339.274V393.423L331.449 403.871V349.722L349.533 339.274Z" fill="#A9C4E8"/>
<path d="M316.875 341.3L331.449 349.722V403.871L316.875 395.45V341.3Z" fill="url(#paint18_linear_1274_43934)"/>
<path d="M349.533 339.274L331.449 349.715L316.875 341.294L334.959 330.852L349.533 339.274Z" fill="#ECF8FF"/>
<g style="mix-blend-mode:multiply">
<path d="M161.279 312.852H141.163L128.953 305.638L146.698 298.301V304.437L161.279 312.852Z" fill="#BDB0AA"/>
</g>
<path d="M179.363 248.261V302.41L161.279 312.852V258.709L179.363 248.261Z" fill="#A9C4E8"/>
<path d="M146.698 250.288L161.279 258.709V312.852L146.698 304.437V250.288Z" fill="url(#paint19_linear_1274_43934)"/>
<path d="M179.363 248.255L161.279 258.703L146.698 250.282L164.782 239.834L179.363 248.255Z" fill="#ECF8FF"/>
<g style="mix-blend-mode:multiply">
<path d="M360.604 420.707H340.494L328.278 413.493L346.27 406.058L346.029 412.292L360.604 420.707Z" fill="#BDB0AA"/>
</g>
<path d="M378.688 356.116V410.265L360.604 420.707V366.564L378.688 356.116Z" fill="#A9C4E8"/>
<path d="M346.029 358.143L360.604 366.564V420.707L346.029 412.292V358.143Z" fill="url(#paint20_linear_1274_43934)"/>
<path d="M378.688 356.11L360.604 366.558L346.029 358.137L364.113 347.689L378.688 356.11Z" fill="#ECF8FF"/>
<path d="M293.304 457.318L320.557 473.058L337.274 463.404L310.021 447.665L293.304 457.318Z" fill="#ECF8FF"/>
<path d="M175.97 412.779L203.223 428.518L219.94 418.865L192.687 403.119L175.97 412.779Z" fill="#ECF8FF"/>
<path d="M106.873 320.343L134.125 336.083L150.842 326.429L123.59 310.69L106.873 320.343Z" fill="#ECF8FF"/>
<path d="M97.3596 369.816L124.612 385.556L141.329 375.903L114.077 360.157L97.3596 369.816Z" fill="#ECF8FF"/>
<g style="mix-blend-mode:multiply">
<path d="M88.5545 365.418H68.4447L56.2285 358.204L73.9801 350.867V357.003L88.5545 365.418Z" fill="#BDB0AA"/>
</g>
<path d="M106.639 328.647V354.976L88.5544 365.418V339.095L106.639 328.647Z" fill="#A9C4E8"/>
<path d="M73.98 330.674L88.5544 339.095V365.418L73.98 357.003V330.674Z" fill="url(#paint21_linear_1274_43934)"/>
<path d="M106.638 328.647L88.5544 339.095L73.98 330.674L92.0641 320.226L106.638 328.647Z" fill="#ECF8FF"/>
<path d="M137.308 391.679L164.561 407.419L181.272 397.766L154.025 382.026L137.308 391.679Z" fill="#ECF8FF"/>
<g style="mix-blend-mode:multiply">
<path d="M281.279 391.513L242.285 414.313L231.109 416.136L199.362 401.062L130.665 402.602L91.1777 379.445L129.569 357.342L153.773 351.292L261.403 378.607L281.279 391.513Z" fill="#BDB0AA"/>
</g>
<path d="M153.293 357.958L155.934 356.436L156.008 356.264L156.815 355.518L159.198 354.138L159.69 353.991L158.237 353.375L156.63 353.214L155.245 353.639L154.186 354.625L153.521 356.097L153.293 357.958Z" fill="#A0392E"/>
<path d="M220.537 396.805L223.141 395.296L223.234 395.092L224.04 394.347L226.423 392.973L226.91 392.825L225.481 392.215L223.874 392.055L222.495 392.48L221.43 393.466L220.765 394.938L220.537 396.805Z" fill="#A0392E"/>
<path d="M222.199 393.891C222.199 393.891 227.273 401.511 230.37 403.298C231.448 403.92 230.752 406.052 230.752 406.052C230.752 406.052 234.305 404 234.699 403.748C235.493 403.236 235.973 402.275 235.973 400.926C235.973 397.828 233.467 393.866 230.37 392.08C228.646 391.082 227.101 390.971 226.072 391.606C225.26 392.111 222.199 393.885 222.199 393.885V393.891Z" fill="#333332"/>
<path d="M220.925 396.706C220.925 399.805 223.431 403.76 226.528 405.553C229.625 407.339 232.131 406.279 232.131 403.181C232.131 400.082 229.619 396.127 226.528 394.335C223.431 392.548 220.925 393.608 220.925 396.706Z" fill="url(#paint22_linear_1274_43934)"/>
<path d="M223.277 398.062C223.277 399.86 224.736 402.158 226.534 403.199C228.332 404.24 229.785 403.624 229.785 401.826C229.785 400.027 228.326 397.729 226.534 396.688C224.736 395.653 223.277 396.263 223.277 398.062Z" fill="url(#paint23_linear_1274_43934)"/>
<path d="M223.732 398.326C223.732 398.517 223.751 398.715 223.788 398.918C224.046 400.347 225.173 401.961 226.528 402.737C228.073 403.63 229.323 403.101 229.323 401.561C229.323 400.778 228.997 399.879 228.48 399.072C227.981 398.289 227.291 397.581 226.528 397.144C224.989 396.25 223.732 396.786 223.732 398.326Z" fill="url(#paint24_linear_1274_43934)"/>
<path d="M223.732 398.326C223.732 398.517 223.751 398.715 223.788 398.918C224.046 400.347 225.173 401.961 226.528 402.737C228.073 403.63 229.323 403.101 229.323 401.561C229.323 400.778 228.997 399.879 228.48 399.072C227.981 398.289 227.291 397.581 226.528 397.144C224.989 396.25 223.732 396.786 223.732 398.326Z" fill="url(#paint25_linear_1274_43934)"/>
<path d="M223.794 398.918C224.053 400.347 225.18 401.961 226.534 402.737C228.08 403.631 229.33 403.101 229.33 401.561C229.33 400.778 229.003 399.879 228.486 399.072C226.947 398.696 225.284 398.622 223.8 398.918H223.794Z" fill="url(#paint26_linear_1274_43934)"/>
<path d="M225.925 398.653C225.925 398.739 225.931 398.832 225.949 398.918C226.066 399.565 226.577 400.298 227.193 400.655C227.895 401.062 228.461 400.821 228.461 400.119C228.461 399.762 228.314 399.355 228.08 398.992C227.852 398.634 227.538 398.314 227.193 398.117C226.491 397.71 225.925 397.957 225.925 398.653Z" fill="url(#paint27_linear_1274_43934)"/>
<path d="M155.109 355.063C155.109 355.063 160.183 362.683 163.28 364.469C164.357 365.092 163.662 367.223 163.662 367.223C163.662 367.223 167.214 365.172 167.608 364.919C168.403 364.408 168.883 363.447 168.883 362.098C168.883 358.999 166.377 355.038 163.28 353.251C161.556 352.253 160.01 352.143 158.982 352.777C158.169 353.282 155.109 355.056 155.109 355.056V355.063Z" fill="#333332"/>
<path d="M153.834 357.878C153.834 360.976 156.341 364.931 159.438 366.724C162.535 368.51 165.041 367.451 165.041 364.352C165.041 361.254 162.529 357.299 159.438 355.506C156.341 353.72 153.834 354.779 153.834 357.878Z" fill="url(#paint28_linear_1274_43934)"/>
<path d="M156.187 359.233C156.187 361.032 157.646 363.33 159.444 364.371C161.242 365.412 162.695 364.796 162.695 362.997C162.695 361.198 161.236 358.9 159.444 357.859C157.646 356.824 156.187 357.434 156.187 359.233Z" fill="url(#paint29_linear_1274_43934)"/>
<path d="M156.642 359.498C156.642 359.689 156.661 359.886 156.698 360.089C156.956 361.519 158.083 363.133 159.438 363.909C160.983 364.802 162.233 364.272 162.233 362.732C162.233 361.95 161.907 361.05 161.389 360.243C160.891 359.461 160.201 358.753 159.438 358.315C157.898 357.422 156.642 357.958 156.642 359.498Z" fill="url(#paint30_linear_1274_43934)"/>
<path d="M156.642 359.498C156.642 359.689 156.661 359.886 156.698 360.089C156.956 361.519 158.083 363.133 159.438 363.909C160.983 364.802 162.233 364.272 162.233 362.732C162.233 361.95 161.907 361.05 161.389 360.243C160.891 359.461 160.201 358.753 159.438 358.315C157.898 357.422 156.642 357.958 156.642 359.498Z" fill="url(#paint31_linear_1274_43934)"/>
<path d="M156.698 360.089C156.956 361.519 158.083 363.133 159.438 363.909C160.983 364.802 162.233 364.272 162.233 362.732C162.233 361.95 161.907 361.05 161.389 360.243C159.85 359.868 158.188 359.794 156.704 360.089H156.698Z" fill="url(#paint32_linear_1274_43934)"/>
<path d="M158.834 359.824C158.834 359.911 158.84 360.003 158.859 360.089C158.976 360.736 159.487 361.469 160.103 361.827C160.805 362.233 161.371 361.993 161.371 361.291C161.371 360.933 161.223 360.527 160.989 360.163C160.761 359.806 160.447 359.486 160.103 359.288C159.401 358.882 158.834 359.128 158.834 359.824Z" fill="url(#paint33_linear_1274_43934)"/>
<path d="M203.611 302.755L204.497 303.137L202.73 300.168L202.558 300.987L203.611 302.755Z" fill="#B73A5D"/>
<path d="M198.918 305.792L199.479 306.033L200.815 300.42L199.934 300.039L198.808 304.757L198.918 305.792Z" fill="#B73A5D"/>
<path d="M206.634 301.898L206.781 301.812L206.664 301.634L206.634 301.898Z" fill="#FDFDFD"/>
<path d="M210.845 298.572L211.732 298.954L211.159 297.236L210.525 297.605L210.845 298.572Z" fill="#B73A5D"/>
<path d="M204.805 292.578L202.533 293.891L203.42 294.272L205.692 292.954L204.805 292.578Z" fill="#EF895D"/>
<path d="M200.076 295.307L197.804 296.626L198.691 297.001L200.963 295.689L200.076 295.307Z" fill="#EF895D"/>
<path d="M162.886 301.646L200.421 317.731L239.705 295.036L219.724 286.48L219.755 286.745L217.169 285.426L217.224 285.402L202.182 278.958L162.886 301.646Z" fill="url(#paint34_linear_1274_43934)"/>
<path d="M157.511 343.561L149.992 347.904L156.655 350.27L157.511 343.561Z" fill="url(#paint35_linear_1274_43934)"/>
<path d="M149.555 349.974L149.752 350.091L151.581 351.145L153.404 352.204L155.232 353.258L155.669 353.51L156.63 353.214L157.012 353.251L158.237 353.375L158.834 353.627L159.69 353.991L159.807 354.04H159.813L159.838 354.052L159.961 354.108L160.121 354.225H160.127L160.497 354.496L160.663 354.619L161.5 355.229L161.691 355.364L162.492 356.214L162.59 356.313L163.298 357.065L163.705 357.662L164.259 358.469L164.265 358.475L166.094 359.535L167.922 360.588L169.751 361.642L171.525 362.67L173.353 363.724L175.182 364.784L177.011 365.837L178.784 366.86L180.613 367.919L182.441 368.973L184.27 370.032L186.043 371.055L187.872 372.108L189.701 373.168L191.53 374.221L193.303 375.25L195.132 376.303L196.96 377.357L198.783 378.416L200.562 379.439L202.391 380.498L204.214 381.552L206.042 382.605L207.822 383.634L209.645 384.688L211.473 385.747L213.302 386.8L215.075 387.823L216.904 388.883L218.733 389.936L220.561 390.996L222.335 392.018L222.914 392.351L223.874 392.055L224.164 392.086L225.481 392.215L225.992 392.431L226.91 392.825L227.051 392.881L227.057 392.887L227.211 392.948L227.365 393.066L227.729 393.324L227.821 393.398L228.732 394.057L228.935 394.211L229.594 394.907L229.822 395.142L230.543 395.912L230.943 396.491L231.423 397.193L231.503 397.316L233.252 398.32L235.08 399.38L236.854 400.402L238.682 401.462L240.511 402.515L242.34 403.569L242.525 403.68V399.873L242.285 399.706L240.511 398.468L238.682 397.187L236.854 395.912L236.386 395.585L215.014 380.64L167.922 356.141L166.094 355.186L164.265 354.237L162.442 353.282L160.663 352.358L158.834 351.409L157.012 350.461L156.655 350.27L155.183 349.752L153.404 349.118L151.581 348.471L149.992 347.904L149.906 348.323L149.777 348.915L149.752 349.05L149.555 349.974Z" fill="#FC5D47"/>
<path d="M231.503 397.316L231.928 397.932L231.971 398.031L232.778 399.706L232.987 400.138L233.35 401.37L233.652 402.386L233.707 402.879L233.8 403.735L233.837 404.117L233.88 404.511L234.231 404.715L234.268 404.733L242.519 409.501H242.525V403.68L231.503 397.316Z" fill="#FC5D47"/>
<path d="M164.259 358.469L164.678 359.091L164.739 359.208L165.54 360.884L165.743 361.297L166.112 362.547L166.408 363.539L166.463 364.05V364.057L166.593 365.295L166.636 365.664L167.042 365.899L220.537 396.805L220.728 395.24L220.765 394.938L221.43 393.466L222.495 392.48L222.914 392.351L164.259 358.469Z" fill="#FC5D47"/>
<path d="M149.358 350.874V355.691H149.364L153.293 357.958L153.336 357.594L153.521 356.097L154.185 354.625L155.245 353.639L155.669 353.51L149.555 349.974L149.358 350.874Z" fill="#FC5D47"/>
<path d="M215.014 380.64L242.525 399.873L281.815 377.178L254.304 357.946L215.014 380.64Z" fill="url(#paint36_linear_1274_43934)"/>
<path d="M235.906 374.332L243.848 379.889L255.196 373.334L247.247 367.777L235.906 374.332Z" fill="#FC5D47"/>
<path d="M243.35 408.078L280.996 386.332V378.607L243.35 400.353V408.078ZM242.525 399.879L281.815 377.184V386.813L242.525 409.507V399.879Z" fill="#FF9400"/>
<path d="M149.777 348.915L147.874 350.017L149.358 350.873L149.777 348.915Z" fill="#FF426B"/>
<path d="M147.874 350.017V354.828L149.358 355.691V350.874L147.874 350.017Z" fill="#D60B4A"/>
<path d="M163.902 303.421L157.979 349.635L213.487 378.521L199.608 318.717L163.902 303.421ZM157.517 343.561L162.892 301.653L200.421 317.731L215.02 380.64L156.661 350.27L157.523 343.561H157.517Z" fill="#FC5D47"/>
<path d="M215.79 378.607L252.881 357.182L238.935 297.075L201.843 318.501L215.79 378.607ZM239.711 295.036L254.31 357.946L215.02 380.64L200.421 317.731L239.711 295.036Z" fill="url(#paint37_linear_1274_43934)"/>
<path d="M280.99 378.607L243.35 400.353V408.078L280.99 386.332V378.607Z" fill="#ED3A78"/>
<path d="M201.843 318.501L215.79 378.607L243.208 362.769L245.142 361.648L248.707 359.59L252.875 357.182L248.768 339.465L238.935 297.075L227.956 303.408L219.207 308.472L215.642 310.523L213.702 311.645L201.843 318.501Z" fill="#676764"/>
<path d="M157.972 349.635L182.743 362.523L184.049 363.206L213.487 378.521L199.608 318.717L184.049 312.051L182.743 311.491L163.902 303.421L157.972 349.635Z" fill="#334449"/>
<path d="M182.743 310.721V362.523L184.049 363.207V310.721H182.743Z" fill="#FC5D47"/>
<path d="M275.097 385.821C275.097 387.269 276.156 387.835 277.461 387.084C278.133 386.696 278.736 386.043 279.161 385.297C279.567 384.589 279.82 383.8 279.82 383.098C279.82 381.651 278.761 381.084 277.455 381.835C276.858 382.18 276.31 382.747 275.891 383.394C275.399 384.158 275.091 385.039 275.091 385.827L275.097 385.821Z" fill="#F3D95F"/>
<path d="M255.535 396.639L269.734 388.433V386.69L255.535 394.889V396.639Z" fill="#A62954"/>
<path d="M255.535 399.078L269.734 390.872V389.129L255.535 397.328V399.078Z" fill="#A62954"/>
<path d="M280.99 386.332C280.99 386.332 280.657 379.236 275.891 382.217C271.132 385.199 243.344 401.456 243.344 401.456V400.347L280.99 378.601V386.326V386.332Z" fill="#9E2750"/>
<path d="M274.623 386.148C274.623 387.891 275.891 388.568 277.461 387.663C279.031 386.757 280.3 384.614 280.3 382.87C280.3 381.127 279.031 380.449 277.461 381.355C275.891 382.26 274.623 384.404 274.623 386.148Z" fill="#FCFAF2"/>
<path d="M275.097 385.821C275.097 387.269 276.156 387.835 277.461 387.084C278.133 386.696 278.736 386.043 279.161 385.297C279.567 384.589 279.82 383.8 279.82 383.098C279.82 381.65 278.761 381.084 277.455 381.835C276.858 382.18 276.31 382.747 275.891 383.394C275.399 384.158 275.091 385.039 275.091 385.827L275.097 385.821Z" fill="url(#paint38_linear_1274_43934)"/>
<path d="M275.897 383.388C276.359 384.453 276.415 384.244 277.862 384.404C279.068 384.54 279.087 385.076 279.167 385.285C279.573 384.577 279.826 383.788 279.826 383.086C279.826 381.638 278.767 381.071 277.461 381.823C276.864 382.168 276.316 382.735 275.897 383.382V383.388Z" fill="#FFE985"/>
<path d="M244.273 403.791C244.273 405.534 245.542 406.212 247.112 405.306C248.682 404.401 249.95 402.257 249.95 400.513C249.95 398.77 248.682 398.092 247.112 398.998C245.542 399.903 244.273 402.047 244.273 403.791Z" fill="#FCFAF2"/>
<path d="M244.748 403.464C244.748 404.912 245.807 405.479 247.112 404.727C247.783 404.339 248.387 403.686 248.811 402.941C249.218 402.232 249.47 401.444 249.47 400.741C249.47 399.294 248.411 398.727 247.106 399.478C246.509 399.823 245.961 400.39 245.542 401.037C245.049 401.801 244.741 402.682 244.741 403.47L244.748 403.464Z" fill="url(#paint39_linear_1274_43934)"/>
<path d="M245.548 401.031C246.01 402.097 246.065 401.887 247.512 402.047C248.719 402.183 248.738 402.719 248.818 402.928C249.224 402.22 249.476 401.431 249.476 400.729C249.476 399.281 248.417 398.715 247.112 399.466C246.515 399.811 245.967 400.378 245.548 401.025V401.031Z" fill="#FFE985"/>
<path d="M242.525 399.873L242.272 399.731L156.655 350.27L215.014 380.64L242.525 399.873Z" fill="#D44431"/>
<path d="M242.519 409.501C242.358 409.397 238.935 407.111 233.8 403.741L233.843 404.117L233.886 404.511L242.525 409.501H242.519Z" fill="url(#paint40_linear_1274_43934)"/>
<path d="M166.463 364.05L166.592 365.295L166.629 365.664L167.036 365.899L220.531 396.799L220.722 395.234C211.492 389.295 201.154 382.778 193.58 378.41C185.415 373.698 175.077 368.363 166.457 364.044L166.463 364.05Z" fill="url(#paint41_linear_1274_43934)"/>
<path d="M149.364 355.691L153.293 357.958L153.336 357.594C150.928 356.43 149.457 355.734 149.364 355.691Z" fill="url(#paint42_linear_1274_43934)"/>
<path d="M276.439 383.579C276.624 383.899 277.338 383.837 278.028 383.437C278.718 383.037 279.13 382.451 278.945 382.125C278.761 381.804 278.046 381.866 277.357 382.267C276.667 382.667 276.255 383.252 276.439 383.579Z" fill="#FFF2B8"/>
<path d="M277.628 382.741C277.695 382.852 277.942 382.833 278.182 382.692C278.422 382.55 278.564 382.347 278.502 382.236C278.434 382.125 278.188 382.143 277.948 382.285C277.708 382.427 277.566 382.63 277.628 382.741Z" fill="white"/>
<path d="M246.256 401.037C246.441 401.357 247.155 401.296 247.845 400.895C248.534 400.495 248.947 399.91 248.762 399.583C248.577 399.263 247.863 399.324 247.173 399.725C246.484 400.125 246.071 400.711 246.256 401.037Z" fill="#FFF2B8"/>
<path opacity="0.3" d="M245.659 404.524C245.782 404.795 246.349 404.795 246.927 404.524C247.5 404.259 247.869 403.821 247.74 403.55C247.617 403.279 247.05 403.279 246.472 403.55C245.899 403.815 245.53 404.253 245.659 404.524Z" fill="#FFF2B8"/>
<path d="M247.445 400.199C247.512 400.31 247.759 400.292 247.999 400.15C248.239 400.008 248.38 399.805 248.319 399.694C248.251 399.583 248.005 399.602 247.765 399.743C247.525 399.885 247.383 400.088 247.445 400.199Z" fill="white"/>
<path opacity="0.3" d="M276.002 386.751C276.125 387.022 276.692 387.022 277.271 386.751C277.843 386.486 278.213 386.049 278.083 385.778C277.96 385.507 277.394 385.507 276.815 385.778C276.242 386.043 275.873 386.48 276.002 386.751Z" fill="#FFF2B8"/>
<path d="M213.942 370.654L215.79 378.607L252.875 357.182L251.145 349.722L228.08 362.701C228.19 362.147 228.258 361.605 228.258 361.075C228.258 359.369 227.649 358.081 226.553 357.447C225.401 356.781 223.874 356.923 222.273 357.847C219.207 359.615 216.713 363.835 216.713 367.248C216.713 367.882 216.799 368.455 216.959 368.96L213.949 370.654H213.942ZM227.058 363.274L217.741 368.517C217.637 368.135 217.569 367.722 217.569 367.248C217.569 364.112 219.866 360.231 222.698 358.599C223.505 358.13 224.268 357.896 224.939 357.896C225.377 357.896 225.771 357.995 226.115 358.192C226.941 358.666 227.39 359.689 227.39 361.075C227.39 361.783 227.267 362.523 227.058 363.274Z" fill="#5B5B59"/>
<path d="M219.207 308.472L248.707 359.59L252.875 357.182L248.768 339.465L227.957 303.408L219.207 308.472Z" fill="#BDB0AA"/>
<path d="M213.702 311.645L243.208 362.769L245.142 361.648L215.642 310.523L213.702 311.645Z" fill="#BDB0AA"/>
<g style="mix-blend-mode:multiply">
<path d="M301.296 484.811H280.577L213.881 446.469L232.267 437.833V444.935L301.296 484.811Z" fill="#AAB3BD"/>
</g>
<path d="M232.267 421.298L301.296 461.174L310.883 455.636L241.854 415.766L232.267 421.298Z" fill="#ECF8FF"/>
<path d="M232.267 421.298V444.935L301.296 484.811V461.174L232.267 421.298Z" fill="url(#paint43_linear_1274_43934)"/>
<path d="M310.883 455.636V479.273L301.296 484.811V461.174L310.883 455.636Z" fill="#A9C4E8"/>
<path d="M368.005 423.029L395.257 438.769L411.968 429.116L384.716 413.376L368.005 423.029Z" fill="#ECF8FF"/>
<path d="M251.502 345.884L255.424 347.904L256.902 353.627L254.304 357.945L251.502 345.884Z" fill="url(#paint44_linear_1274_43934)"/>
<path d="M212.212 368.578L209.318 373.845L210.765 379.519L215.014 380.64L212.212 368.578Z" fill="url(#paint45_linear_1274_43934)"/>
<path d="M209.318 373.845L208.604 373.624L211.092 368.221L212.212 368.578L209.318 373.845Z" fill="#FC5D47"/>
<path d="M210.765 379.519L209.94 379.211L208.604 373.624L209.318 373.845L210.765 379.519Z" fill="#FC5D47"/>
<path d="M122.444 105.606V190.243L17.7822 250.707V166.064L122.444 105.606Z" fill="#0097EC"/>
<path d="M17.7822 166.064L5.83081 159.195L6.10173 243.653L17.7822 250.707V166.064Z" fill="url(#paint46_linear_1274_43934)"/>
<path d="M17.7822 166.064L5.83081 159.195L111.183 99.6617L122.444 105.606L17.7822 166.064Z" fill="url(#paint47_linear_1274_43934)"/>
<path opacity="0.2" d="M108.997 128.209V191.364L76.1907 210.313V147.158L108.997 128.209Z" fill="#1C1C1B"/>
<path opacity="0.2" d="M66.8993 152.548V215.704L34.093 234.653V171.491L66.8993 152.548Z" fill="#1C1C1B"/>
<path d="M111.183 124.925V188.087L78.3765 207.03V143.874L111.183 124.925Z" fill="white"/>
<path d="M69.085 149.265V212.42L36.2849 231.369V168.214L69.085 149.265Z" fill="white"/>
<path d="M100.278 162.503C100.278 162.503 102.451 166.785 101.965 172.434C101.965 172.434 101.922 172.711 101.177 173.037L100.284 162.509L100.278 162.503Z" fill="#424241"/>
<path d="M95.389 163.267L96.5343 163.193L98.012 164.782L98.3261 170.056L97.8273 172.877L96.6882 173.425L94.6563 173.271L92.415 168.214L92.8153 164.61L94.6378 163.76L95.389 163.267Z" fill="#CCCCCA"/>
<path d="M96.3495 158.967V162.491C96.3495 162.491 94.7486 164.524 92.1317 163.304L91.8115 158.906L96.3433 158.967H96.3495Z" fill="#EDD7B7"/>
<path opacity="0.15" d="M92.1257 159.953L96.3497 160.15C96.3497 160.15 94.9027 163.138 92.1257 159.953Z" fill="#1C1A18"/>
<path d="M99.5636 154.476C99.3604 155.967 99.3666 157.606 98.3568 158.825C97.0884 160.347 94.7855 160.698 93.0492 160.292C91.9593 160.033 91.0296 159.324 90.3461 158.444C89.3363 157.138 88.8006 155.542 88.5297 153.885C88.228 152.043 87.9263 150.121 88.4619 148.279C89.1577 145.889 91.3313 143.948 93.7265 143.585C100.105 142.611 100.266 149.332 99.5698 154.482L99.5636 154.476Z" fill="#EDD7B7"/>
<path d="M99.7238 151.889C99.8285 151.92 99.8716 151.71 99.8901 151.538C100.032 150.17 100.044 148.883 99.5884 147.577C99.4468 147.164 99.262 146.764 98.9973 146.474C98.3877 145.796 97.7658 146.111 97.7227 147.145C97.6796 148.1 98.1537 148.433 98.5047 149C98.9911 149.807 99.4098 150.866 99.7238 151.895V151.889Z" fill="#68401E"/>
<path d="M92.9877 143.049C95.0627 142.673 97.2547 143.449 99.2127 142.587C99.145 143 99.0034 143.4 98.794 143.763C99.576 143.542 100.309 143.11 100.906 142.525C101.7 145.106 100.259 148.168 97.969 149.757C95.6846 151.347 92.7722 151.643 90.1553 151.144C90.3647 151.18 90.0999 153.786 90.0568 154.057C89.9644 154.612 89.8228 155.135 89.6012 155.659C89.5396 155.807 89.0285 156.595 89.0593 156.657C88.3451 155.283 87.483 153.971 87.089 152.456C86.855 151.55 86.8119 150.546 87.0705 149.61C87.3045 148.766 87.8833 148.199 88.2527 147.435C88.3389 147.256 88.382 147.053 88.4313 146.862C88.5975 146.203 88.8561 145.556 89.2871 145.026C90.0383 144.108 91.8794 143.246 92.9815 143.049H92.9877Z" fill="#7C4E24"/>
<path d="M89.1579 153.626C88.6469 153.577 88.1604 154.064 88.0558 154.593C87.9511 155.117 88.1543 155.647 88.4375 156.072C88.6838 156.435 89.0348 156.774 89.4781 156.786C89.5951 156.786 89.7182 156.768 89.8168 156.706C90.2847 156.429 90.3401 155.351 90.2231 154.907C90.0877 154.39 89.7306 153.688 89.1518 153.632L89.1579 153.626Z" fill="#EDD7B7"/>
<path opacity="0.15" d="M92.7783 153.515C93.6649 153.528 94.5639 153.411 95.4382 153.17C95.5368 154.335 95.6969 155.462 95.8816 156.614C95.6661 156.478 95.4506 156.337 95.2351 156.201C95.1612 155.554 95.0811 154.901 95.0072 154.248C94.5577 154.304 94.1021 154.365 93.6711 154.279C93.2401 154.193 92.8152 153.946 92.6428 153.54L92.7844 153.515H92.7783Z" fill="#1C1A18"/>
<path opacity="0.15" d="M98.3446 152.166C98.4615 152.098 98.5785 152.024 98.6955 151.957C98.714 152.061 98.6832 152.166 98.6463 152.271C98.5477 152.554 98.4492 152.838 98.2707 153.084C98.0552 153.386 97.7288 153.601 97.3717 153.682C97.2424 153.712 97.0946 153.719 96.9899 153.645C96.9284 153.601 96.8853 153.528 96.8545 153.454C96.8052 153.337 96.7005 153.029 96.7929 152.912C96.8483 152.838 97.1439 152.776 97.2239 152.745C97.6118 152.597 97.9751 152.382 98.3384 152.166H98.3446Z" fill="#1C1A18"/>
<path opacity="0.15" d="M88.9238 155.376C89.0162 155.616 89.2009 155.764 89.3364 155.702C89.4719 155.641 89.515 155.394 89.4226 155.154C89.3302 154.914 89.1455 154.766 89.0101 154.827C88.8746 154.889 88.8315 155.135 88.9238 155.376Z" fill="#1C1A18"/>
<path d="M96.5405 166.877L98.0244 172.021V174.343L97.7658 175.039C97.7658 175.039 97.4148 175.668 96.4727 175.625L95.5984 173.117L95.6784 167.296L96.0848 166.902L96.5343 166.871L96.5405 166.877Z" fill="#AF2E44"/>
<path d="M96.5343 164.437V166.877C96.5343 166.877 96.1341 167.364 95.6846 167.296L94.644 165.38L95.0935 163.821L95.7893 163.575L96.5343 164.437Z" fill="#AF2E44"/>
<path d="M92.0456 162.078C92.0456 162.078 93.5665 163.384 95.389 163.267L94.7363 166.575L91.2144 164.493C91.2144 164.493 91.436 163.119 92.0456 162.078Z" fill="#DADADA"/>
<path d="M95.389 163.267L96.9221 165.546L97.1192 163.489C97.1192 163.489 96.9468 162.528 96.3495 161.721L95.3828 163.261L95.389 163.267Z" fill="#DADADA"/>
<path d="M96.8853 162.713C96.8853 162.713 98.4738 169.606 97.7657 175.039L101.171 173.031C101.171 173.031 101.842 169.082 100.278 162.503C100.278 162.503 97.9012 162.934 96.8853 162.713Z" fill="#3C3C3A"/>
<path d="M97.8336 174.479C97.8336 174.479 99.5454 169.575 98.5232 166.772L98.0491 166.803L98.591 166.181C98.591 166.181 98.0984 162.62 96.5344 161.992C96.5344 161.992 98.1538 173.438 97.8336 174.479Z" fill="#424241"/>
<path d="M91.393 163.711C91.393 163.711 90.0199 165.811 88.0496 166.717C88.0496 166.717 90.4632 174.559 90.6972 178.384C90.6972 178.384 94.6317 176.998 96.4789 175.631L93.9729 168.442L91.393 163.717V163.711Z" fill="#3C3C3A"/>
<path d="M91.8178 162.509C91.8178 162.509 96.1957 171.22 96.4728 175.625C96.4728 175.625 93.388 172.224 92.4336 168.83L93.1109 168.238L92.138 168.368C92.138 168.368 91.1097 164.401 91.4607 163.458L91.8117 162.515L91.8178 162.509Z" fill="#424241"/>
<path d="M88.0495 166.711C88.0495 166.711 86.7873 169.181 88.5606 179.087C88.5606 179.087 89.8844 179.124 90.691 178.378C90.691 178.378 90.3647 169.994 88.0434 166.711H88.0495Z" fill="#424241"/>
<path d="M104.804 173.616L104.397 175.083L103.092 175.803L104.145 175.988L103.745 177.454L104.804 176.105L105.857 176.296L105.456 175.273L106.516 173.918L105.204 174.639L104.804 173.616Z" fill="#F7B033"/>
<path d="M100.783 175.988L100.377 177.454L99.0713 178.175L100.13 178.36L99.724 179.826L100.783 178.477L101.842 178.662L101.436 177.639L102.495 176.29L101.189 177.011L100.783 175.988Z" fill="#F7B033"/>
<path d="M96.6021 178.428L96.1957 179.894L94.8904 180.608L95.9494 180.799L95.5431 182.265L96.6021 180.916L97.6612 181.101L97.2548 180.079L98.3139 178.729L97.0023 179.45L96.6021 178.428Z" fill="#F7B033"/>
<path d="M92.5814 180.799L92.1811 182.265L90.8696 182.98L91.9287 183.171L91.5223 184.637L92.5814 183.282L93.6404 183.473L93.234 182.45L94.2931 181.101L92.9878 181.816L92.5814 180.799Z" fill="#F7B033"/>
<path d="M88.2713 183.257L87.8649 184.723L86.5596 185.444L87.6186 185.629L87.2122 187.095L88.2713 185.746L89.3304 185.931L88.924 184.914L89.983 183.559L88.6715 184.28L88.2713 183.257Z" fill="url(#paint48_linear_1274_43934)"/>
<path d="M106.478 178.157V179.333L87.2983 190.317V189.147L106.478 178.157Z" fill="url(#paint49_linear_1274_43934)"/>
<path d="M106.478 180.454V181.631L87.2983 192.615V191.444L106.478 180.454Z" fill="url(#paint50_linear_1274_43934)"/>
<path d="M106.478 182.481V183.658L87.2983 194.642V193.471L106.478 182.481Z" fill="url(#paint51_linear_1274_43934)"/>
<path d="M106.478 184.508V185.684L94.7917 192.344V191.173L106.478 184.508Z" fill="url(#paint52_linear_1274_43934)"/>
<path d="M63.8944 163.754V164.93L44.7144 175.914V174.744L63.8944 163.754Z" fill="url(#paint53_linear_1274_43934)"/>
<path d="M59.7506 162.275V163.452L48.8152 169.834V168.663L59.7506 162.275Z" fill="url(#paint54_linear_1274_43934)"/>
<path d="M63.8944 166.051V167.228L44.7144 178.212V177.042L63.8944 166.051Z" fill="url(#paint55_linear_1274_43934)"/>
<path d="M63.8944 168.078V169.255L44.7144 180.239V179.068L63.8944 168.078Z" fill="url(#paint56_linear_1274_43934)"/>
<path d="M63.8944 170.105V171.282L52.2017 177.941V176.77L63.8944 170.105Z" fill="url(#paint57_linear_1274_43934)"/>
<path d="M63.8944 202.785V203.962L44.7144 214.952V213.782L63.8944 202.785Z" fill="url(#paint58_linear_1274_43934)"/>
<path d="M63.8944 204.818V205.995L44.7144 216.979V215.808L63.8944 204.818Z" fill="url(#paint59_linear_1274_43934)"/>
<path d="M63.8944 206.845V208.022L52.2017 214.681V213.511L63.8944 206.845Z" fill="url(#paint60_linear_1274_43934)"/>
<path d="M62.6014 178.391V179.567L44.7144 189.83V188.66L62.6014 178.391Z" fill="url(#paint61_linear_1274_43934)"/>
<path d="M62.6014 180.688V181.865L44.7144 192.128V190.958L62.6014 180.688Z" fill="url(#paint62_linear_1274_43934)"/>
<path d="M62.6014 182.715V183.892L44.7144 194.161V192.991L62.6014 182.715Z" fill="url(#paint63_linear_1274_43934)"/>
<path d="M63.3095 179.13C63.5033 179.13 63.6604 178.884 63.6604 178.582C63.6604 178.279 63.5033 178.033 63.3095 178.033C63.1156 178.033 62.9585 178.279 62.9585 178.582C62.9585 178.884 63.1156 179.13 63.3095 179.13Z" fill="url(#paint64_linear_1274_43934)"/>
<path d="M63.3095 181.422C63.5033 181.422 63.6604 181.176 63.6604 180.873C63.6604 180.57 63.5033 180.325 63.3095 180.325C63.1156 180.325 62.9585 180.57 62.9585 180.873C62.9585 181.176 63.1156 181.422 63.3095 181.422Z" fill="url(#paint65_linear_1274_43934)"/>
<path d="M63.3095 183.467C63.5033 183.467 63.6604 183.221 63.6604 182.918C63.6604 182.616 63.5033 182.37 63.3095 182.37C63.1156 182.37 62.9585 182.616 62.9585 182.918C62.9585 183.221 63.1156 183.467 63.3095 183.467Z" fill="url(#paint66_linear_1274_43934)"/>
<path d="M62.6014 185.025V186.202L44.7144 196.465V195.295L62.6014 185.025Z" fill="url(#paint67_linear_1274_43934)"/>
<path d="M62.6014 187.323V188.5L44.7144 198.763V197.592L62.6014 187.323Z" fill="url(#paint68_linear_1274_43934)"/>
<path d="M62.6014 189.35V190.526L44.7144 200.79V199.619L62.6014 189.35Z" fill="url(#paint69_linear_1274_43934)"/>
<path d="M63.3095 185.765C63.5033 185.765 63.6604 185.519 63.6604 185.216C63.6604 184.913 63.5033 184.668 63.3095 184.668C63.1156 184.668 62.9585 184.913 62.9585 185.216C62.9585 185.519 63.1156 185.765 63.3095 185.765Z" fill="url(#paint70_linear_1274_43934)"/>
<path d="M63.3095 188.056C63.5033 188.056 63.6604 187.811 63.6604 187.508C63.6604 187.205 63.5033 186.96 63.3095 186.96C63.1156 186.96 62.9585 187.205 62.9585 187.508C62.9585 187.811 63.1156 188.056 63.3095 188.056Z" fill="url(#paint71_linear_1274_43934)"/>
<path d="M63.3095 190.101C63.5033 190.101 63.6604 189.856 63.6604 189.553C63.6604 189.25 63.5033 189.005 63.3095 189.005C63.1156 189.005 62.9585 189.25 62.9585 189.553C62.9585 189.856 63.1156 190.101 63.3095 190.101Z" fill="url(#paint72_linear_1274_43934)"/>
<path d="M62.6014 193.397V194.574L44.7144 204.837V203.666L62.6014 193.397Z" fill="url(#paint73_linear_1274_43934)"/>
<path d="M62.6014 195.695V196.872L44.7144 207.135V205.964L62.6014 195.695Z" fill="url(#paint74_linear_1274_43934)"/>
<path d="M62.6014 197.722V198.898L44.7144 209.161V207.991L62.6014 197.722Z" fill="url(#paint75_linear_1274_43934)"/>
<path d="M63.3095 194.136C63.5033 194.136 63.6604 193.891 63.6604 193.588C63.6604 193.285 63.5033 193.04 63.3095 193.04C63.1156 193.04 62.9585 193.285 62.9585 193.588C62.9585 193.891 63.1156 194.136 63.3095 194.136Z" fill="url(#paint76_linear_1274_43934)"/>
<path d="M62.9585 195.88C62.9585 196.182 63.1186 196.428 63.3095 196.428C63.5003 196.428 63.6604 196.182 63.6604 195.88C63.6604 195.578 63.5003 195.332 63.3095 195.332C63.1186 195.332 62.9585 195.578 62.9585 195.88Z" fill="url(#paint77_linear_1274_43934)"/>
<path d="M63.3095 198.473C63.5033 198.473 63.6604 198.228 63.6604 197.925C63.6604 197.622 63.5033 197.377 63.3095 197.377C63.1156 197.377 62.9585 197.622 62.9585 197.925C62.9585 198.228 63.1156 198.473 63.3095 198.473Z" fill="url(#paint78_linear_1274_43934)"/>
<path d="M156.271 342.032L155.621 343.078L157.189 344.055L157.84 343.008L156.271 342.032Z" fill="#0097EC"/>
<path d="M152.585 341.22L149.549 339.329L150.202 338.282L153.237 340.173L152.585 341.22ZM146.513 337.438L143.478 335.547L144.131 334.499L147.166 336.391L146.513 337.438ZM140.442 333.655L137.407 331.764L138.059 330.717L141.095 332.608L140.442 333.655ZM134.371 329.873L131.336 327.982L131.988 326.934L135.024 328.826L134.371 329.873ZM128.3 326.091L125.265 324.199L125.917 323.152L128.953 325.043L128.3 326.091ZM122.229 322.308L119.193 320.417L119.846 319.37L122.882 321.261L122.229 322.308ZM116.158 318.526L113.122 316.634L113.775 315.587L116.811 317.478L116.158 318.526ZM110.087 314.743L107.051 312.852L107.704 311.805L110.739 313.696L110.087 314.743ZM104.016 310.961L100.98 309.07L101.633 308.022L104.668 309.914L104.016 310.961ZM97.9445 307.178L94.9089 305.287L95.5616 304.24L98.5972 306.131L97.9445 307.178ZM91.8734 303.396L88.8378 301.505L89.4905 300.457L92.526 302.349L91.8734 303.396ZM85.8022 299.613L82.7667 297.722L83.4194 296.675L86.4549 298.566L85.8022 299.613ZM79.7311 295.831L76.6956 293.94L77.3482 292.893L80.3838 294.784L79.7311 295.831Z" fill="#0097EC"/>
<path d="M73.6354 292.055L71.7759 290.897V288.71H73.0073V290.213L74.2881 291.014L73.6354 292.055Z" fill="#0097EC"/>
<path d="M73.0073 285.069H71.7759V281.428H73.0073V285.069ZM73.0073 277.787H71.7759V274.147H73.0073V277.787ZM73.0073 270.506H71.7759V266.865H73.0073V270.506ZM73.0073 263.224H71.7759V259.584H73.0073V263.224ZM73.0073 255.943H71.7759V252.302H73.0073V255.943ZM73.0073 248.661H71.7759V245.021H73.0073V248.661ZM73.0073 241.38H71.7759V237.739H73.0073V241.38ZM73.0073 234.098H71.7759V230.458H73.0073V234.098ZM73.0073 226.817H71.7759V223.176H73.0073V226.817Z" fill="#0097EC"/>
<path d="M73.0073 217.7H71.7759V219.548H73.0073V217.7Z" fill="#0097EC"/>
<path style="mix-blend-mode:multiply" opacity="0.15" d="M390.491 546.716L411.445 559L486.355 515.73L465.401 503.446L390.491 546.716Z" fill="url(#paint79_linear_1274_43934)"/>
<path style="mix-blend-mode:multiply" opacity="0.15" d="M432.509 521.336L453.456 533.619L528.366 490.349L507.413 478.066L432.509 521.336Z" fill="url(#paint80_linear_1274_43934)"/>
<path style="mix-blend-mode:multiply" opacity="0.15" d="M472.827 496.645L493.774 508.923L568.684 465.653L547.737 453.375L472.827 496.645Z" fill="url(#paint81_linear_1274_43934)"/>
<path style="mix-blend-mode:multiply" opacity="0.15" d="M514.654 471.456L535.601 483.739L610.511 440.469L589.558 428.186L514.654 471.456Z" fill="url(#paint82_linear_1274_43934)"/>
<path opacity="0.15" d="M589.182 371.406C595.087 367.993 604.662 367.993 610.573 371.406C613.528 373.112 615 375.348 615 377.585V434.161C615 436.397 613.522 438.633 610.573 440.34C604.668 443.753 595.093 443.753 589.182 440.34C586.227 438.633 584.755 436.397 584.755 434.161V377.585C584.755 375.348 586.233 373.112 589.182 371.406Z" fill="white"/>
<path opacity="0.15" d="M589.182 383.757C595.087 387.17 604.662 387.17 610.573 383.757C616.478 380.344 616.478 374.813 610.573 371.406C604.668 367.993 595.093 367.993 589.182 371.406C583.277 374.819 583.277 380.351 589.182 383.757Z" fill="white"/>
<path opacity="0.15" d="M547.83 362.67C553.735 359.258 563.309 359.258 569.22 362.67C572.176 364.377 573.647 366.613 573.647 368.849V459.258C573.647 461.494 572.17 463.731 569.22 465.437C563.315 468.85 553.741 468.85 547.83 465.437C544.874 463.731 543.403 461.494 543.403 459.258V368.849C543.403 366.613 544.88 364.377 547.83 362.67Z" fill="white"/>
<path opacity="0.15" d="M547.83 375.022C553.734 378.435 563.309 378.435 569.22 375.022C575.125 371.609 575.125 366.077 569.22 362.67C563.315 359.258 553.741 359.258 547.83 362.67C541.925 366.083 541.925 371.615 547.83 375.022Z" fill="white"/>
<path d="M547.83 383.745C553.735 380.332 563.309 380.332 569.22 383.745C572.176 385.451 573.647 387.688 573.647 389.924V459.252C573.647 461.488 572.17 463.724 569.22 465.431C563.315 468.844 553.741 468.844 547.83 465.431C544.874 463.724 543.403 461.488 543.403 459.252V389.924C543.403 387.688 544.88 385.451 547.83 383.745Z" fill="#5DC1BE"/>
<path d="M547.83 396.103C553.734 399.515 563.309 399.515 569.22 396.103C575.125 392.69 575.125 387.158 569.22 383.751C563.315 380.338 553.741 380.338 547.83 383.751C541.925 387.164 541.925 392.696 547.83 396.103Z" fill="#83DAD8"/>
<path opacity="0.15" d="M506.471 338.892C512.376 335.479 521.951 335.479 527.862 338.892C530.817 340.598 532.289 342.834 532.289 345.07V484.355C532.289 486.592 530.811 488.828 527.862 490.534C521.957 493.947 512.382 493.947 506.471 490.534C503.516 488.828 502.044 486.592 502.044 484.355V345.07C502.044 342.834 503.522 340.598 506.471 338.892Z" fill="white"/>
<path opacity="0.15" d="M506.471 351.243C512.376 354.656 521.95 354.656 527.861 351.243C533.766 347.83 533.766 342.298 527.861 338.892C521.957 335.479 512.382 335.479 506.471 338.892C500.566 342.304 500.566 347.836 506.471 351.243Z" fill="white"/>
<path d="M506.471 373.543C512.376 370.131 521.951 370.131 527.862 373.543C530.817 375.25 532.289 377.486 532.289 379.722V484.355C532.289 486.592 530.811 488.828 527.862 490.534C521.957 493.947 512.382 493.947 506.471 490.534C503.516 488.828 502.044 486.592 502.044 484.355V379.722C502.044 377.486 503.522 375.25 506.471 373.543Z" fill="#E16982"/>
<path d="M506.471 385.895C512.376 389.308 521.95 389.308 527.861 385.895C533.766 382.482 533.766 376.95 527.861 373.543C521.957 370.131 512.382 370.131 506.471 373.543C500.566 376.956 500.566 382.488 506.471 385.895Z" fill="#F6849D"/>
<path opacity="0.15" d="M465.118 377.788C471.023 374.375 480.598 374.375 486.509 377.788C489.464 379.494 490.936 381.731 490.936 383.967V509.446C490.936 511.683 489.458 513.919 486.509 515.625C480.604 519.038 471.029 519.038 465.118 515.625C462.163 513.919 460.691 511.683 460.691 509.446V383.967C460.691 381.731 462.169 379.494 465.118 377.788Z" fill="white"/>
<path opacity="0.15" d="M465.118 390.139C471.023 393.552 480.598 393.552 486.509 390.139C492.414 386.727 492.414 381.195 486.509 377.788C480.604 374.375 471.029 374.375 465.118 377.788C459.207 381.201 459.213 386.733 465.118 390.139Z" fill="white"/>
<path d="M465.118 410.733C471.023 407.321 480.598 407.321 486.509 410.733C489.464 412.44 490.936 414.676 490.936 416.912V509.446C490.936 511.683 489.458 513.919 486.509 515.625C480.604 519.038 471.029 519.038 465.118 515.625C462.163 513.919 460.691 511.683 460.691 509.446V416.912C460.691 414.676 462.169 412.44 465.118 410.733Z" fill="#A3B9E3"/>
<path d="M465.118 423.085C471.023 426.498 480.598 426.498 486.509 423.085C492.414 419.672 492.414 414.14 486.509 410.733C480.604 407.321 471.029 407.321 465.118 410.733C459.213 414.146 459.213 419.678 465.118 423.085Z" fill="#C3D8FF"/>
<path d="M589.182 395.523C595.087 392.111 604.662 392.111 610.573 395.523C613.528 397.23 615 399.466 615 401.702V434.161C615 436.397 613.522 438.633 610.573 440.34C604.668 443.753 595.093 443.753 589.182 440.34C586.226 438.633 584.755 436.397 584.755 434.161V401.702C584.755 399.466 586.233 397.23 589.182 395.523Z" fill="#E6D12A"/>
<path d="M589.182 407.875C595.087 411.288 604.662 411.288 610.573 407.875C616.478 404.462 616.478 398.93 610.573 395.523C604.668 392.111 595.093 392.111 589.182 395.523C583.271 398.936 583.277 404.468 589.182 407.875Z" fill="#FCE748"/>
</g>
<defs>
<linearGradient id="paint0_linear_1274_43934" x1="459.552" y1="386.456" x2="459.552" y2="87.7292" gradientUnits="userSpaceOnUse">
<stop stop-color="#0097EC"/>
<stop offset="0.16" stop-color="#21A4EE"/>
<stop offset="0.53" stop-color="#75C7F5"/>
<stop offset="1" stop-color="#ECF8FF"/>
</linearGradient>
<linearGradient id="paint1_linear_1274_43934" x1="424.757" y1="82.881" x2="580.697" y2="82.881" gradientUnits="userSpaceOnUse">
<stop stop-color="#ECF8FF"/>
<stop offset="0.47" stop-color="#75C7F5"/>
<stop offset="0.84" stop-color="#21A4EE"/>
<stop offset="1" stop-color="#0097EC"/>
</linearGradient>
<linearGradient id="paint2_linear_1274_43934" x1="398.755" y1="112.666" x2="523.181" y2="225.032" gradientUnits="userSpaceOnUse">
<stop stop-color="#ECF8FF"/>
<stop offset="0.02" stop-color="#E9F5FE"/>
<stop offset="0.28" stop-color="#CBDEF3"/>
<stop offset="0.53" stop-color="#B6CDEC"/>
<stop offset="0.77" stop-color="#A9C3E7"/>
<stop offset="1" stop-color="#A5C0E6"/>
</linearGradient>
<linearGradient id="paint3_linear_1274_43934" x1="368.134" y1="183.596" x2="418.009" y2="183.596" gradientUnits="userSpaceOnUse">
<stop offset="0.01" stop-color="#A7C2E6"/>
<stop offset="0.05" stop-color="#B1C9E8"/>
<stop offset="0.12" stop-color="#CCDBF0"/>
<stop offset="0.21" stop-color="#F8FAFD"/>
<stop offset="0.22" stop-color="white"/>
<stop offset="0.25" stop-color="#F5F8FC"/>
<stop offset="0.29" stop-color="#DBE6F4"/>
<stop offset="0.35" stop-color="#B1C9E9"/>
<stop offset="0.36" stop-color="#A6C2E6"/>
<stop offset="0.42" stop-color="#B3CCEB"/>
<stop offset="0.53" stop-color="#C1D8F1"/>
<stop offset="0.61" stop-color="#C7DCF3"/>
<stop offset="0.84" stop-color="#D1E3F6"/>
<stop offset="1" stop-color="#DDECFA"/>
</linearGradient>
<linearGradient id="paint4_linear_1274_43934" x1="372.45" y1="135.884" x2="414.012" y2="135.884" gradientUnits="userSpaceOnUse">
<stop offset="0.01" stop-color="#A7C2E6"/>
<stop offset="0.05" stop-color="#B1C9E8"/>
<stop offset="0.12" stop-color="#CCDBF0"/>
<stop offset="0.21" stop-color="#F8FAFD"/>
<stop offset="0.22" stop-color="white"/>
<stop offset="0.25" stop-color="#F5F8FC"/>
<stop offset="0.29" stop-color="#DBE6F4"/>
<stop offset="0.35" stop-color="#B1C9E9"/>
<stop offset="0.36" stop-color="#A6C2E6"/>
<stop offset="0.42" stop-color="#B3CCEB"/>
<stop offset="0.53" stop-color="#C1D8F1"/>
<stop offset="0.61" stop-color="#C7DCF3"/>
<stop offset="0.84" stop-color="#D1E3F6"/>
<stop offset="1" stop-color="#DDECFA"/>
</linearGradient>
<linearGradient id="paint5_linear_1274_43934" x1="274.738" y1="202.354" x2="300.788" y2="96.1649" gradientUnits="userSpaceOnUse">
<stop stop-color="#AAC4E6"/>
<stop offset="0.24" stop-color="#B0C8E8"/>
<stop offset="0.57" stop-color="#C2D6EF"/>
<stop offset="0.96" stop-color="#E0EDFA"/>
<stop offset="1" stop-color="#E4F0FC"/>
</linearGradient>
<radialGradient id="paint6_radial_1274_43934" cx="0" cy="0" r="1" gradientUnits="userSpaceOnUse" gradientTransform="translate(298.923 144.814) rotate(-16.3475) scale(44.667 44.6853)">
<stop stop-color="white"/>
<stop offset="1"/>
</radialGradient>
<linearGradient id="paint7_linear_1274_43934" x1="-265.085" y1="7.51505" x2="-247.399" y2="69.0601" gradientUnits="userSpaceOnUse">
<stop stop-color="#0097EC"/>
<stop offset="0.09" stop-color="#0B8BD7"/>
<stop offset="0.26" stop-color="#2078B5"/>
<stop offset="0.44" stop-color="#306A9A"/>
<stop offset="0.62" stop-color="#3B5F87"/>
<stop offset="0.81" stop-color="#42597B"/>
<stop offset="1" stop-color="#455778"/>
</linearGradient>
<linearGradient id="paint8_linear_1274_43934" x1="250.152" y1="146.359" x2="320.212" y2="194.005" gradientUnits="userSpaceOnUse">
<stop offset="0.03" stop-color="#ECF8FF"/>
<stop offset="0.2" stop-color="#C7E9FC"/>
<stop offset="0.58" stop-color="#6CC3F4"/>
<stop offset="1" stop-color="#0097EC"/>
</linearGradient>
<linearGradient id="paint9_linear_1274_43934" x1="-245.36" y1="52.7009" x2="-268.705" y2="21.0655" gradientUnits="userSpaceOnUse">
<stop offset="0.03" stop-color="#ECF8FF"/>
<stop offset="0.23" stop-color="#C8F7FF"/>
<stop offset="0.68" stop-color="#6DF6FF"/>
<stop offset="1" stop-color="#2AF6FF"/>
</linearGradient>
<linearGradient id="paint10_linear_1274_43934" x1="340.426" y1="185.648" x2="334.411" y2="72.5258" gradientUnits="userSpaceOnUse">
<stop stop-color="white"/>
<stop offset="1" stop-color="#BCA8C0"/>
</linearGradient>
<linearGradient id="paint11_linear_1274_43934" x1="259.519" y1="150.384" x2="282.403" y2="172.264" gradientUnits="userSpaceOnUse">
<stop stop-color="white"/>
<stop offset="1"/>
</linearGradient>
<linearGradient id="paint12_linear_1274_43934" x1="294.893" y1="50.1697" x2="401.117" y2="159.778" gradientUnits="userSpaceOnUse">
<stop offset="0.01" stop-color="#A7C2E6"/>
<stop offset="0.05" stop-color="#B1C9E8"/>
<stop offset="0.12" stop-color="#CCDBF0"/>
<stop offset="0.21" stop-color="#F8FAFD"/>
<stop offset="0.22" stop-color="white"/>
<stop offset="0.25" stop-color="#F5F8FC"/>
<stop offset="0.29" stop-color="#DBE6F4"/>
<stop offset="0.35" stop-color="#B1C9E9"/>
<stop offset="0.36" stop-color="#A6C2E6"/>
<stop offset="0.42" stop-color="#B3CCEB"/>
<stop offset="0.53" stop-color="#C1D8F1"/>
<stop offset="0.61" stop-color="#C7DCF3"/>
<stop offset="0.84" stop-color="#D1E3F6"/>
<stop offset="1" stop-color="#DDECFA"/>
</linearGradient>
<linearGradient id="paint13_linear_1274_43934" x1="271.643" y1="156.965" x2="290.251" y2="124.915" gradientUnits="userSpaceOnUse">
<stop stop-color="#455A78"/>
<stop offset="0.08" stop-color="#4B607E"/>
<stop offset="0.2" stop-color="#5D728F"/>
<stop offset="0.34" stop-color="#7B90AC"/>
<stop offset="0.49" stop-color="#A5B9D3"/>
<stop offset="0.58" stop-color="#C3D7F0"/>
<stop offset="0.65" stop-color="#B3C7E1"/>
<stop offset="0.79" stop-color="#8A9DBA"/>
<stop offset="0.99" stop-color="#495B7C"/>
<stop offset="1" stop-color="#455778"/>
</linearGradient>
<radialGradient id="paint14_radial_1274_43934" cx="0" cy="0" r="1" gradientUnits="userSpaceOnUse" gradientTransform="translate(293.563 139.673) scale(29.9616 29.9761)">
<stop stop-color="white"/>
<stop offset="1"/>
</radialGradient>
<linearGradient id="paint15_linear_1274_43934" x1="22.0186" y1="390.521" x2="434.498" y2="390.521" gradientUnits="userSpaceOnUse">
<stop stop-color="#ECF8FF"/>
<stop offset="1" stop-color="#A5C0E6"/>
</linearGradient>
<linearGradient id="paint16_linear_1274_43934" x1="34.992" y1="390.897" x2="422.811" y2="390.897" gradientUnits="userSpaceOnUse">
<stop stop-color="#8CA7D0"/>
<stop offset="1" stop-color="#334C6C"/>
</linearGradient>
<linearGradient id="paint17_linear_1274_43934" x1="295.004" y1="387.028" x2="295.004" y2="352.278" gradientUnits="userSpaceOnUse">
<stop stop-color="#ECF8FF"/>
<stop offset="0.02" stop-color="#E9F5FE"/>
<stop offset="0.28" stop-color="#CBDEF3"/>
<stop offset="0.53" stop-color="#B6CDEC"/>
<stop offset="0.77" stop-color="#A9C3E7"/>
<stop offset="1" stop-color="#A5C0E6"/>
</linearGradient>
<linearGradient id="paint18_linear_1274_43934" x1="324.159" y1="403.871" x2="324.159" y2="341.3" gradientUnits="userSpaceOnUse">
<stop stop-color="#ECF8FF"/>
<stop offset="0.02" stop-color="#E9F5FE"/>
<stop offset="0.28" stop-color="#CBDEF3"/>
<stop offset="0.53" stop-color="#B6CDEC"/>
<stop offset="0.77" stop-color="#A9C3E7"/>
<stop offset="1" stop-color="#A5C0E6"/>
</linearGradient>
<linearGradient id="paint19_linear_1274_43934" x1="153.989" y1="312.852" x2="153.989" y2="250.288" gradientUnits="userSpaceOnUse">
<stop stop-color="#ECF8FF"/>
<stop offset="0.02" stop-color="#E9F5FE"/>
<stop offset="0.28" stop-color="#CBDEF3"/>
<stop offset="0.53" stop-color="#B6CDEC"/>
<stop offset="0.77" stop-color="#A9C3E7"/>
<stop offset="1" stop-color="#A5C0E6"/>
</linearGradient>
<linearGradient id="paint20_linear_1274_43934" x1="353.313" y1="420.707" x2="353.313" y2="358.143" gradientUnits="userSpaceOnUse">
<stop stop-color="#ECF8FF"/>
<stop offset="0.02" stop-color="#E9F5FE"/>
<stop offset="0.28" stop-color="#CBDEF3"/>
<stop offset="0.53" stop-color="#B6CDEC"/>
<stop offset="0.77" stop-color="#A9C3E7"/>
<stop offset="1" stop-color="#A5C0E6"/>
</linearGradient>
<linearGradient id="paint21_linear_1274_43934" x1="81.2641" y1="365.418" x2="81.2641" y2="330.674" gradientUnits="userSpaceOnUse">
<stop stop-color="#ECF8FF"/>
<stop offset="0.02" stop-color="#E9F5FE"/>
<stop offset="0.28" stop-color="#CBDEF3"/>
<stop offset="0.53" stop-color="#B6CDEC"/>
<stop offset="0.77" stop-color="#A9C3E7"/>
<stop offset="1" stop-color="#A5C0E6"/>
</linearGradient>
<linearGradient id="paint22_linear_1274_43934" x1="232.137" y1="399.94" x2="220.925" y2="399.94" gradientUnits="userSpaceOnUse">
<stop stop-color="#574C3D"/>
<stop offset="1" stop-color="#362E25"/>
</linearGradient>
<linearGradient id="paint23_linear_1274_43934" x1="229.44" y1="404.197" x2="223.624" y2="395.705" gradientUnits="userSpaceOnUse">
<stop offset="0.03" stop-color="#A7A9AC"/>
<stop offset="0.23" stop-color="#B5B7BA"/>
<stop offset="0.38" stop-color="#C4C6C8"/>
<stop offset="0.57" stop-color="#B5B7B9"/>
<stop offset="0.72" stop-color="#A7A9AC"/>
<stop offset="1" stop-color="#A7A9AC"/>
</linearGradient>
<linearGradient id="paint24_linear_1274_43934" x1="224.373" y1="392.357" x2="229.359" y2="409.863" gradientUnits="userSpaceOnUse">
<stop stop-color="#85878D"/>
<stop offset="0.53" stop-color="#979899"/>
<stop offset="1" stop-color="#5D5C62"/>
</linearGradient>
<linearGradient id="paint25_linear_1274_43934" x1="228.129" y1="404.111" x2="224.665" y2="395.093" gradientUnits="userSpaceOnUse">
<stop stop-color="#85878D"/>
<stop offset="0.21" stop-color="#818389"/>
<stop offset="0.4" stop-color="#76787D"/>
<stop offset="0.59" stop-color="#64666A"/>
<stop offset="0.78" stop-color="#4B4C50"/>
<stop offset="0.96" stop-color="#2B2B2D"/>
<stop offset="1" stop-color="#242426"/>
</linearGradient>
<linearGradient id="paint26_linear_1274_43934" x1="225.561" y1="397.883" x2="228.76" y2="404.677" gradientUnits="userSpaceOnUse">
<stop stop-color="#85878D"/>
<stop offset="1" stop-color="#CBCDCF"/>
</linearGradient>
<linearGradient id="paint27_linear_1274_43934" x1="228.468" y1="399.386" x2="225.925" y2="399.386" gradientUnits="userSpaceOnUse">
<stop stop-color="#574C3D"/>
<stop offset="1" stop-color="#362E25"/>
</linearGradient>
<linearGradient id="paint28_linear_1274_43934" x1="165.047" y1="361.112" x2="153.834" y2="361.112" gradientUnits="userSpaceOnUse">
<stop stop-color="#574C3D"/>
<stop offset="1" stop-color="#362E25"/>
</linearGradient>
<linearGradient id="paint29_linear_1274_43934" x1="162.35" y1="365.369" x2="156.534" y2="356.876" gradientUnits="userSpaceOnUse">
<stop offset="0.03" stop-color="#A7A9AC"/>
<stop offset="0.23" stop-color="#B5B7BA"/>
<stop offset="0.38" stop-color="#C4C6C8"/>
<stop offset="0.57" stop-color="#B5B7B9"/>
<stop offset="0.72" stop-color="#A7A9AC"/>
<stop offset="1" stop-color="#A7A9AC"/>
</linearGradient>
<linearGradient id="paint30_linear_1274_43934" x1="157.282" y1="353.529" x2="162.268" y2="371.035" gradientUnits="userSpaceOnUse">
<stop stop-color="#85878D"/>
<stop offset="0.53" stop-color="#979899"/>
<stop offset="1" stop-color="#5D5C62"/>
</linearGradient>
<linearGradient id="paint31_linear_1274_43934" x1="161.038" y1="365.282" x2="157.575" y2="356.265" gradientUnits="userSpaceOnUse">
<stop stop-color="#85878D"/>
<stop offset="0.21" stop-color="#818389"/>
<stop offset="0.4" stop-color="#76787D"/>
<stop offset="0.59" stop-color="#64666A"/>
<stop offset="0.78" stop-color="#4B4C50"/>
<stop offset="0.96" stop-color="#2B2B2D"/>
<stop offset="1" stop-color="#242426"/>
</linearGradient>
<linearGradient id="paint32_linear_1274_43934" x1="158.471" y1="359.054" x2="161.663" y2="365.848" gradientUnits="userSpaceOnUse">
<stop stop-color="#85878D"/>
<stop offset="1" stop-color="#CBCDCF"/>
</linearGradient>
<linearGradient id="paint33_linear_1274_43934" x1="161.371" y1="360.558" x2="158.834" y2="360.558" gradientUnits="userSpaceOnUse">
<stop stop-color="#574C3D"/>
<stop offset="1" stop-color="#362E25"/>
</linearGradient>
<linearGradient id="paint34_linear_1274_43934" x1="239.705" y1="298.344" x2="162.886" y2="298.344" gradientUnits="userSpaceOnUse">
<stop stop-color="#EDD631"/>
<stop offset="1" stop-color="#FC5D47"/>
</linearGradient>
<linearGradient id="paint35_linear_1274_43934" x1="157.517" y1="346.919" x2="149.992" y2="346.919" gradientUnits="userSpaceOnUse">
<stop stop-color="#EDD631"/>
<stop offset="1" stop-color="#FC5D47"/>
</linearGradient>
<linearGradient id="paint36_linear_1274_43934" x1="281.815" y1="378.909" x2="215.014" y2="378.909" gradientUnits="userSpaceOnUse">
<stop stop-color="#EDD631"/>
<stop offset="0.64" stop-color="#F7893F"/>
<stop offset="1" stop-color="#FC5D47"/>
</linearGradient>
<linearGradient id="paint37_linear_1274_43934" x1="254.304" y1="337.838" x2="200.415" y2="337.838" gradientUnits="userSpaceOnUse">
<stop stop-color="#EDD631"/>
<stop offset="1" stop-color="#FC5D47"/>
</linearGradient>
<linearGradient id="paint38_linear_1274_43934" x1="279.82" y1="384.46" x2="275.097" y2="384.46" gradientUnits="userSpaceOnUse">
<stop stop-color="#F3D95F"/>
<stop offset="1" stop-color="#D88533"/>
</linearGradient>
<linearGradient id="paint39_linear_1274_43934" x1="249.476" y1="402.097" x2="244.754" y2="402.097" gradientUnits="userSpaceOnUse">
<stop stop-color="#F3D95F"/>
<stop offset="1" stop-color="#D88533"/>
</linearGradient>
<linearGradient id="paint40_linear_1274_43934" x1="237.291" y1="407.9" x2="235.812" y2="410.074" gradientUnits="userSpaceOnUse">
<stop stop-color="#F7893F"/>
<stop offset="1" stop-color="#FC5D47"/>
</linearGradient>
<linearGradient id="paint41_linear_1274_43934" x1="194.547" y1="378.885" x2="193.068" y2="381.058" gradientUnits="userSpaceOnUse">
<stop stop-color="#F7893F"/>
<stop offset="1" stop-color="#FC5D47"/>
</linearGradient>
<linearGradient id="paint42_linear_1274_43934" x1="154.715" y1="351.841" x2="153.236" y2="354.015" gradientUnits="userSpaceOnUse">
<stop stop-color="#F7893F"/>
<stop offset="1" stop-color="#FC5D47"/>
</linearGradient>
<linearGradient id="paint43_linear_1274_43934" x1="266.778" y1="484.811" x2="266.778" y2="421.298" gradientUnits="userSpaceOnUse">
<stop stop-color="#ECF8FF"/>
<stop offset="0.02" stop-color="#E9F5FE"/>
<stop offset="0.28" stop-color="#CBDEF3"/>
<stop offset="0.53" stop-color="#B6CDEC"/>
<stop offset="0.77" stop-color="#A9C3E7"/>
<stop offset="1" stop-color="#A5C0E6"/>
</linearGradient>
<linearGradient id="paint44_linear_1274_43934" x1="256.902" y1="351.915" x2="251.502" y2="351.915" gradientUnits="userSpaceOnUse">
<stop stop-color="#EDD631"/>
<stop offset="1" stop-color="#FC5D47"/>
</linearGradient>
<linearGradient id="paint45_linear_1274_43934" x1="222.661" y1="377.338" x2="204.933" y2="372.125" gradientUnits="userSpaceOnUse">
<stop stop-color="#EDD631"/>
<stop offset="1" stop-color="#FC5D47"/>
</linearGradient>
<linearGradient id="paint46_linear_1274_43934" x1="11.8034" y1="225.998" x2="11.8034" y2="146" gradientUnits="userSpaceOnUse">
<stop stop-color="#ECF8FF"/>
<stop offset="0.02" stop-color="#E9F5FE"/>
<stop offset="0.28" stop-color="#CBDEF3"/>
<stop offset="0.53" stop-color="#B6CDEC"/>
<stop offset="0.77" stop-color="#A9C3E7"/>
<stop offset="1" stop-color="#A5C0E6"/>
</linearGradient>
<linearGradient id="paint47_linear_1274_43934" x1="22.9112" y1="132.86" x2="170.933" y2="132.86" gradientUnits="userSpaceOnUse">
<stop stop-color="#ECF8FF"/>
<stop offset="0.02" stop-color="#E9F5FE"/>
<stop offset="0.28" stop-color="#CBDEF3"/>
<stop offset="0.53" stop-color="#B6CDEC"/>
<stop offset="0.77" stop-color="#A9C3E7"/>
<stop offset="1" stop-color="#A5C0E6"/>
</linearGradient>
<linearGradient id="paint48_linear_1274_43934" x1="86.5596" y1="185.179" x2="89.983" y2="185.179" gradientUnits="userSpaceOnUse">
<stop stop-color="#ECF8FF"/>
<stop offset="0.02" stop-color="#E9F5FE"/>
<stop offset="0.28" stop-color="#CBDEF3"/>
<stop offset="0.53" stop-color="#B6CDEC"/>
<stop offset="0.77" stop-color="#A9C3E7"/>
<stop offset="1" stop-color="#A5C0E6"/>
</linearGradient>
<linearGradient id="paint49_linear_1274_43934" x1="87.2983" y1="184.237" x2="106.478" y2="184.237" gradientUnits="userSpaceOnUse">
<stop stop-color="#ECF8FF"/>
<stop offset="0.02" stop-color="#E9F5FE"/>
<stop offset="0.28" stop-color="#CBDEF3"/>
<stop offset="0.53" stop-color="#B6CDEC"/>
<stop offset="0.77" stop-color="#A9C3E7"/>
<stop offset="1" stop-color="#A5C0E6"/>
</linearGradient>
<linearGradient id="paint50_linear_1274_43934" x1="87.2983" y1="186.535" x2="106.478" y2="186.535" gradientUnits="userSpaceOnUse">
<stop stop-color="#ECF8FF"/>
<stop offset="0.02" stop-color="#E9F5FE"/>
<stop offset="0.28" stop-color="#CBDEF3"/>
<stop offset="0.53" stop-color="#B6CDEC"/>
<stop offset="0.77" stop-color="#A9C3E7"/>
<stop offset="1" stop-color="#A5C0E6"/>
</linearGradient>
<linearGradient id="paint51_linear_1274_43934" x1="87.2983" y1="188.561" x2="106.478" y2="188.561" gradientUnits="userSpaceOnUse">
<stop stop-color="#ECF8FF"/>
<stop offset="0.02" stop-color="#E9F5FE"/>
<stop offset="0.28" stop-color="#CBDEF3"/>
<stop offset="0.53" stop-color="#B6CDEC"/>
<stop offset="0.77" stop-color="#A9C3E7"/>
<stop offset="1" stop-color="#A5C0E6"/>
</linearGradient>
<linearGradient id="paint52_linear_1274_43934" x1="94.7917" y1="188.426" x2="106.478" y2="188.426" gradientUnits="userSpaceOnUse">
<stop stop-color="#ECF8FF"/>
<stop offset="0.02" stop-color="#E9F5FE"/>
<stop offset="0.28" stop-color="#CBDEF3"/>
<stop offset="0.53" stop-color="#B6CDEC"/>
<stop offset="0.77" stop-color="#A9C3E7"/>
<stop offset="1" stop-color="#A5C0E6"/>
</linearGradient>
<linearGradient id="paint53_linear_1274_43934" x1="44.7144" y1="169.834" x2="63.8944" y2="169.834" gradientUnits="userSpaceOnUse">
<stop stop-color="#ECF8FF"/>
<stop offset="0.02" stop-color="#E9F5FE"/>
<stop offset="0.28" stop-color="#CBDEF3"/>
<stop offset="0.53" stop-color="#B6CDEC"/>
<stop offset="0.77" stop-color="#A9C3E7"/>
<stop offset="1" stop-color="#A5C0E6"/>
</linearGradient>
<linearGradient id="paint54_linear_1274_43934" x1="48.8152" y1="166.058" x2="59.7506" y2="166.058" gradientUnits="userSpaceOnUse">
<stop stop-color="#ECF8FF"/>
<stop offset="0.02" stop-color="#E9F5FE"/>
<stop offset="0.28" stop-color="#CBDEF3"/>
<stop offset="0.53" stop-color="#B6CDEC"/>
<stop offset="0.77" stop-color="#A9C3E7"/>
<stop offset="1" stop-color="#A5C0E6"/>
</linearGradient>
<linearGradient id="paint55_linear_1274_43934" x1="44.7144" y1="172.132" x2="63.8944" y2="172.132" gradientUnits="userSpaceOnUse">
<stop stop-color="#ECF8FF"/>
<stop offset="0.02" stop-color="#E9F5FE"/>
<stop offset="0.28" stop-color="#CBDEF3"/>
<stop offset="0.53" stop-color="#B6CDEC"/>
<stop offset="0.77" stop-color="#A9C3E7"/>
<stop offset="1" stop-color="#A5C0E6"/>
</linearGradient>
<linearGradient id="paint56_linear_1274_43934" x1="44.7144" y1="174.158" x2="63.8944" y2="174.158" gradientUnits="userSpaceOnUse">
<stop stop-color="#ECF8FF"/>
<stop offset="0.02" stop-color="#E9F5FE"/>
<stop offset="0.28" stop-color="#CBDEF3"/>
<stop offset="0.53" stop-color="#B6CDEC"/>
<stop offset="0.77" stop-color="#A9C3E7"/>
<stop offset="1" stop-color="#A5C0E6"/>
</linearGradient>
<linearGradient id="paint57_linear_1274_43934" x1="52.2017" y1="174.023" x2="63.8944" y2="174.023" gradientUnits="userSpaceOnUse">
<stop stop-color="#ECF8FF"/>
<stop offset="0.02" stop-color="#E9F5FE"/>
<stop offset="0.28" stop-color="#CBDEF3"/>
<stop offset="0.53" stop-color="#B6CDEC"/>
<stop offset="0.77" stop-color="#A9C3E7"/>
<stop offset="1" stop-color="#A5C0E6"/>
</linearGradient>
<linearGradient id="paint58_linear_1274_43934" x1="44.7144" y1="208.872" x2="63.8944" y2="208.872" gradientUnits="userSpaceOnUse">
<stop stop-color="#ECF8FF"/>
<stop offset="0.02" stop-color="#E9F5FE"/>
<stop offset="0.28" stop-color="#CBDEF3"/>
<stop offset="0.53" stop-color="#B6CDEC"/>
<stop offset="0.77" stop-color="#A9C3E7"/>
<stop offset="1" stop-color="#A5C0E6"/>
</linearGradient>
<linearGradient id="paint59_linear_1274_43934" x1="44.7144" y1="210.899" x2="63.8944" y2="210.899" gradientUnits="userSpaceOnUse">
<stop stop-color="#ECF8FF"/>
<stop offset="0.02" stop-color="#E9F5FE"/>
<stop offset="0.28" stop-color="#CBDEF3"/>
<stop offset="0.53" stop-color="#B6CDEC"/>
<stop offset="0.77" stop-color="#A9C3E7"/>
<stop offset="1" stop-color="#A5C0E6"/>
</linearGradient>
<linearGradient id="paint60_linear_1274_43934" x1="52.2017" y1="210.763" x2="63.8944" y2="210.763" gradientUnits="userSpaceOnUse">
<stop stop-color="#ECF8FF"/>
<stop offset="0.02" stop-color="#E9F5FE"/>
<stop offset="0.28" stop-color="#CBDEF3"/>
<stop offset="0.53" stop-color="#B6CDEC"/>
<stop offset="0.77" stop-color="#A9C3E7"/>
<stop offset="1" stop-color="#A5C0E6"/>
</linearGradient>
<linearGradient id="paint61_linear_1274_43934" x1="44.7144" y1="184.114" x2="62.6014" y2="184.114" gradientUnits="userSpaceOnUse">
<stop stop-color="#ECF8FF"/>
<stop offset="0.02" stop-color="#E9F5FE"/>
<stop offset="0.28" stop-color="#CBDEF3"/>
<stop offset="0.53" stop-color="#B6CDEC"/>
<stop offset="0.77" stop-color="#A9C3E7"/>
<stop offset="1" stop-color="#A5C0E6"/>
</linearGradient>
<linearGradient id="paint62_linear_1274_43934" x1="44.7144" y1="186.411" x2="62.6014" y2="186.411" gradientUnits="userSpaceOnUse">
<stop stop-color="#ECF8FF"/>
<stop offset="0.02" stop-color="#E9F5FE"/>
<stop offset="0.28" stop-color="#CBDEF3"/>
<stop offset="0.53" stop-color="#B6CDEC"/>
<stop offset="0.77" stop-color="#A9C3E7"/>
<stop offset="1" stop-color="#A5C0E6"/>
</linearGradient>
<linearGradient id="paint63_linear_1274_43934" x1="44.7144" y1="188.438" x2="62.6014" y2="188.438" gradientUnits="userSpaceOnUse">
<stop stop-color="#ECF8FF"/>
<stop offset="0.02" stop-color="#E9F5FE"/>
<stop offset="0.28" stop-color="#CBDEF3"/>
<stop offset="0.53" stop-color="#B6CDEC"/>
<stop offset="0.77" stop-color="#A9C3E7"/>
<stop offset="1" stop-color="#A5C0E6"/>
</linearGradient>
<linearGradient id="paint64_linear_1274_43934" x1="62.9585" y1="178.582" x2="63.6666" y2="178.582" gradientUnits="userSpaceOnUse">
<stop stop-color="#ECF8FF"/>
<stop offset="0.02" stop-color="#E9F5FE"/>
<stop offset="0.28" stop-color="#CBDEF3"/>
<stop offset="0.53" stop-color="#B6CDEC"/>
<stop offset="0.77" stop-color="#A9C3E7"/>
<stop offset="1" stop-color="#A5C0E6"/>
</linearGradient>
<linearGradient id="paint65_linear_1274_43934" x1="62.9585" y1="180.873" x2="63.6666" y2="180.873" gradientUnits="userSpaceOnUse">
<stop stop-color="#ECF8FF"/>
<stop offset="0.02" stop-color="#E9F5FE"/>
<stop offset="0.28" stop-color="#CBDEF3"/>
<stop offset="0.53" stop-color="#B6CDEC"/>
<stop offset="0.77" stop-color="#A9C3E7"/>
<stop offset="1" stop-color="#A5C0E6"/>
</linearGradient>
<linearGradient id="paint66_linear_1274_43934" x1="62.9585" y1="182.918" x2="63.6666" y2="182.918" gradientUnits="userSpaceOnUse">
<stop stop-color="#ECF8FF"/>
<stop offset="0.02" stop-color="#E9F5FE"/>
<stop offset="0.28" stop-color="#CBDEF3"/>
<stop offset="0.53" stop-color="#B6CDEC"/>
<stop offset="0.77" stop-color="#A9C3E7"/>
<stop offset="1" stop-color="#A5C0E6"/>
</linearGradient>
<linearGradient id="paint67_linear_1274_43934" x1="44.7144" y1="190.742" x2="62.6014" y2="190.742" gradientUnits="userSpaceOnUse">
<stop stop-color="#ECF8FF"/>
<stop offset="0.02" stop-color="#E9F5FE"/>
<stop offset="0.28" stop-color="#CBDEF3"/>
<stop offset="0.53" stop-color="#B6CDEC"/>
<stop offset="0.77" stop-color="#A9C3E7"/>
<stop offset="1" stop-color="#A5C0E6"/>
</linearGradient>
<linearGradient id="paint68_linear_1274_43934" x1="44.7144" y1="193.04" x2="62.6014" y2="193.04" gradientUnits="userSpaceOnUse">
<stop stop-color="#ECF8FF"/>
<stop offset="0.02" stop-color="#E9F5FE"/>
<stop offset="0.28" stop-color="#CBDEF3"/>
<stop offset="0.53" stop-color="#B6CDEC"/>
<stop offset="0.77" stop-color="#A9C3E7"/>
<stop offset="1" stop-color="#A5C0E6"/>
</linearGradient>
<linearGradient id="paint69_linear_1274_43934" x1="44.7144" y1="195.073" x2="62.6014" y2="195.073" gradientUnits="userSpaceOnUse">
<stop stop-color="#ECF8FF"/>
<stop offset="0.02" stop-color="#E9F5FE"/>
<stop offset="0.28" stop-color="#CBDEF3"/>
<stop offset="0.53" stop-color="#B6CDEC"/>
<stop offset="0.77" stop-color="#A9C3E7"/>
<stop offset="1" stop-color="#A5C0E6"/>
</linearGradient>
<linearGradient id="paint70_linear_1274_43934" x1="62.9585" y1="185.216" x2="63.6666" y2="185.216" gradientUnits="userSpaceOnUse">
<stop stop-color="#ECF8FF"/>
<stop offset="0.02" stop-color="#E9F5FE"/>
<stop offset="0.28" stop-color="#CBDEF3"/>
<stop offset="0.53" stop-color="#B6CDEC"/>
<stop offset="0.77" stop-color="#A9C3E7"/>
<stop offset="1" stop-color="#A5C0E6"/>
</linearGradient>
<linearGradient id="paint71_linear_1274_43934" x1="62.9585" y1="187.508" x2="63.6666" y2="187.508" gradientUnits="userSpaceOnUse">
<stop stop-color="#ECF8FF"/>
<stop offset="0.02" stop-color="#E9F5FE"/>
<stop offset="0.28" stop-color="#CBDEF3"/>
<stop offset="0.53" stop-color="#B6CDEC"/>
<stop offset="0.77" stop-color="#A9C3E7"/>
<stop offset="1" stop-color="#A5C0E6"/>
</linearGradient>
<linearGradient id="paint72_linear_1274_43934" x1="62.9585" y1="189.553" x2="63.6666" y2="189.553" gradientUnits="userSpaceOnUse">
<stop stop-color="#ECF8FF"/>
<stop offset="0.02" stop-color="#E9F5FE"/>
<stop offset="0.28" stop-color="#CBDEF3"/>
<stop offset="0.53" stop-color="#B6CDEC"/>
<stop offset="0.77" stop-color="#A9C3E7"/>
<stop offset="1" stop-color="#A5C0E6"/>
</linearGradient>
<linearGradient id="paint73_linear_1274_43934" x1="44.7144" y1="199.114" x2="62.6014" y2="199.114" gradientUnits="userSpaceOnUse">
<stop stop-color="#ECF8FF"/>
<stop offset="0.02" stop-color="#E9F5FE"/>
<stop offset="0.28" stop-color="#CBDEF3"/>
<stop offset="0.53" stop-color="#B6CDEC"/>
<stop offset="0.77" stop-color="#A9C3E7"/>
<stop offset="1" stop-color="#A5C0E6"/>
</linearGradient>
<linearGradient id="paint74_linear_1274_43934" x1="44.7144" y1="201.412" x2="62.6014" y2="201.412" gradientUnits="userSpaceOnUse">
<stop stop-color="#ECF8FF"/>
<stop offset="0.02" stop-color="#E9F5FE"/>
<stop offset="0.28" stop-color="#CBDEF3"/>
<stop offset="0.53" stop-color="#B6CDEC"/>
<stop offset="0.77" stop-color="#A9C3E7"/>
<stop offset="1" stop-color="#A5C0E6"/>
</linearGradient>
<linearGradient id="paint75_linear_1274_43934" x1="44.7144" y1="203.445" x2="62.6014" y2="203.445" gradientUnits="userSpaceOnUse">
<stop stop-color="#ECF8FF"/>
<stop offset="0.02" stop-color="#E9F5FE"/>
<stop offset="0.28" stop-color="#CBDEF3"/>
<stop offset="0.53" stop-color="#B6CDEC"/>
<stop offset="0.77" stop-color="#A9C3E7"/>
<stop offset="1" stop-color="#A5C0E6"/>
</linearGradient>
<linearGradient id="paint76_linear_1274_43934" x1="62.9585" y1="193.588" x2="63.6666" y2="193.588" gradientUnits="userSpaceOnUse">
<stop stop-color="#ECF8FF"/>
<stop offset="0.02" stop-color="#E9F5FE"/>
<stop offset="0.28" stop-color="#CBDEF3"/>
<stop offset="0.53" stop-color="#B6CDEC"/>
<stop offset="0.77" stop-color="#A9C3E7"/>
<stop offset="1" stop-color="#A5C0E6"/>
</linearGradient>
<linearGradient id="paint77_linear_1274_43934" x1="62.9585" y1="195.88" x2="63.6666" y2="195.88" gradientUnits="userSpaceOnUse">
<stop stop-color="#ECF8FF"/>
<stop offset="0.02" stop-color="#E9F5FE"/>
<stop offset="0.28" stop-color="#CBDEF3"/>
<stop offset="0.53" stop-color="#B6CDEC"/>
<stop offset="0.77" stop-color="#A9C3E7"/>
<stop offset="1" stop-color="#A5C0E6"/>
</linearGradient>
<linearGradient id="paint78_linear_1274_43934" x1="62.9585" y1="197.925" x2="63.6666" y2="197.925" gradientUnits="userSpaceOnUse">
<stop stop-color="#ECF8FF"/>
<stop offset="0.02" stop-color="#E9F5FE"/>
<stop offset="0.28" stop-color="#CBDEF3"/>
<stop offset="0.53" stop-color="#B6CDEC"/>
<stop offset="0.77" stop-color="#A9C3E7"/>
<stop offset="1" stop-color="#A5C0E6"/>
</linearGradient>
<linearGradient id="paint79_linear_1274_43934" x1="490.162" y1="586.417" x2="537.982" y2="557.97" gradientUnits="userSpaceOnUse">
<stop stop-color="#ECF8FF"/>
<stop offset="1" stop-color="#B3C9EA"/>
</linearGradient>
<linearGradient id="paint80_linear_1274_43934" x1="510.791" y1="548.459" x2="558.611" y2="520.012" gradientUnits="userSpaceOnUse">
<stop stop-color="#ECF8FF"/>
<stop offset="1" stop-color="#B3C9EA"/>
</linearGradient>
<linearGradient id="paint81_linear_1274_43934" x1="530.439" y1="511.606" x2="578.265" y2="483.159" gradientUnits="userSpaceOnUse">
<stop stop-color="#ECF8FF"/>
<stop offset="1" stop-color="#B3C9EA"/>
</linearGradient>
<linearGradient id="paint82_linear_1274_43934" x1="551.013" y1="473.913" x2="598.833" y2="445.466" gradientUnits="userSpaceOnUse">
<stop stop-color="#ECF8FF"/>
<stop offset="1" stop-color="#B3C9EA"/>
</linearGradient>
<clipPath id="clip0_1274_43934">
<rect width="615" height="559" fill="white"/>
</clipPath>
</defs>
</svg>
