<svg width="25" height="24" viewBox="0 0 25 24" fill="none" xmlns="http://www.w3.org/2000/svg">
<path d="M18.5 6.00003V6.01003M18.5 13L15 8.00003C14.6631 7.39106 14.4909 6.70472 14.5004 6.00882C14.5099 5.31293 14.7008 4.63155 15.0543 4.03203C15.4077 3.43251 15.9115 2.93558 16.5158 2.59035C17.1201 2.24512 17.804 2.06354 18.5 2.06354C19.196 2.06354 19.8799 2.24512 20.4842 2.59035C21.0885 2.93558 21.5923 3.43251 21.9457 4.03203C22.2992 4.63155 22.4901 5.31293 22.4996 6.00882C22.5091 6.70472 22.3369 7.39106 22 8.00003L18.5 13Z" stroke="#6F6F70" stroke-width="2" stroke-linecap="round" stroke-linejoin="round"/>
<path d="M11 4.75L9.5 4L3.5 7V20L9.5 17L15.5 20L21.5 17V15M9.5 4V17M15.5 15V20" stroke="#6F6F70" stroke-width="2" stroke-linecap="round" stroke-linejoin="round"/>
</svg>
