<svg width="24" height="24" viewBox="0 0 24 24" fill="none" xmlns="http://www.w3.org/2000/svg">
<path d="M12.364 2C11.6407 2 10.947 2.28734 10.4355 2.7988C9.92406 3.31026 9.63672 4.00396 9.63672 4.72727V12C9.63672 12.7233 9.92406 13.417 10.4355 13.9285C10.947 14.4399 11.6407 14.7273 12.364 14.7273C13.0873 14.7273 13.781 14.4399 14.2925 13.9285C14.8039 13.417 15.0913 12.7233 15.0913 12V4.72727C15.0913 4.00396 14.8039 3.31026 14.2925 2.7988C13.781 2.28734 13.0873 2 12.364 2V2Z" stroke="#6F6F70" stroke-width="2" stroke-linecap="round" stroke-linejoin="round"/>
<path d="M18.7273 10.1836V12.0018C18.7273 13.6895 18.0568 15.3081 16.8634 16.5015C15.67 17.695 14.0514 18.3654 12.3636 18.3654C10.6759 18.3654 9.05728 17.695 7.86387 16.5015C6.67045 15.3081 6 13.6895 6 12.0018V10.1836" stroke="#6F6F70" stroke-width="2" stroke-linecap="round" stroke-linejoin="round"/>
<path d="M12.3633 18.3633V21.9996" stroke="#6F6F70" stroke-width="2" stroke-linecap="round" stroke-linejoin="round"/>
<path d="M8.72754 22H16.0003" stroke="#6F6F70" stroke-width="2" stroke-linecap="round" stroke-linejoin="round"/>
</svg>
