<svg width="24" height="24" viewBox="0 0 24 24" fill="none" xmlns="http://www.w3.org/2000/svg">
<path d="M16.1782 14.7378L12.7075 11.2974C12.3064 10.8998 11.6583 10.9004 11.2568 11.302L7.82179 14.7378C6.84582 15.6885 8.31024 17.1146 9.28646 16.1639L10.4747 15.0027C10.7454 14.7383 10.9646 14.8236 10.9646 15.1959V23.1645H13.0356V15.1959C13.0356 14.8248 13.2551 14.7383 13.5255 15.0027L14.7135 16.1639C15.69 17.1146 17.1542 15.6885 16.1782 14.7378Z" fill="#6F6F70"/>
<path fill-rule="evenodd" clip-rule="evenodd" d="M21 18C21 19.1046 20.1046 20 19 20H15V18L19 18V6L5 6L5 18H9V20L5 20C3.89543 20 3 19.1046 3 18V6C3 4.89543 3.89543 4 5 4L19 4C20.1046 4 21 4.89543 21 6V18Z" fill="#6F6F70"/>
<path fill-rule="evenodd" clip-rule="evenodd" d="M19 10L5 10L5 8L19 8V10Z" fill="#6F6F70"/>
<path fill-rule="evenodd" clip-rule="evenodd" d="M17 6L17 8L15 8L15 6L17 6Z" fill="#6F6F70"/>
</svg>
