<svg width="20" height="20" viewBox="0 0 20 20" fill="none" xmlns="http://www.w3.org/2000/svg">
<path d="M8.70671 12.9154C9.05393 13.2626 9.49143 13.4256 10.0192 13.4045C10.547 13.384 10.9289 13.1931 11.165 12.832L15.8317 5.83203L8.83171 10.4987C8.4706 10.7487 8.27282 11.127 8.23837 11.6337C8.20337 12.1409 8.35948 12.5681 8.70671 12.9154ZM4.24837 16.6654C3.94282 16.6654 3.66171 16.5993 3.40504 16.467C3.14782 16.3354 2.94282 16.1376 2.79004 15.8737C2.42893 15.2209 2.15115 14.544 1.95671 13.8429C1.76226 13.1412 1.66504 12.4154 1.66504 11.6654C1.66504 10.5126 1.88393 9.42925 2.32171 8.41537C2.75893 7.40148 3.35254 6.51953 4.10254 5.76953C4.85254 5.01953 5.73448 4.42564 6.74837 3.98786C7.76226 3.55064 8.8456 3.33203 9.99837 3.33203C11.1373 3.33203 12.2067 3.54731 13.2067 3.97786C14.2067 4.40842 15.0817 4.99536 15.8317 5.7387C16.5817 6.48148 17.1789 7.34925 17.6234 8.34203C18.0678 9.33536 18.297 10.4015 18.3109 11.5404C18.3248 12.3043 18.2381 13.0509 18.0509 13.7804C17.8631 14.5093 17.5748 15.207 17.1859 15.8737C17.0331 16.1376 16.8284 16.3354 16.5717 16.467C16.3145 16.5993 16.0331 16.6654 15.7275 16.6654H4.24837Z" fill="#6F6F70"/>
</svg>
