<svg width="16" height="16" viewBox="0 0 16 16" fill="none" xmlns="http://www.w3.org/2000/svg">
<path d="M8 4.36364V3L6 4.81818L8 6.63636V5.27273C9.655 5.27273 11 6.49545 11 8C11 8.45909 10.875 8.89545 10.65 9.27273L11.38 9.93636C11.7851 9.35769 12.0002 8.68594 12 8C12 5.99091 10.21 4.36364 8 4.36364ZM8 10.7273C6.345 10.7273 5 9.50455 5 8C5 7.54091 5.125 7.10455 5.35 6.72727L4.62 6.06364C4.21488 6.64231 3.99979 7.31406 4 8C4 10.0091 5.79 11.6364 8 11.6364V13L10 11.1818L8 9.36364V10.7273Z" fill="#6F6F70"/>
</svg>
