<svg width="24" height="24" viewBox="0 0 24 24" fill="none" xmlns="http://www.w3.org/2000/svg">
<mask id="mask0_3165_22958" style="mask-type:alpha" maskUnits="userSpaceOnUse" x="2" y="2" width="20" height="20">
<path d="M10.5 12V9L13 10.5L15.5 12L13 13.5L10.5 15V12Z" fill="white" stroke="white" stroke-width="2" stroke-linejoin="round"/>
<path d="M5.636 18.364C6.4708 19.201 7.46278 19.8647 8.55493 20.3171C9.64708 20.7695 10.8179 21.0016 12 21C16.9705 21 21 16.9705 21 12C21 7.0295 16.9705 3 12 3C9.515 3 7.265 4.0075 5.636 5.636C4.807 6.465 3 8.5 3 8.5" stroke="white" stroke-width="2" stroke-linecap="round" stroke-linejoin="round"/>
<path d="M3 4.5V8.5H7" stroke="white" stroke-width="2" stroke-linecap="square" stroke-linejoin="round"/>
</mask>
<g mask="url(#mask0_3165_22958)">
<path d="M0 0H24V24H0V0Z" fill="#6F6F70"/>
</g>
</svg>
