<svg width="24" height="24" viewBox="0 0 24 24" fill="none" xmlns="http://www.w3.org/2000/svg">
<path fill-rule="evenodd" clip-rule="evenodd" d="M21 19C21 20.1046 20.1046 21 19 21L5 21C3.89543 21 3 20.1046 3 19L3 5C3 3.89543 3.89543 3 5 3L19 3C20.1046 3 21 3.89543 21 5L21 19ZM19 19L19 5L5 5L5 19H19Z" fill="#6F6F70"/>
<path fill-rule="evenodd" clip-rule="evenodd" d="M19 9L5 9L5 7L19 7V9Z" fill="#6F6F70"/>
<path fill-rule="evenodd" clip-rule="evenodd" d="M9 13H5L5 11L9 11V13Z" fill="#6F6F70"/>
<path fill-rule="evenodd" clip-rule="evenodd" d="M15 17L9 17L9 15L15 15L15 17Z" fill="#6F6F70"/>
<path fill-rule="evenodd" clip-rule="evenodd" d="M10.5 9L10.5 19L8.5 19L8.5 9L10.5 9Z" fill="#6F6F70"/>
<path fill-rule="evenodd" clip-rule="evenodd" d="M15.5 9L15.5 19L13.5 19L13.5 9L15.5 9Z" fill="#6F6F70"/>
<path d="M15 13H19V15H15V13Z" fill="#6F6F70"/>
<path fill-rule="evenodd" clip-rule="evenodd" d="M14 11H10V9H14V11Z" fill="#6F6F70"/>
<path fill-rule="evenodd" clip-rule="evenodd" d="M9 19H5V17H9V19Z" fill="#6F6F70"/>
<path fill-rule="evenodd" clip-rule="evenodd" d="M18 5L18 7L16 7L16 5L18 5Z" fill="#6F6F70"/>
<path fill-rule="evenodd" clip-rule="evenodd" d="M8 5L8 7L6 7L6 5L8 5Z" fill="#6F6F70"/>
</svg>
