<svg width="24" height="24" viewBox="0 0 24 24" fill="none" xmlns="http://www.w3.org/2000/svg">
<path fill-rule="evenodd" clip-rule="evenodd" d="M21 19C21 20.1046 20.1046 21 19 21L5 21C3.89543 21 3 20.1046 3 19L3 5C3 3.89543 3.89543 3 5 3L19 3C20.1046 3 21 3.89543 21 5L21 19ZM19 19L19 5L5 5L5 19H19Z" fill="#6F6F70"/>
<path fill-rule="evenodd" clip-rule="evenodd" d="M19 9L5 9L5 7L19 7V9Z" fill="#6F6F70"/>
<path fill-rule="evenodd" clip-rule="evenodd" d="M14 13L6 13L6 11L14 11L14 13Z" fill="#6F6F70"/>
<path fill-rule="evenodd" clip-rule="evenodd" d="M10 17L6 17L6 15L10 15L10 17Z" fill="#6F6F70"/>
<path fill-rule="evenodd" clip-rule="evenodd" d="M18 5L18 7L16 7L16 5L18 5Z" fill="#6F6F70"/>
<path fill-rule="evenodd" clip-rule="evenodd" d="M8 5L8 7L6 7L6 5L8 5Z" fill="#6F6F70"/>
</svg>
