<svg width="24" height="24" viewBox="0 0 24 24" fill="none" xmlns="http://www.w3.org/2000/svg">
<path d="M10 21.4V14.394C10 14.2349 10.0632 14.0823 10.1757 13.9697C10.2883 13.8572 10.4409 13.794 10.6 13.794H11.773C11.8733 13.7939 11.972 13.7687 12.06 13.7207C12.1481 13.6727 12.2227 13.6033 12.277 13.519L13.723 11.275C13.7773 11.1907 13.8519 11.1213 13.94 11.0733C14.028 11.0253 14.1267 11.0001 14.227 11H17.773C17.8733 11.0001 17.972 11.0253 18.06 11.0733C18.1481 11.1213 18.2227 11.1907 18.277 11.275L19.723 13.519C19.7773 13.6033 19.8519 13.6727 19.94 13.7207C20.028 13.7687 20.1267 13.7939 20.227 13.794H21.4C21.4788 13.794 21.5568 13.8095 21.6296 13.8397C21.7024 13.8698 21.7685 13.914 21.8243 13.9697C21.88 14.0255 21.9242 14.0916 21.9543 14.1644C21.9845 14.2372 22 14.3152 22 14.394V21.4C22 21.4788 21.9845 21.5568 21.9543 21.6296C21.9242 21.7024 21.88 21.7685 21.8243 21.8243C21.7685 21.88 21.7024 21.9242 21.6296 21.9543C21.5568 21.9845 21.4788 22 21.4 22H10.6C10.5212 22 10.4432 21.9845 10.3704 21.9543C10.2976 21.9242 10.2315 21.88 10.1757 21.8243C10.12 21.7685 10.0758 21.7024 10.0457 21.6296C10.0155 21.5568 10 21.4788 10 21.4V21.4Z" stroke="#6F6F70" stroke-width="2" stroke-linecap="round" stroke-linejoin="round"/>
<path d="M3 18V21H5.5M3 9.5V14.5M3 6V3H6M9.5 3H14.5M18 3H21V5.5M21 10V8.5M16 19C16.5304 19 17.0391 18.7893 17.4142 18.4142C17.7893 18.0391 18 17.5304 18 17C18 16.4696 17.7893 15.9609 17.4142 15.5858C17.0391 15.2107 16.5304 15 16 15C15.4696 15 14.9609 15.2107 14.5858 15.5858C14.2107 15.9609 14 16.4696 14 17C14 17.5304 14.2107 18.0391 14.5858 18.4142C14.9609 18.7893 15.4696 19 16 19Z" stroke="#6F6F70" stroke-width="2" stroke-linecap="round" stroke-linejoin="round"/>
</svg>
