<svg width="24" height="24" viewBox="0 0 24 24" fill="none" xmlns="http://www.w3.org/2000/svg">
<path d="M11.9336 2.77222C11.9035 2.77764 11.8739 2.78498 11.8448 2.7942C11.6845 2.83007 11.5416 2.92034 11.4405 3.0496C11.3394 3.17887 11.2863 3.33915 11.2902 3.50313V4.21205H4.89971C4.33475 4.21205 3.79293 4.43612 3.39345 4.83497C2.99396 5.23382 2.76953 5.77477 2.76953 6.33883L2.76953 15.5549C2.76953 16.7288 3.72385 17.6816 4.89971 17.6816H11.2902V17.9475L7.42894 19.875C7.25832 19.9573 7.12742 20.1039 7.06504 20.2825C7.00265 20.4611 7.01389 20.6571 7.09628 20.8275C7.17867 20.9978 7.32546 21.1285 7.50436 21.1908C7.68327 21.2531 7.87962 21.2419 8.05024 21.1596L11.2902 19.5426V19.8084C11.2902 19.9964 11.3651 20.1767 11.4982 20.3097C11.6314 20.4426 11.812 20.5173 12.0003 20.5173C12.1886 20.5173 12.3692 20.4426 12.5024 20.3097C12.6356 20.1767 12.7104 19.9964 12.7104 19.8084V19.5426L15.9504 21.1596C16.121 21.2419 16.3173 21.2531 16.4962 21.1908C16.6751 21.1285 16.8219 20.9978 16.9043 20.8275C16.9867 20.6571 16.998 20.4611 16.9356 20.2825C16.8732 20.1039 16.7423 19.9573 16.5717 19.875L12.7104 17.9475V17.6816H19.1009C20.2768 17.6816 21.2311 16.7288 21.2311 15.5549V6.33883C21.2311 5.77477 21.0066 5.23382 20.6072 4.83497C20.2077 4.43612 19.6659 4.21205 19.1009 4.21205H12.7104V3.50313C12.7139 3.40232 12.6959 3.3019 12.6575 3.20859C12.6192 3.11529 12.5613 3.03123 12.4877 2.96205C12.4142 2.89286 12.3267 2.84014 12.2312 2.80741C12.1356 2.77467 12.0341 2.76268 11.9336 2.77222ZM4.18965 6.33883H19.811V15.5549H4.18965V6.33883ZM17.592 7.04775C17.433 7.06482 17.2843 7.13502 17.1702 7.24696L14.8405 9.57365L13.2209 7.95518C13.1433 7.87571 13.0482 7.81554 12.9431 7.77949C12.8379 7.74345 12.7258 7.73254 12.6157 7.74764C12.5056 7.76274 12.4006 7.80343 12.3091 7.86645C12.2177 7.92946 12.1423 8.01303 12.0891 8.11043L9.98089 11.7883L9.11533 9.6169C9.0733 9.50478 9.00351 9.40512 8.91248 9.3272C8.82145 9.24928 8.71214 9.19565 8.59474 9.1713C8.47734 9.14695 8.35568 9.15268 8.2411 9.18795C8.12652 9.22323 8.02275 9.2869 7.93947 9.37303L5.80929 11.4998C5.74216 11.5668 5.68889 11.6463 5.65254 11.7339C5.61619 11.8214 5.59746 11.9152 5.59743 12.01C5.59739 12.1047 5.61606 12.1986 5.65235 12.2861C5.68864 12.3737 5.74185 12.4533 5.80894 12.5203C5.87603 12.5873 5.95569 12.6405 6.04336 12.6768C6.13104 12.7131 6.22502 12.7318 6.31993 12.7318C6.41484 12.7319 6.50884 12.7132 6.59654 12.677C6.68424 12.6408 6.76393 12.5876 6.83107 12.5207L8.18444 11.1694L9.20551 13.6946C9.2537 13.8213 9.33723 13.9315 9.4462 14.0122C9.55518 14.0929 9.68504 14.1408 9.82041 14.1501C9.95578 14.1594 10.091 14.1298 10.21 14.0648C10.3291 13.9998 10.427 13.9021 10.4921 13.7833L12.8666 9.64029L14.3307 11.1028C14.3969 11.1712 14.4763 11.2256 14.564 11.2627C14.6517 11.2999 14.746 11.319 14.8412 11.319C14.9365 11.319 15.0308 11.2999 15.1185 11.2627C15.2062 11.2256 15.2856 11.1712 15.3518 11.1028L18.192 8.2671C18.3042 8.16343 18.3798 8.02638 18.4078 7.87634C18.4357 7.72629 18.4143 7.57126 18.3469 7.43429C18.2795 7.29732 18.1697 7.18571 18.0337 7.11607C17.8976 7.04643 17.7428 7.02247 17.592 7.04775Z" fill="#6F6F70"/>
</svg>
