<svg width="24" height="24" viewBox="0 0 24 24" fill="none" xmlns="http://www.w3.org/2000/svg">
<path fill-rule="evenodd" clip-rule="evenodd" d="M19 15H14.0482C14 14 13.3949 13.1444 13 13H19V15Z" fill="#2A94E5"/>
<path fill-rule="evenodd" clip-rule="evenodd" d="M19 18H12.5C13.5 17.5 14 17 14 16L19 16V18Z" fill="#2A94E5"/>
<path fill-rule="evenodd" clip-rule="evenodd" d="M9 4C9 2.89543 9.89543 2 11 2H20C21.1046 2 22 2.89543 22 4V20C22 21.1046 21.1046 22 20 22H11C9.89543 22 9 21.1046 9 20V19.625C9.86834 19.2172 10.3108 19.0067 11 18.7V20H20V4H11V12.2252C10.2522 12.2961 9.81187 12.452 9 12.875V4Z" fill="#2A94E5"/>
<rect x="12" y="5" width="5" height="6" rx="1" fill="#2A94E5"/>
<path d="M7.46154 14.8822V10.795C7.46154 10.0115 6.60138 9.53237 5.93518 9.94478L1.47365 12.7067C1.17918 12.889 1 13.2106 1 13.5569V18.8596C1 19.2938 1.2802 19.6783 1.69351 19.8114L4.79668 20.8106C5.15704 20.9266 5.55202 20.8292 5.81711 20.5589L7.46154 18.8822L11.6371 17.0198C12.5418 16.6162 12.9748 15.5771 12.6243 14.6505C12.2827 13.7475 11.2618 13.3062 10.37 13.676L7.46154 14.8822Z" fill="#2A94E5"/>
</svg>
