<svg width="72" height="72" viewBox="0 0 72 72" fill="none" xmlns="http://www.w3.org/2000/svg">
<path d="M48 48L36 36L24 48" stroke="#2A94E5" stroke-width="2" stroke-linecap="round" stroke-linejoin="round"/>
<path d="M36 36V63" stroke="#2A94E5" stroke-width="4" stroke-linecap="round" stroke-linejoin="round"/>
<path d="M61.1699 55.1704C64.0959 53.5753 66.4074 51.0511 67.7395 47.9963C69.0716 44.9415 69.3485 41.5301 68.5265 38.3005C67.7045 35.0709 65.8304 32.207 63.1999 30.1608C60.5694 28.1146 57.3325 27.0026 53.9999 27.0004H50.2199C49.3118 23.4882 47.6194 20.2274 45.2697 17.4634C42.9201 14.6994 39.9744 12.504 36.6542 11.0423C33.3339 9.58053 29.7255 8.89052 26.1002 9.02409C22.4749 9.15766 18.9271 10.1113 15.7234 11.8134C12.5197 13.5155 9.74362 15.9217 7.60375 18.8512C5.46388 21.7806 4.01595 25.1571 3.36882 28.7266C2.72169 32.2962 2.8922 35.966 3.86752 39.4602C4.84285 42.9544 6.59761 46.182 8.99988 48.9004" stroke="#2A94E5" stroke-width="4" stroke-linecap="round" stroke-linejoin="round"/>
<path d="M48 48L36 36L24 48" stroke="#2A94E5" stroke-width="4" stroke-linecap="round" stroke-linejoin="round"/>
</svg>
