<svg width="24" height="24" viewBox="0 0 24 24" fill="none" xmlns="http://www.w3.org/2000/svg">
<g clip-path="url(#clip0_263_20763)">
<path fill-rule="evenodd" clip-rule="evenodd" d="M14.7603 7.95925C14.9682 8.05916 15.1004 8.26939 15.1004 8.50003V15.5C15.1004 15.7307 14.9682 15.9409 14.7603 16.0408C14.5524 16.1407 14.3057 16.1126 14.1256 15.9686L11.7899 14.1H10.0004C9.66902 14.1 9.40039 13.8314 9.40039 13.5V10.5C9.40039 10.1687 9.66902 9.90003 10.0004 9.90003H11.7899L14.1256 8.03151C14.3057 7.88743 14.5524 7.85934 14.7603 7.95925ZM13.9004 9.74841L12.3752 10.9686C12.2688 11.0537 12.1366 11.1 12.0004 11.1H10.6004V12.9H12.0004C12.1366 12.9 12.2688 12.9464 12.3752 13.0315L13.9004 14.2517V9.74841Z" fill="#6F6F70"/>
</g>
<defs>
<clipPath id="clip0_263_20763">
<rect width="24" height="24" rx="4" fill="white"/>
</clipPath>
</defs>
</svg>
